<?xml version="1.0" encoding="utf-8"?>
<!-- Generator: Adobe Illustrator 22.0.0, SVG Export Plug-In . SVG Version: 6.00 Build 0)  -->
<svg version="1.1" id="Layer_1" xmlns="http://www.w3.org/2000/svg" xmlns:xlink="http://www.w3.org/1999/xlink" x="0px" y="0px"
	 viewBox="0 0 1366 768" style="enable-background:new 0 0 1366 768;" xml:space="preserve">
<style type="text/css">
	.st0{fill:#5146AF;}
	.st1{fill:#65B2E5;}
</style>
<g>
	<path class="st0" d="M451,573.1c-11.2,0-22.1-5.8-28.1-16.2c-8.9-15.5-3.6-35.3,11.9-44.2L603.1,416l0.3-194.1
		c0-17.9,14.5-32.3,32.3-32.3h0.1c17.9,0,32.3,14.5,32.3,32.4l-0.4,231.4L467.1,568.8C462,571.8,456.5,573.1,451,573.1z"/>
	<path class="st0" d="M1014.3,573.1c11.2,0,22.1-5.8,28.1-16.2c8.9-15.5,3.6-35.3-11.9-44.2L862.2,416l-0.3-194.1
		c0-17.9-14.5-32.3-32.4-32.3h-0.1c-17.9,0-32.3,14.5-32.3,32.4l0.4,231.4l200.6,115.4C1003.3,571.8,1008.8,573.1,1014.3,573.1z"/>
	<path class="st0" d="M520.3,679.6c-5.6,9.7-6,22,0,32.4c9,15.4,28.8,20.7,44.2,11.7l167.9-97.4L900.7,723
		c15.5,8.9,35.2,3.6,44.1-11.9l0-0.1c8.9-15.5,3.6-35.3-12-44.2L732.3,551.6L532.1,667.7C527,670.7,523.1,674.8,520.3,679.6z"/>
	<line class="st1" x1="1084.7" y1="679.5" x2="777.1" y2="501.9"/>
	<path class="st0" d="M1084.7,708.8c-5,0-10-1.3-14.6-3.9L762.4,527.2c-14-8.1-18.8-26-10.7-40c8.1-14,26-18.8,40-10.7l307.6,177.6
		c14,8.1,18.8,26,10.7,40C1104.7,703.5,1094.8,708.8,1084.7,708.8z"/>
	<line class="st1" x1="732.6" y1="435.6" x2="732.6" y2="92.5"/>
	<path class="st0" d="M732.6,464.9c-16.2,0-29.3-13.1-29.3-29.3V92.5c0-16.2,13.1-29.3,29.3-29.3c16.2,0,29.3,13.1,29.3,29.3v343.1
		C761.9,451.8,748.8,464.9,732.6,464.9z"/>
	<line class="st1" x1="382.8" y1="679.5" x2="690.4" y2="501.9"/>
	<path class="st0" d="M382.8,708.8c-10.1,0-19.9-5.3-25.4-14.6c-8.1-14-3.3-31.9,10.7-40l307.7-177.6c14-8.1,31.9-3.3,40,10.7
		c8.1,14,3.3,31.9-10.7,40L397.4,704.9C392.8,707.5,387.8,708.8,382.8,708.8z"/>
</g>
</svg>
