<?xml version="1.0" encoding="utf-8"?>
<!-- Generator: Adobe Illustrator 22.0.0, SVG Export Plug-In . SVG Version: 6.00 Build 0)  -->
<svg version="1.1" id="Layer_1" xmlns="http://www.w3.org/2000/svg" xmlns:xlink="http://www.w3.org/1999/xlink" x="0px" y="0px"
	 viewBox="0 0 1366 768" style="enable-background:new 0 0 1366 768;" xml:space="preserve">
<style type="text/css">
	.st0{fill:#EAE6FF;}
	.st1{fill:#D6D6D6;}
	.st2{fill:#534B64;}
	.st3{fill:#73C9CC;}
	.st4{fill:#F0F0F0;}
	.st5{fill:#F78B11;}
	.st6{fill:#C29F53;}
	.st7{opacity:0.25;fill:#216186;}
	.st8{fill:#FFFFFF;}
	.st9{fill:#32AEAE;}
	.st10{fill:#F2F2F2;}
	.st11{fill:#CCCCCC;}
	.st12{fill:#FF9C00;}
	.st13{opacity:0.32;fill:#FFFF8C;}
	.st14{fill:#EB7501;}
	.st15{fill:#4DBBC5;}
	.st16{fill:#8AD2D0;}
	.st17{opacity:8.000000e-02;fill:#4D4D4D;}
</style>
<g>
	<g>
		<path class="st0" d="M327.1,403.9c0,186.2,150.9,337.1,337.1,337.1c186.2,0,337.1-150.9,337.1-337.1
			c0-186.2-150.9-337.1-337.1-337.1C478.1,66.8,327.1,217.7,327.1,403.9z"/>
		<rect x="575.5" y="467.2" class="st1" width="177.4" height="62.7"/>
		<path class="st2" d="M943.9,99.3v297.6H384.5V99.3c0-5.7,4.6-10.3,10.4-10.3h538.7C939.3,89,943.9,93.6,943.9,99.3z"/>
		<rect x="411.4" y="115.7" class="st3" width="505.7" height="253.8"/>
		<rect x="534.5" y="526.5" class="st4" width="259.4" height="25.8"/>
		<rect x="424.9" y="128.6" class="st5" width="478.7" height="126.9"/>
		<path class="st6" d="M887.5,193c0,16.2-7.7,30.6-19.7,39.7c-7.6,5.8-17,9.5-27.2,10.1c-1,0-1.9,0.1-2.9,0.1
			c-1.6,0-3.2-0.1-4.8-0.2c-9.9-0.9-19-4.7-26.3-10.6c-11.5-9.1-18.8-23.2-18.8-39c0-27.5,22.3-49.8,49.8-49.8
			C865.2,143.2,887.5,165.4,887.5,193z"/>
		<path class="st5" d="M867.5,220.7v13.7c-7.6,5.8-17,9.5-27.2,10.1c-1,0.1-1.9,0.1-2.9,0.1c-1.6,0-3.2-0.1-4.8-0.2
			c-9.9-0.9-19-4.7-26.3-10.6v-13c0-1.3,0.9-2.3,2.1-2.8h0.1c0,0,0,0,0.1,0l1.7-0.6l14-5.2v0l2.2-4.5h0.9v-5
			c-3.6-2.9-6.2-7.6-7.3-13.1c0-0.1,0-0.1,0-0.2c-1.1-0.9-2.1-2.7-2.4-4.9c-0.5-3.3,0.5-6.2,2.3-6.5c0-0.2,0.2-1,0.1-1.4
			c-0.3-1.3-0.4-1.3-0.7-2c-0.2-0.6-0.6-1.2-0.9-1.8v-0.1h0c-0.3-0.6-0.5-1.2-0.5-1.8c-0.1-1.2,1-2.3,1.5-3.3
			c3.7-5.8,9.8-9.7,16.4-9.7c5.4,0,12.7,2.1,12.3,9.6c1.1-1.1,2.8-1.1,4.1-0.2c1.7,1.5,1.8,2.5,2.2,4.1c0.1,0.7,0.2,1.3,0.2,1.8
			c0.1,1.1,0,2-0.2,2.9c-0.1,0.6-0.3,1.3-0.5,1.8c0,0,0,0,0,0c0,0,0,0,0.1,0c0,0,0,0,0.1,0c1.7,0.4,2.7,3.2,2.2,6.5
			c-0.4,2.7-1.7,4.8-3.1,5.3c0,0-0.1,0-0.2,0c-1.1,5.2-3.6,9.6-6.9,12.5c0,0,0,0-0.1,0v5.3h0.7l2.2,4.5l16.4,5.9
			C866.5,218.3,867.5,219.4,867.5,220.7z"/>
		<rect x="438.6" y="143.2" class="st6" width="339.3" height="16.5"/>
		<rect x="438.6" y="168.6" class="st6" width="276.4" height="16.5"/>
		<rect x="438.6" y="194.1" class="st6" width="234.5" height="16.5"/>
		<rect x="438.6" y="219.6" class="st6" width="248.2" height="16.5"/>
		<g>
			<path class="st7" d="M689.2,89v120.6c0,5.4-4.4,9.7-9.7,9.7h-10.1v52.6l-63.7-52.6H389.4c-1.8,0-3.4-0.5-4.9-1.4V99.3
				c0-5.7,4.6-10.3,10.3-10.3H689.2z"/>
			<path class="st8" d="M673.1,35v134.6c0,5.4-4.4,9.7-9.7,9.7h-10.1v52.6l-63.7-52.6H373.3c-5.3,0-9.7-4.3-9.7-9.7V35
				c0-5.4,4.3-9.7,9.7-9.7h290.1C668.8,25.4,673.1,29.7,673.1,35z"/>
		</g>
		<rect x="440.9" y="270.3" class="st9" width="77.2" height="77.2"/>
		<rect x="533.3" y="270.3" class="st10" width="77.2" height="77.2"/>
		<rect x="625.7" y="270.3" class="st9" width="77.2" height="77.2"/>
		<rect x="718" y="270.3" class="st10" width="77.2" height="77.2"/>
		<rect x="810.4" y="270.3" class="st9" width="77.2" height="77.2"/>
		<rect x="575.5" y="471" class="st7" width="177.4" height="20.1"/>
		<path class="st4" d="M943.9,396.9v63.7c0,5.7-4.6,10.3-10.3,10.3H394.9c-5.7,0-10.4-4.6-10.4-10.3v-63.7H943.9z"/>
		<path class="st11" d="M681.7,433.9c0,9.7-7.8,17.5-17.5,17.5c-9.7,0-17.5-7.8-17.5-17.5s7.8-17.5,17.5-17.5
			C673.9,416.4,681.7,424.3,681.7,433.9z"/>
		<g>
			<path class="st12" d="M555,115.6c0,5.3-4.3,9.7-9.7,9.7h-152c-5.3,0-9.7-4.3-9.7-9.7V52.7c0-5.3,4.3-9.7,9.7-9.7h152
				c5.3,0,9.7,4.3,9.7,9.7V115.6z"/>
			<path class="st13" d="M548.7,52.7v31.4H389.9V52.7c0-1.9,1.6-3.4,3.4-3.4h152C547.2,49.3,548.7,50.9,548.7,52.7z"/>
			<g>
				<path class="st14" d="M428,107V60.8h10.4c2.8,0,5.2,0.7,7.4,2.2c1.9,1.2,3.2,3.1,4.1,5.7c0.4,1.4,0.7,3,0.7,4.9
					c0,3.1-0.8,5.6-2.5,7.4c-0.7,0.8-1.5,1.4-2.4,1.8c1.5,0.6,2.9,1.8,3.9,3.5c0.7,1.2,1.2,2.7,1.6,4.6c0.2,1,0.3,2,0.3,3.2
					c0,2.9-0.6,5.4-1.7,7.4c-0.9,1.6-2.1,2.9-3.6,3.8c-1.8,1.1-3.5,1.6-5.3,1.6H428z M435.5,79.7h2.9c2.2,0,3.6-1.1,4.3-3.2
					c0.3-0.8,0.4-1.8,0.4-2.9c0-1.9-0.5-3.4-1.4-4.3c-0.9-0.9-2-1.4-3.4-1.4h-2.9V79.7z M435.5,100.1h2.9c2.4,0,4-1.2,4.9-3.6
					c0.3-0.8,0.5-1.8,0.5-2.9c0-2.6-0.5-4.5-1.5-5.6c-0.9-1.1-2.2-1.6-3.9-1.6h-2.9V100.1z"/>
				<path class="st14" d="M468.5,107.5c-3.1,0-5.7-1.1-7.8-3.2c-2.1-2.1-3.2-4.7-3.2-7.8V60.8h6.8v35.6c0,1.1,0.4,2,1.2,2.8
					c0.8,0.8,1.7,1.2,2.8,1.2c1.1,0,2-0.4,2.8-1.2c0.8-0.8,1.2-1.7,1.2-2.8V60.8h7.3v35.7c0,3.1-1.1,5.7-3.2,7.8
					C474.1,106.5,471.5,107.5,468.5,107.5z"/>
				<path class="st14" d="M494.4,87.7L485,60.8h7.7l5.2,16.6l5.1-16.6h7.7l-9.4,26.9V107h-7V87.7z"/>
			</g>
		</g>
		<g>
			<path class="st15" d="M595,100.2c4.4,0,6.6-2,6.6-6.1v-3.7c0-6.5-3.4-9.8-10.2-9.8v-8.2c3.7,0,6.4-1,8.1-3.1
				c1.6-1.9,2.4-4.4,2.4-7.8v-1.5c0-4.1-1.8-6.2-5.5-6.2c-2,0-3.5,0.8-4.5,2.3c-0.7,1.2-1.1,2.7-1.1,4.6v1.7h-9.4V61
				c0-4.5,1.1-8.2,3.4-11c2.6-3.2,6.3-4.9,11-4.9c4.5,0,8.1,1.5,10.8,4.6c2.4,2.7,3.6,6.1,3.6,10.2v2.7c0,3.9-1.2,7.4-3.5,10.2
				c-1,1.2-2.2,2.2-3.5,3.1c2.8,1.6,5,4,6.6,7.2c0.8,1.7,1.2,3.7,1.2,6v5c0,4.7-1.6,8.5-4.8,11.5c-3.1,2.9-6.8,4.4-11.1,4.4
				c-4.2,0-7.8-1.5-10.7-4.5c-2.9-3-4.4-6.5-4.4-10.7v-1.6l9.1-0.7l0.2,2.2c0.1,1.6,0.7,2.9,1.7,3.9
				C592.1,99.7,593.4,100.2,595,100.2z"/>
			<path class="st15" d="M649.6,94.9c0,4.2-1.5,7.8-4.4,10.7c-3,2.9-6.5,4.4-10.7,4.4c-4.2,0-7.8-1.5-10.7-4.4
				c-3-3-4.4-6.5-4.4-10.7V60.3c0-4.2,1.5-7.8,4.5-10.7c3-3,6.5-4.4,10.7-4.4c4.2,0,7.8,1.5,10.7,4.5c2.9,3,4.4,6.5,4.4,10.7V94.9z
				 M639.6,60.1c0-1.5-0.5-2.8-1.6-3.9c-1.1-1.1-2.4-1.6-3.9-1.6c-1.5,0-2.8,0.5-3.9,1.6c-1.1,1.1-1.6,2.4-1.6,3.9v34.7
				c0,1.5,0.5,2.8,1.6,3.9c1.1,1.1,2.4,1.6,3.9,1.6c1.5,0,2.8-0.5,3.9-1.6c1.1-1.1,1.6-2.4,1.6-3.9V60.1z"/>
			<path class="st15" d="M599,146.7c0,2.8-1,5.2-2.9,7.2c-2,2-4.3,3-7.1,3h-10v-42.3h10c2.8,0,5.2,1,7.1,3c1.9,2,2.9,4.4,2.9,7.1
				V146.7z M585.4,150.5h3.8c1,0,1.9-0.4,2.6-1.1c0.7-0.7,1-1.6,1-2.6v-22.1c0-1-0.4-1.9-1.1-2.6c-0.7-0.7-1.6-1.1-2.5-1.1h-3.8
				V150.5z"/>
			<path class="st15" d="M611.6,147.1l-1.5,9.7h-6.6l7.2-42.3h8.8l7.1,42.3h-6.7l-1.5-9.7H611.6z M615,124.3l-2.4,16.7h4.7
				L615,124.3z"/>
			<path class="st15" d="M633.5,139.1l-8.5-24.6h7l4.7,15.2l4.7-15.2h7l-8.6,24.6v17.7h-6.4V139.1z"/>
		</g>
		<polygon class="st12" points="397.2,133.8 401.4,142.3 410.7,143.6 403.9,150.2 405.5,159.5 397.2,155.1 388.8,159.5 390.4,150.2 
			383.7,143.6 393,142.3 		"/>
		<polygon class="st12" points="431.9,133.8 436.1,142.3 445.4,143.6 438.6,150.2 440.2,159.5 431.9,155.1 423.6,159.5 425.1,150.2 
			418.4,143.6 427.7,142.3 		"/>
		<polygon class="st12" points="465.7,133.8 469.9,142.3 479.2,143.6 472.5,150.2 474.1,159.5 465.7,155.1 457.4,159.5 459,150.2 
			452.2,143.6 461.6,142.3 		"/>
		<polygon class="st12" points="499.6,133.8 503.8,142.3 513.1,143.6 506.3,150.2 507.9,159.5 499.6,155.1 491.2,159.5 492.8,150.2 
			486.1,143.6 495.4,142.3 		"/>
		<polygon class="st12" points="533.4,133.8 537.6,142.3 546.9,143.6 540.2,150.2 541.8,159.5 533.4,155.1 525.1,159.5 526.7,150.2 
			519.9,143.6 529.3,142.3 		"/>
		<polygon class="st15" points="540.2,150.2 541.7,159.5 533.4,155.1 533.4,133.8 537.6,142.3 546.9,143.6 		"/>
		<g>
			<rect x="380.8" y="569.1" class="st16" width="468.2" height="151.9"/>
			<g>
				<rect x="394.7" y="581.1" class="st8" width="22.3" height="23.4"/>
				<rect x="427.4" y="581.1" class="st8" width="22.3" height="23.4"/>
				<rect x="460" y="581.1" class="st8" width="22.3" height="23.4"/>
				<rect x="492.6" y="581.1" class="st8" width="22.3" height="23.4"/>
				<rect x="525.2" y="581.1" class="st8" width="22.3" height="23.4"/>
				<rect x="557.9" y="581.1" class="st8" width="22.3" height="23.4"/>
				<rect x="590.5" y="581.1" class="st8" width="22.3" height="23.4"/>
				<rect x="623.1" y="581.1" class="st8" width="22.3" height="23.4"/>
				<rect x="655.8" y="581.1" class="st8" width="22.3" height="23.4"/>
				<rect x="688.4" y="581.1" class="st8" width="22.3" height="23.4"/>
				<rect x="721.1" y="581.1" class="st8" width="22.3" height="23.4"/>
				<rect x="753.7" y="581.1" class="st8" width="22.3" height="23.4"/>
				<rect x="786.3" y="581.1" class="st8" width="22.3" height="23.4"/>
				<rect x="818.9" y="581.1" class="st8" width="22.3" height="23.4"/>
				<rect x="394.7" y="621.6" class="st8" width="22.3" height="23.4"/>
				<rect x="427.4" y="621.6" class="st8" width="22.3" height="23.4"/>
				<rect x="460" y="621.6" class="st8" width="22.3" height="23.4"/>
				<rect x="492.6" y="621.6" class="st8" width="22.3" height="23.4"/>
				<rect x="525.2" y="621.6" class="st8" width="22.3" height="23.4"/>
				<rect x="557.9" y="621.6" class="st8" width="22.3" height="23.4"/>
				<rect x="590.5" y="621.6" class="st8" width="22.3" height="23.4"/>
				<rect x="623.1" y="621.6" class="st8" width="22.3" height="23.4"/>
				<rect x="655.8" y="621.6" class="st8" width="22.3" height="23.4"/>
				<rect x="655.8" y="621.6" class="st8" width="22.3" height="32.1"/>
				<rect x="753.7" y="621.6" class="st8" width="22.3" height="23.4"/>
				<rect x="688.4" y="621.6" class="st8" width="22.3" height="23.4"/>
				<rect x="721.1" y="621.6" class="st8" width="22.3" height="23.4"/>
				<rect x="786.3" y="621.6" class="st8" width="22.3" height="23.4"/>
				<rect x="818.9" y="621.6" class="st8" width="22.3" height="23.4"/>
				<rect x="394.7" y="653.8" class="st8" width="22.3" height="23.4"/>
				<rect x="427.4" y="653.8" class="st8" width="22.3" height="23.4"/>
				<rect x="460" y="653.8" class="st8" width="22.3" height="23.4"/>
				<rect x="492.6" y="653.8" class="st8" width="22.3" height="23.4"/>
				<rect x="525.2" y="653.8" class="st8" width="22.3" height="23.4"/>
				<rect x="557.9" y="653.8" class="st8" width="22.3" height="23.4"/>
				<rect x="590.5" y="653.8" class="st8" width="22.3" height="23.4"/>
				<rect x="623.1" y="653.8" class="st8" width="22.3" height="23.4"/>
				<rect x="623.1" y="653.8" class="st8" width="55" height="23.4"/>
				<rect x="721.1" y="653.8" class="st8" width="22.3" height="23.4"/>
				<rect x="786.3" y="653.8" class="st8" width="22.3" height="23.4"/>
				<rect x="818.9" y="653.8" class="st8" width="22.3" height="23.4"/>
				<rect x="394.7" y="685.9" class="st8" width="48.5" height="23.4"/>
				<rect x="460" y="685.9" class="st8" width="152.9" height="23.4"/>
				<rect x="623.1" y="685.9" class="st8" width="22.3" height="23.4"/>
				<rect x="655.8" y="685.9" class="st8" width="22.3" height="23.4"/>
				<rect x="688.4" y="685.9" class="st8" width="22.3" height="23.4"/>
				<rect x="721.1" y="685.9" class="st8" width="22.3" height="23.4"/>
				<rect x="753.7" y="685.9" class="st8" width="22.3" height="23.4"/>
				<rect x="786.3" y="685.9" class="st8" width="22.3" height="23.4"/>
				<rect x="818.9" y="685.9" class="st8" width="22.3" height="23.4"/>
			</g>
		</g>
		<g>
			<path class="st10" d="M943.9,651.9c0,21.7-17.6,39.2-39.2,39.2l0,0c-21.6,0-39.2-17.6-39.2-39.2v-43.6
				c0-21.7,17.6-39.2,39.2-39.2l0,0c21.7,0,39.2,17.6,39.2,39.2V651.9z"/>
			<path class="st2" d="M909.3,608.8c0,2.4-1.9,4.3-4.3,4.3l0,0c-2.4,0-4.3-1.9-4.3-4.3v-15.6c0-2.4,1.9-4.3,4.3-4.3l0,0
				c2.4,0,4.3,1.9,4.3,4.3V608.8z"/>
			<path class="st17" d="M943.9,608.3v43.6c0,21.6-17.5,39.2-39.2,39.2c-10.8,0-20.6-4.4-27.7-11.5c-4.1-4.1-7.4-9.2-9.3-14.8
				c6.8,5.9,15.7,9.4,25.4,9.4c21.7,0,39.2-17.6,39.2-39.2v-43.6c0-4.5-0.8-8.9-2.2-12.9c0.8,0.7,1.6,1.4,2.3,2.2
				C939.5,587.7,943.9,597.5,943.9,608.3z"/>
		</g>
	</g>
</g>
</svg>
