<?xml version="1.0" encoding="utf-8"?>
<!-- Generator: Adobe Illustrator 22.0.0, SVG Export Plug-In . SVG Version: 6.00 Build 0)  -->
<svg version="1.1" id="Layer_1" xmlns="http://www.w3.org/2000/svg" xmlns:xlink="http://www.w3.org/1999/xlink" x="0px" y="0px"
	 viewBox="0 0 1366 768" style="enable-background:new 0 0 1366 768;" xml:space="preserve">
<style type="text/css">
	.st0{fill:#EAE6FF;}
	.st1{fill:#534B64;}
	.st2{fill:#CCD5D8;}
	.st3{fill:#2BAAA5;}
	.st4{fill:#6FC6C0;}
	.st5{fill:#6FBABB;}
	.st6{fill:#655B79;}
	.st7{fill:#0392AA;}
	.st8{fill:none;stroke:#FFFFFF;stroke-width:0.25;stroke-linecap:round;stroke-linejoin:round;stroke-miterlimit:10;}
	.st9{fill:#FEA621;}
	.st10{fill:#FFFFFF;}
	.st11{opacity:0.25;fill:#216186;}
	.st12{fill:#F2F2F2;}
	.st13{fill:#EEC4A7;}
	.st14{opacity:0.2;fill:#8A8A8A;}
	.st15{fill:#5E8C74;}
	.st16{fill:#DBDBDB;}
	.st17{fill:#F8EACB;}
	.st18{opacity:0.43;fill:#8A8A8A;}
	.st19{fill:#11787F;}
	.st20{opacity:0.67;}
	.st21{fill:#878787;}
	.st22{fill:#D7D7DE;}
	.st23{fill:#67C6DD;}
	.st24{fill:#FFE610;}
	.st25{fill:#FF8000;}
	.st26{fill:#DADAE0;}
	.st27{fill:#C4C4CA;}
	.st28{fill:#BBBBC0;}
	.st29{fill:#C2A116;}
	.st30{fill:#F9F122;}
	.st31{fill:#FCF018;}
	.st32{fill:#DFCA11;}
	.st33{fill:#FAF418;}
	.st34{opacity:0.42;fill:#7A8494;}
	.st35{opacity:0.42;}
	.st36{opacity:0.77;}
	.st37{fill:#7A8494;}
</style>
<g>
	<g>
		
			<ellipse transform="matrix(0.7071 -0.7071 0.7071 0.7071 -64.2694 576.5841)" class="st0" cx="663.9" cy="365.9" rx="344.1" ry="344.1"/>
		<path class="st1" d="M915.9,545.4c0,7.5-6.7,13.6-15,13.6H423.4c-8.3,0-15-6.1-15-13.6V262.1c0-7.5,6.7-13.6,15-13.6H901
			c8.3,0,15,6.1,15,13.6V545.4z"/>
		<rect x="430" y="274.2" class="st2" width="464.3" height="258"/>
		<path class="st3" d="M943.7,613.1c0,15.4-11.4,27.9-25.5,27.9H406c-14,0-25.4-12.5-25.4-27.9H943.7z"/>
		<polygon class="st4" points="943.7,613.1 380.6,613.1 408.4,559 915.9,559 		"/>
		<g>
			<path class="st3" d="M747.1,608.2c-73.7,0-110.5,0-184.2,0c4.2-8.9,6.2-13.3,10.4-22.2c65.3,0,98,0,163.4,0
				C740.8,594.9,742.9,599.4,747.1,608.2z"/>
		</g>
		<g>
			<rect x="440.9" y="322.3" class="st5" width="222.3" height="158.6"/>
			<rect x="448.2" y="328.2" class="st6" width="207.8" height="126.5"/>
			<path class="st7" d="M469.5,467.6c0,5.9-4.8,10.7-10.7,10.7c-5.9,0-10.7-4.8-10.7-10.7c0-5.9,4.8-10.7,10.7-10.7
				C464.8,457,469.5,461.7,469.5,467.6z"/>
			<path class="st7" d="M493,467.6c0,5.9-4.8,10.7-10.7,10.7c-5.9,0-10.7-4.8-10.7-10.7c0-5.9,4.8-10.7,10.7-10.7
				C488.3,457,493,461.7,493,467.6z"/>
			<polygon class="st8" points="455,461.4 455,473.9 465.3,467.6 			"/>
			<path class="st9" d="M572.8,391.4c0,11.4-9.3,20.7-20.7,20.7s-20.7-9.3-20.7-20.7c0-11.4,9.3-20.7,20.7-20.7
				S572.8,380,572.8,391.4z"/>
			<polygon class="st10" points="544.5,379.4 544.5,403.5 564.5,391.4 			"/>
			<path class="st11" d="M571.6,398.5c-2.8,7.7-9.9,13.3-18.4,13.7l-8.6-8.6l20-12.1L571.6,398.5z"/>
			<g>
				<path class="st10" d="M479.3,474.2c-0.5,0-0.8-0.4-0.8-0.8v-11.4c0-0.5,0.4-0.8,0.8-0.8c0.5,0,0.8,0.4,0.8,0.8v11.4
					C480.2,473.8,479.8,474.2,479.3,474.2z"/>
			</g>
			<g>
				<path class="st10" d="M485.4,474.2c-0.5,0-0.8-0.4-0.8-0.8v-11.4c0-0.5,0.4-0.8,0.8-0.8c0.5,0,0.8,0.4,0.8,0.8v11.4
					C486.2,473.8,485.8,474.2,485.4,474.2z"/>
			</g>
			<rect x="504" y="460.1" class="st7" width="133.6" height="3.9"/>
			<path class="st12" d="M508.6,462.1c0,2.5-2,4.5-4.5,4.5c-2.5,0-4.5-2-4.5-4.5c0-2.5,2-4.5,4.5-4.5
				C506.5,457.6,508.6,459.6,508.6,462.1z"/>
			<rect x="644.4" y="460.1" class="st12" width="11.6" height="2.9"/>
			<rect x="647.3" y="464" class="st12" width="8.7" height="2.9"/>
			<rect x="650.2" y="468" class="st12" width="5.8" height="2.9"/>
			<rect x="653.1" y="471.9" class="st12" width="2.9" height="2.9"/>
		</g>
		<rect x="440.3" y="280.8" class="st12" width="443.6" height="20.3"/>
		<path class="st5" d="M842.7,290.9c0,3.8-3.1,6.9-6.9,6.9c-3.8,0-6.9-3.1-6.9-6.9c0-3.8,3.1-6.9,6.9-6.9
			C839.7,284.1,842.7,287.1,842.7,290.9z"/>
		<path class="st5" d="M860.9,290.9c0,3.8-3.1,6.9-6.9,6.9c-3.8,0-6.9-3.1-6.9-6.9c0-3.8,3.1-6.9,6.9-6.9
			C857.8,284.1,860.9,287.1,860.9,290.9z"/>
		<path class="st5" d="M879,290.9c0,3.8-3.1,6.9-6.9,6.9c-3.8,0-6.9-3.1-6.9-6.9c0-3.8,3.1-6.9,6.9-6.9
			C875.9,284.1,879,287.1,879,290.9z"/>
		<rect x="689.8" y="322.3" class="st12" width="194.1" height="17.3"/>
		<rect x="440.3" y="498" class="st12" width="122.6" height="17.3"/>
		<rect x="576.3" y="498" class="st12" width="71" height="17.3"/>
		<rect x="689.8" y="350.4" class="st12" width="93.8" height="10.9"/>
		<rect x="689.8" y="370.7" class="st12" width="90" height="10.9"/>
		<rect x="689.8" y="391.1" class="st12" width="93.8" height="10.9"/>
		<rect x="689.8" y="411.4" class="st12" width="66.2" height="10.9"/>
		<rect x="689.8" y="431.7" class="st12" width="85.2" height="10.9"/>
		<rect x="689.8" y="473.2" class="st12" width="85.2" height="10.9"/>
		<rect x="689.8" y="495.7" class="st12" width="70" height="10.9"/>
		<rect x="689.8" y="452" class="st12" width="93.8" height="10.9"/>
		<g>
			<rect x="795.4" y="349.1" class="st12" width="88.8" height="156.7"/>
			<g>
				<rect x="818.1" y="470.5" class="st10" width="28.5" height="9"/>
				<path class="st13" d="M852.3,450.2c1-1.8,2.8-8.7,2.8-9.8l0.4-15.5v-0.8c0-0.1,0-0.2,0-0.3c0-0.1,0-0.3-0.1-0.4
					c0-0.1-0.1-0.3-0.1-0.4c0-0.1-0.1-0.3-0.1-0.4c0,0,0,0,0,0c0-0.1-0.1-0.1-0.1-0.2c0,0,0-0.1-0.1-0.1c-0.1-0.3-0.3-0.5-0.5-0.7
					l-0.9-0.9l-1.8-1.8l-6.9,7l-4.6,4.6v2.4l-0.1,0l-2.9,2l-0.9,1l-11.2,2v0.1l0,0l-0.1,0.9l-0.2,2.7l-0.4,4.8l-2,24.3h21.1
					L852.3,450.2z"/>
				<path class="st14" d="M843.6,470.5h-21.1l0.8-9.8c1,1.2,3.3,2.6,4.3,3c5.5,2.2,11.2,3.3,17.4,3.5L843.6,470.5z"/>
				<g>
					<g>
						<path class="st15" d="M806.5,411.8c-0.1-0.5-0.1-0.8-0.2-1.3c22.4-0.5,42.6-9.1,65-9.6c0.1,0.5,0.1,0.8,0.2,1.3
							C849,402.7,828.9,411.2,806.5,411.8z"/>
						<path class="st16" d="M810.4,438c-1.6-10.5-2.3-15.8-3.9-26.3c22.5-0.6,42.6-9.1,65-9.6c1.6,10.5,2.3,15.8,3.9,26.3
							c-5.7-0.7-8.5-0.5-14,0.3c-3.9,0.6-5.8,1-9.6,2c-2.5,0.7-3.8,1-6.3,1.8c0,0,0,0,0,0c-2.1,0.6-3.2,0.9-5.3,1.6
							c-6.5,1.9-9.8,2.9-16.5,3.8C818.4,438.6,815.8,438.7,810.4,438z"/>
						<path class="st15" d="M859.6,415.5c0.3,1.9-1,3.7-2.9,4.1c-1.9,0.4-3.6-0.8-3.9-2.8c-0.3-1.9,1-3.9,2.9-4.2
							C857.6,412.2,859.3,413.6,859.6,415.5z"/>
						<path class="st15" d="M828.3,423.5c0.3,1.9-1,3.9-2.9,4.2c-1.9,0.4-3.7-1-4-3c-0.3-1.9,1-3.7,2.9-4
							C826.3,420.4,828,421.6,828.3,423.5z"/>
						<path class="st15" d="M869.1,403.7c-20.7-0.5-38.9,10.6-59.6,10.2c-0.1,0.1-0.2,0.2-0.2,0.3c1.3,8.8,1.9,13.1,3.2,21.9
							c0.1,0.1,0.2,0.2,0.4,0.3c20.7,0.5,38.9-10.7,59.6-10.2c0.1-0.1,0.2-0.2,0.3-0.3c-1.3-8.8-2-13.2-3.3-21.9
							C869.3,403.9,869.2,403.8,869.1,403.7z M869.3,419.8c-1.9,0-3.1,1.7-2.8,3.7c-16.6,1.5-31.8,8.6-48.4,10.2
							c-0.3-2-2-3.5-3.9-3.6c-0.6-3.9-0.9-5.9-1.5-9.9c1.8,0,3.1-1.7,2.8-3.7c16.6-1.6,31.8-8.7,48.4-10.2c0.3,2,2,3.5,3.9,3.6
							C868.4,413.9,868.7,415.9,869.3,419.8z"/>
						<path class="st15" d="M841.5,427.6c4-1.2,6.7-5.4,6.1-9.4c-0.6-4.1-4.3-6.4-8.3-5.3c-4,1.2-6.7,5.3-6.1,9.4
							C833.8,426.4,837.5,428.7,841.5,427.6z M837.7,417.5c0.2-0.3,0.6-0.7,1.1-0.9c0.1-0.1,0.3-0.1,0.4-0.2c0-0.3-0.1-0.5-0.1-0.8
							c0.5-0.1,0.7-0.2,1.2-0.4c0.1,0.4,0.1,0.5,0.1,0.9c0.4-0.1,0.7,0,1,0c0.4,0.1,0.7,0.3,1,0.6c0.3,0.3,0.4,0.6,0.5,1.1
							c-0.6,0.2-1,0.3-1.6,0.6c-0.1-0.5-0.4-0.8-0.7-0.9c-0.2-0.1-0.5-0.1-0.7,0c-0.4,0.1-0.6,0.3-0.8,0.7c-0.1,0.2-0.1,0.4-0.1,0.6
							c0.1,0.3,0.3,0.6,0.8,0.8c0.4,0.1,0.9,0.4,1.6,0.6c0.6,0.2,1.1,0.5,1.3,0.7c0.3,0.3,0.5,0.7,0.6,1.1c0.1,0.7-0.2,1.4-0.8,2
							c-0.3,0.2-0.5,0.4-0.9,0.6c0.1,0.4,0.1,0.5,0.1,0.9c-0.5,0.1-0.7,0.2-1.2,0.3c-0.1-0.3-0.1-0.5-0.1-0.8
							c-0.3,0.1-0.7,0.1-0.9,0c-0.4-0.1-0.7-0.2-0.9-0.4c-0.2-0.2-0.4-0.5-0.5-0.9c0.6-0.3,0.9-0.4,1.6-0.7c0.1,0.3,0.3,0.5,0.5,0.7
							c0.2,0.1,0.4,0.1,0.7,0c0.3-0.1,0.5-0.3,0.7-0.5c0.1-0.2,0.1-0.4,0.1-0.7c-0.1-0.4-0.3-0.7-0.8-1c-0.2-0.1-0.5-0.2-0.8-0.3
							c-0.4-0.1-0.7-0.2-0.8-0.3c-0.5-0.2-0.8-0.4-1.1-0.6c-0.1-0.1-0.2-0.2-0.3-0.3c-0.2-0.2-0.3-0.5-0.4-0.7
							C837.3,418.6,837.4,418,837.7,417.5z"/>
					</g>
				</g>
				<g>
					<g>
						<path class="st15" d="M805.2,413.9c-0.2-0.5-0.2-0.7-0.4-1.2c22-4.4,40.4-16.2,62.4-20.5c0.2,0.5,0.2,0.8,0.4,1.3
							C845.6,397.8,827.3,409.6,805.2,413.9z"/>
						<path class="st10" d="M813.5,439.2c-3.3-10.1-5-15.2-8.3-25.3c22-4.4,40.4-16.2,62.4-20.5c3.3,10.1,5,15.2,8.3,25.3
							c-5.8,0.3-8.5,0.9-13.8,2.7c-3.7,1.2-5.5,2-9.1,3.6c-2.4,1.1-3.6,1.6-5.9,2.8c0,0,0,0,0,0c-2,1-3,1.5-5,2.4
							c-6.1,3-9.1,4.5-15.6,6.6C821.5,438.3,819,438.9,813.5,439.2z"/>
						<path class="st15" d="M858.3,408.6c0.6,1.9-0.4,3.8-2.2,4.5c-1.8,0.7-3.7-0.2-4.3-2.1c-0.6-1.9,0.3-4,2.1-4.6
							C855.7,405.7,857.6,406.8,858.3,408.6z"/>
						<path class="st15" d="M828.8,421.8c0.6,1.9-0.3,4-2.1,4.6c-1.8,0.7-3.8-0.4-4.4-2.2c-0.6-1.9,0.4-3.8,2.2-4.5
							C826.2,419,828.1,419.9,828.8,421.8z"/>
						<path class="st15" d="M865.6,395.4c-20.4,3-36.6,17.1-57,20.1c-0.1,0.1-0.1,0.2-0.2,0.3c2.8,8.4,4.1,12.6,6.9,21
							c0.1,0.1,0.3,0.2,0.4,0.3c20.4-3,36.5-17.1,57-20.1c0.1-0.1,0.1-0.2,0.2-0.3c-2.8-8.4-4.1-12.6-6.9-21.1
							C865.9,395.6,865.7,395.5,865.6,395.4z M868.5,411.2c-1.8,0.3-2.8,2.2-2.2,4.1c-16.1,4.3-29.9,13.9-46,18.3
							c-0.6-1.9-2.6-3.2-4.4-2.9c-1.2-3.8-1.9-5.7-3.1-9.5c1.8-0.3,2.8-2.2,2.2-4.1c16.1-4.4,29.9-14,46-18.3
							c0.6,1.9,2.6,3.2,4.4,2.9C866.6,405.6,867.2,407.5,868.5,411.2z"/>
						<path class="st15" d="M842.4,423.6c3.7-1.8,5.7-6.4,4.4-10.3c-1.3-3.9-5.4-5.6-9.1-3.8c-3.7,1.8-5.7,6.4-4.4,10.3
							C834.6,423.7,838.7,425.4,842.4,423.6z M837,414.3c0.2-0.4,0.5-0.8,0.9-1.1c0.1-0.1,0.2-0.2,0.4-0.3c-0.1-0.3-0.2-0.5-0.3-0.8
							c0.4-0.2,0.7-0.3,1.1-0.6c0.1,0.3,0.2,0.5,0.3,0.9c0.3-0.1,0.7-0.1,1-0.1c0.4,0,0.8,0.2,1.1,0.4c0.3,0.2,0.5,0.6,0.7,1
							c-0.6,0.3-0.9,0.5-1.4,0.8c-0.2-0.4-0.5-0.7-0.8-0.8c-0.2-0.1-0.5,0-0.7,0.1c-0.3,0.2-0.6,0.4-0.7,0.8c-0.1,0.2-0.1,0.4,0,0.6
							c0.1,0.3,0.4,0.6,0.9,0.7c0.4,0.1,1,0.2,1.7,0.3c0.6,0.1,1.1,0.3,1.4,0.5c0.4,0.2,0.6,0.6,0.7,1c0.2,0.7,0.1,1.4-0.4,2.1
							c-0.2,0.3-0.5,0.5-0.8,0.7c0.1,0.3,0.2,0.5,0.3,0.8c-0.5,0.2-0.7,0.3-1.1,0.5c-0.1-0.3-0.2-0.5-0.3-0.8
							c-0.3,0.1-0.6,0.2-0.9,0.2c-0.4,0-0.7-0.1-0.9-0.3c-0.3-0.2-0.5-0.4-0.6-0.8c0.6-0.4,0.8-0.6,1.4-0.9c0.2,0.3,0.4,0.5,0.6,0.6
							c0.2,0.1,0.4,0,0.7-0.1c0.3-0.1,0.5-0.4,0.6-0.6c0.1-0.2,0.1-0.4,0-0.7c-0.1-0.4-0.4-0.6-1-0.8c-0.2-0.1-0.5-0.1-0.9-0.2
							c-0.4-0.1-0.7-0.1-0.9-0.1c-0.5-0.1-0.9-0.3-1.2-0.5c-0.1-0.1-0.3-0.2-0.4-0.3c-0.2-0.2-0.4-0.4-0.5-0.7
							C836.7,415.4,836.7,414.8,837,414.3z"/>
					</g>
				</g>
				<path class="st13" d="M825.2,437.8l0-0.8l0.2-3.5l0-0.7l0.4-7.8l0.3-5.9c0.1-2.1,0.1-1.5,0.1-3.6c0-2.6,0.4-6.2,2.5-8.1
					c1.9-1.7,4.4-1.5,6.1,0.7c0,0,0.1,0.1,0.1,0.1c0.9,1.3,1.1,4.3,1.1,7c0,1.1-0.1,1.9-0.1,3c0,0.4,0,0.8,0,1.3l0.3,13.2l0,1.5
					l0,1.5L825.2,437.8z"/>
				<path class="st17" d="M829.6,414.5c-0.8-0.1-1-0.4-1-1.5c0-1.8,0.3-4.5,2.2-5.2c0.5-0.1,0.8-0.2,1-0.2c1.9-0.3,3,1.3,3.5,3.9
					c0.1,0.6,0.3,1.7,0.2,2.3c-0.1,0.2-0.2,0.4-0.4,0.6c-0.4-0.8-1-1.8-1.9-2.1C831.9,411.8,829.7,413,829.6,414.5z"/>
				<path class="st18" d="M836.4,435.8l0.8-0.9c0.9-0.3,1.8-0.5,2.9-0.8c2.1-0.6,3.2-0.9,5.3-1.6c0,0,0,0,0,0
					c2.5-0.7,3.8-1.1,6.3-1.8c1.4-0.4,2.5-0.7,3.6-0.9l-0.1,4.2C850.8,433.8,844.4,434.2,836.4,435.8z"/>
				<rect x="815.7" y="478.7" class="st19" width="33.4" height="17"/>
				<g class="st20">
					<path class="st21" d="M836.4,435.1l0-0.9l0-1.2v-0.3l0-2l0-0.5l-0.1-2.5l0-0.8l-0.1-3.6l-0.1-3.9c0-0.5,0-0.9,0-1.3
						c0-1,0.1-1.8,0.1-3c0-0.2,0-0.5,0-0.7c0-0.7,0-1.5-0.1-2.2c0-0.6-0.1-1.2-0.2-1.7c-0.1-0.4-0.1-0.7-0.2-1
						c-0.1-0.2-0.1-0.4-0.2-0.6c-0.1-0.4-0.3-0.7-0.4-0.9c0,0-0.1-0.1-0.1-0.1c-0.1-0.1-0.2-0.2-0.3-0.3v0c-0.1,0-0.1-0.1-0.1-0.1
						c0.1,0,0.1,0.1,0.2,0.1l0,0c0.6,0.2,1.1,0.5,1.6,0.9c0.2,0.2,0.4,0.4,0.6,0.7c0.1,0.1,0.2,0.2,0.3,0.3c0.5,0.6,0.8,1.4,1.1,2.1
						c0,0,0,0,0,0c0.1,0.4,0.3,0.8,0.4,1.2c0.1,0.3,0.1,0.5,0.1,0.8c0.1,0.6,0.2,1.1,0.2,1.6c0,0.1,0,0.2,0,0.3c0,0.2,0,0.3,0,0.5
						v0.1c0,0.3,0,0.7,0,1c0,0.2,0,0.4,0,0.5c0,0.3,0,0.6,0,0.9c0,0.3,0,0.6-0.1,0.9c0,0.3,0,0.7-0.1,1c0,0,0,0.1,0,0.1
						c0,0.8-0.1,1.5-0.2,2.3c0,0.3-0.1,0.7-0.1,1c0,0.1,0,0.2,0,0.2c-0.1,0.7-0.1,1.5-0.1,2.2c0,0.4,0,0.7-0.1,1.1
						c0,0.6,0,1.2,0,1.8v0.1c0,0.7,0,1.5,0,2.2c0,0.2,0,0.3,0,0.5c0,0.7,0.1,1.3,0.2,2c-0.5,0.1-1,0.3-1.5,0.4
						C836.9,435,836.7,435,836.4,435.1z"/>
				</g>
			</g>
			<g>
				<path class="st1" d="M806,383h-3.7v-24.2h5.2l3.4,17.4l3.3-17.4h5V383h-3.6v-15.2l-3.2,15.2h-2.9l-3.5-15.2V383z"/>
				<path class="st1" d="M828.3,358.5c1.6,0,3,0.6,4.1,1.7c1.1,1.1,1.7,2.5,1.7,4.1v13.2c0,1.6-0.6,3-1.7,4.1
					c-1.1,1.1-2.5,1.7-4.1,1.7c-1.6,0-3-0.6-4.1-1.7c-1.1-1.1-1.7-2.5-1.7-4.1v-13.2c0-1.6,0.6-3,1.7-4.1
					C825.4,359.1,826.7,358.5,828.3,358.5z M830.3,364.2c0-0.6-0.2-1.1-0.6-1.5c-0.4-0.4-0.9-0.6-1.5-0.6c-0.6,0-1.1,0.2-1.5,0.6
					c-0.4,0.4-0.6,0.9-0.6,1.5v13.2c0,0.6,0.2,1.1,0.6,1.5c0.4,0.4,0.9,0.6,1.5,0.6c0.6,0,1.1-0.2,1.5-0.6c0.4-0.4,0.6-0.9,0.6-1.5
					V364.2z"/>
				<path class="st1" d="M841.4,358.8l4.8,16.3v-16.3h3.7V383H846l-5-15.5V383h-3.7v-24.2H841.4z"/>
				<path class="st1" d="M853.1,383v-24.2h10.4v3.7h-6.7v6.6h4.9v3.7h-4.9v6.6h6.7v3.7H853.1z"/>
				<path class="st1" d="M870.9,372.9l-4.9-14.1h4l2.7,8.7l2.7-8.7h4l-4.9,14.1V383h-3.6V372.9z"/>
			</g>
		</g>
		<g>
			<g>
				<rect x="610.3" y="67.7" class="st10" width="376.1" height="269.5"/>
				<rect x="610.3" y="66.9" class="st19" width="376.1" height="28.7"/>
				<path class="st12" d="M933.9,81.7c0,4.7-3.8,8.5-8.5,8.5c-4.7,0-8.5-3.8-8.5-8.5c0-4.7,3.8-8.5,8.5-8.5
					C930.1,73.2,933.9,77,933.9,81.7z"/>
				<path class="st12" d="M956.2,81.7c0,4.7-3.8,8.5-8.5,8.5c-4.7,0-8.5-3.8-8.5-8.5c0-4.7,3.8-8.5,8.5-8.5
					C952.4,73.2,956.2,77,956.2,81.7z"/>
				<path class="st12" d="M978.6,81.7c0,4.7-3.8,8.5-8.5,8.5c-4.7,0-8.5-3.8-8.5-8.5c0-4.7,3.8-8.5,8.5-8.5
					C974.8,73.2,978.6,77,978.6,81.7z"/>
				<rect x="617.7" y="76.3" class="st12" width="116" height="10.7"/>
				<rect x="627" y="118" class="st22" width="147.4" height="119"/>
				<path class="st12" d="M740.1,182.3c0,24.1-19.5,43.6-43.6,43.6c-16.1,0-30.2-8.7-37.7-21.7l37.7-21.8H740.1z"/>
				<path class="st9" d="M748.4,177.3h-43.6l20.1-38.6C738.9,146,748.4,160.5,748.4,177.3z"/>
				<path class="st23" d="M719.6,138.7l-20.1,38.6v-43.6C706.7,133.8,713.6,135.5,719.6,138.7z"/>
				<path class="st24" d="M696.5,138.7v43.6l-15.7-40.6C685.7,139.7,691,138.7,696.5,138.7z"/>
				<path class="st25" d="M696.5,182.3l-37.7,21.8c-3.7-6.4-5.9-13.9-5.9-21.8c0-18.5,11.6-34.3,27.8-40.6L696.5,182.3z"/>
				<rect x="800.3" y="118" class="st26" width="169.7" height="15.8"/>
				<rect x="800.3" y="141.6" class="st26" width="169.7" height="7.9"/>
				<rect x="800.3" y="156.5" class="st26" width="169.7" height="7.9"/>
				<rect x="800.3" y="171.5" class="st26" width="169.7" height="7.9"/>
				<rect x="800.3" y="186.4" class="st26" width="169.7" height="7.9"/>
				<rect x="800.3" y="201.3" class="st26" width="169.7" height="7.9"/>
				<rect x="800.3" y="216.2" class="st26" width="169.7" height="7.9"/>
				<rect x="800.3" y="231.1" class="st26" width="169.7" height="7.9"/>
				<g>
					<rect x="627" y="272.6" class="st19" width="69.8" height="49.8"/>
					<rect x="629.3" y="274.4" class="st27" width="65.2" height="39.7"/>
					<polygon class="st10" points="656.1,286.3 656.1,302.2 669.3,294.3 					"/>
				</g>
				<g>
					<rect x="713.5" y="272.6" class="st19" width="69.8" height="49.8"/>
					<rect x="715.8" y="274.4" class="st27" width="65.3" height="39.7"/>
					<polygon class="st10" points="742.6,286.3 742.6,302.2 755.8,294.3 					"/>
				</g>
				<g>
					<rect x="800.1" y="272.6" class="st19" width="69.8" height="49.8"/>
					<rect x="802.3" y="274.4" class="st27" width="65.2" height="39.7"/>
					<polygon class="st10" points="829.2,286.3 829.2,302.2 842.3,294.3 					"/>
				</g>
				<g>
					<rect x="886.6" y="272.6" class="st19" width="69.8" height="49.8"/>
					<rect x="888.9" y="274.4" class="st27" width="65.3" height="39.7"/>
					<polygon class="st10" points="915.7,286.3 915.7,302.2 928.8,294.3 					"/>
				</g>
				<rect x="627" y="257.4" class="st28" width="31.8" height="7"/>
				<rect x="683.1" y="257.4" class="st28" width="11.5" height="7"/>
				<rect x="663.5" y="257.4" class="st28" width="15.2" height="7"/>
				<rect x="886.6" y="260.9" class="st28" width="42.3" height="7"/>
				<rect x="935.3" y="260.9" class="st28" width="12.2" height="7"/>
				<rect x="713.2" y="257.4" class="st28" width="32.2" height="7"/>
				<rect x="800.1" y="257.4" class="st28" width="24.3" height="7"/>
				<rect x="829.2" y="257.4" class="st28" width="33.3" height="7"/>
				<rect x="754.2" y="257.4" class="st28" width="16.1" height="7"/>
			</g>
			<path class="st11" d="M986.4,215.4v121.6H857L715,195c0.9,0.7,1.8,1.4,2.7,1.9c2.3,1.4,4.7,2.3,7.2,2.7c1.2,0.2,2.4,0.3,3.5,0.3
				h5.6c1.2,0,2.4-0.2,3.5-0.3c7.3-1.5,13.8-7,17.4-15.4c4.7-11.3,2.6-24.6-4.5-33.1l27.1,27.2c2.6,4.6,6.3,8.5,10.8,11.2
				c2.9,1.8,5.9,2.8,9,3.4c1.4,0.2,3,0.4,4.4,0.4h7c1.5,0,3-0.2,4.4-0.5c9-1.8,17.2-8.6,21.7-19.1c5.7-13.5,3.4-29.3-4.6-39.9
				l29.3,29.3c-1,1.8-2,3.6-2.8,5.6c-9.7,23-1.9,51.1,17.4,62.7c3.8,2.3,7.7,3.8,11.7,4.5c2,0.3,3.9,0.6,5.9,0.6h9.2
				c1.9-0.1,3.8-0.3,5.7-0.7c11.8-2.4,22.6-11.2,28.5-25.1c7.7-18.4,4.3-40-7.1-53.9L986.4,215.4z"/>
			<g>
				<g>
					<path class="st29" d="M935.1,210.8c-5.9,13.8-16.7,22.6-28.5,25.1c-1.8,0.4-3.8,0.6-5.7,0.7h-9.1c1.4,0,2.7-0.1,4.1-0.3
						c0.8-0.1,1.5-0.2,2.3-0.4c11.9-2.4,22.7-11.2,28.4-25.1c9.7-23.1,1.9-51.2-17.4-62.8c-4.2-2.6-8.7-4.2-13.2-4.7
						c-1.4-0.2-2.8-0.2-4.2-0.2h8.4c5.8,0,11.8,1.6,17.5,5c1.6,1,3,2,4.5,3.2c2.1,1.7,4.1,3.6,5.8,5.8
						C939.4,170.8,942.7,192.4,935.1,210.8z"/>
					<path class="st30" d="M904.1,199.4c0.1,3-0.8,5.5-2.6,7.6c-1.2,1.4-2.8,2.5-5,3.1c-0.6,0.2-1.2,0.3-1.9,0.3l0.1,4.4h-5.2l0-4.5
						c-1.5-0.3-2.9-0.8-4-1.6c-1.6-1-2.8-2.4-3.7-4.1c-0.9-1.7-1.4-3.8-1.6-6l6.9-0.5c0.3,2.5,1.1,4.3,2.3,5.4
						c0.8,0.8,1.9,1.2,3,1.2c1.6-0.1,2.9-0.8,3.8-2.1c0.5-0.7,0.7-1.6,0.7-2.8c0-1.8-0.9-3.5-2.7-5.3c-1.4-1.2-3.6-3-6.5-5.4
						c-2.4-2.1-4.1-3.9-5.1-5.5c-1.1-1.9-1.6-3.8-1.6-6c0-3.9,1.4-6.8,4.4-8.8c1.2-0.8,2.6-1.3,4.1-1.6v-4.4l5.2,0l0,4.4
						c1.5,0.2,2.8,0.6,4,1.3c1.4,0.8,2.6,1.9,3.5,3.3c0.9,1.4,1.4,3.1,1.6,4.9l-6.9,1.1c-0.2-1.7-0.8-3.1-1.7-4.1
						c-0.6-0.7-1.6-1.1-2.9-1c-1.3,0-2.3,0.5-3,1.6c-0.6,0.9-0.8,1.9-0.8,3.1c0,2,1,3.9,2.9,6c0.7,0.8,1.8,1.7,3.2,2.7
						c1.7,1.2,2.8,2.1,3.3,2.6c1.8,1.6,3.2,3.1,4.2,4.7c0.4,0.7,0.8,1.4,1.1,2C903.7,196.9,904.1,198.3,904.1,199.4z"/>
					<path class="st31" d="M909.2,148c-4.2-2.6-8.7-4.2-13.2-4.7c-1.4-0.2-2.8-0.2-4.2-0.2h-0.1c-12.6,0-24.7,7.3-32.1,20.2
						c-1,1.8-2,3.6-2.8,5.6c-9.7,23-1.9,51.1,17.4,62.7c3.8,2.3,7.7,3.8,11.7,4.5c2,0.3,3.9,0.6,5.9,0.6h0.1c1.4,0,2.7-0.1,4.1-0.3
						c0.8-0.1,1.5-0.2,2.3-0.4c11.9-2.4,22.7-11.2,28.4-25.1C936.3,187.7,928.5,159.6,909.2,148z M920.5,207.1
						c-5.3,12.6-15.6,20.2-26.6,21.1h-0.1c-5.6,0.5-11.3-0.8-16.6-4c-4-2.4-7.5-5.8-10.2-9.7c-8-11.4-10.1-27.9-4.2-42.1
						c0.6-1.4,1.3-2.7,2-4c0.6-1.3,1.4-2.5,2.2-3.6c6.2-8.8,15.2-13.7,24.6-13.7c0.8,0,1.5,0,2.3,0.1c0.1,0,0.1,0,0.1,0
						c4.1,0.4,8.2,1.7,12.1,4C922.1,164.9,928.5,188.1,920.5,207.1z"/>
					<path class="st30" d="M904.1,199.4c0.1,3-0.8,5.5-2.6,7.6c-1.2,1.4-2.8,2.5-5,3.1c-0.6,0.2-1.2,0.3-1.9,0.3l0.1,4.4h-5.2l0-4.5
						c-1.5-0.3-2.9-0.8-4-1.6c-1.6-1-2.8-2.4-3.7-4.1c-0.9-1.7-1.4-3.8-1.6-6l6.9-0.5c0.3,2.5,1.1,4.3,2.3,5.4
						c0.8,0.8,1.9,1.2,3,1.2c1.6-0.1,2.9-0.8,3.8-2.1c0.5-0.7,0.7-1.6,0.7-2.8c0-1.8-0.9-3.5-2.7-5.3c-1.4-1.2-3.6-3-6.5-5.4
						c-2.4-2.1-4.1-3.9-5.1-5.5c-1.1-1.9-1.6-3.8-1.6-6c0-3.9,1.4-6.8,4.4-8.8c1.2-0.8,2.6-1.3,4.1-1.6v-4.4l5.2,0l0,4.4
						c1.5,0.2,2.8,0.6,4,1.3c1.4,0.8,2.6,1.9,3.5,3.3c0.9,1.4,1.4,3.1,1.6,4.9l-6.9,1.1c-0.2-1.7-0.8-3.1-1.7-4.1
						c-0.6-0.7-1.6-1.1-2.9-1c-1.3,0-2.3,0.5-3,1.6c-0.6,0.9-0.8,1.9-0.8,3.1c0,2,1,3.9,2.9,6c0.7,0.8,1.8,1.7,3.2,2.7
						c1.7,1.2,2.8,2.1,3.3,2.6c1.8,1.6,3.2,3.1,4.2,4.7c0.4,0.7,0.8,1.4,1.1,2C903.7,196.9,904.1,198.3,904.1,199.4z"/>
					<path class="st30" d="M906.2,155.3c-3.9-2.4-8-3.7-12.2-4c-8.5,0.7-16.7,5.5-22.4,13.5c0,0,0,0,0,0c-1.6,2.3-3,4.8-4.2,7.6
						c-6,14.2-3.9,30.7,4.1,42.1c2.7,3.9,6.1,7.2,10.2,9.7c4,2.4,8.1,3.7,12.3,4c11-1,21.3-8.6,26.5-21.2
						C928.5,188.1,922.1,164.8,906.2,155.3z M901.6,207c-1.2,1.4-2.8,2.5-5,3.1c-0.6,0.2-1.2,0.3-1.9,0.3l0.1,4.4h-5.2l0-4.5
						c-1.5-0.3-2.9-0.8-4-1.6c-1.6-1-2.8-2.4-3.7-4.1c-0.9-1.7-1.4-3.8-1.6-6l6.9-0.5c0.3,2.5,1.1,4.3,2.3,5.4
						c0.8,0.8,1.9,1.2,3,1.2c1.6-0.1,2.9-0.8,3.8-2.1c0.5-0.7,0.7-1.6,0.7-2.8c0-1.8-0.9-3.5-2.7-5.3c-1.4-1.2-3.6-3-6.5-5.4
						c-2.4-2.1-4.1-3.9-5.1-5.5c-1.1-1.9-1.6-3.8-1.6-6c0-3.9,1.4-6.8,4.4-8.8c1.2-0.8,2.6-1.3,4.1-1.6v-4.4l5.2,0l0,4.4
						c1.5,0.2,2.8,0.6,4,1.3c1.4,0.8,2.6,1.9,3.5,3.3c0.9,1.4,1.4,3.1,1.6,4.9l-6.9,1.1c-0.2-1.7-0.8-3.1-1.7-4.1
						c-0.6-0.7-1.6-1.1-2.9-1c-1.3,0-2.3,0.5-3,1.6c-0.6,0.9-0.8,1.9-0.8,3.1c0,2,1,3.9,2.9,6c0.7,0.8,1.8,1.7,3.2,2.7
						c1.7,1.2,2.8,2.1,3.3,2.6c1.8,1.6,3.2,3.1,4.2,4.7c0.4,0.7,0.8,1.4,1.1,2c0.7,1.5,1.1,2.9,1.1,4.1
						C904.2,202.4,903.3,204.9,901.6,207z"/>
					<path class="st29" d="M881.7,224.2c4,2.4,8.1,3.7,12.3,4c-5.6,0.5-11.4-0.8-16.7-4c-4.1-2.4-7.5-5.7-10.2-9.7
						c-8-11.4-10.1-28-4.1-42.1c1.2-2.8,2.6-5.3,4.2-7.6c0,0,0,0,0,0c6.7-9.5,16.7-14.4,26.9-13.5c-8.5,0.7-16.7,5.5-22.4,13.5
						c0,0,0,0,0,0c-1.6,2.3-3,4.8-4.2,7.6c-6,14.2-3.9,30.7,4.1,42.1C874.2,218.5,877.6,221.8,881.7,224.2z"/>
					<path class="st30" d="M904.1,199.4c0.1,3-0.8,5.5-2.6,7.6c-1.2,1.4-2.8,2.5-5,3.1c-0.6,0.2-1.2,0.3-1.9,0.3l0.1,4.4h-5.2l0-4.5
						c-1.5-0.3-2.9-0.8-4-1.6c-1.6-1-2.8-2.4-3.7-4.1c-0.9-1.7-1.4-3.8-1.6-6l6.9-0.5c0.3,2.5,1.1,4.3,2.3,5.4
						c0.8,0.8,1.9,1.2,3,1.2c1.6-0.1,2.9-0.8,3.8-2.1c0.5-0.7,0.7-1.6,0.7-2.8c0-1.8-0.9-3.5-2.7-5.3c-1.4-1.2-3.6-3-6.5-5.4
						c-2.4-2.1-4.1-3.9-5.1-5.5c-1.1-1.9-1.6-3.8-1.6-6c0-3.9,1.4-6.8,4.4-8.8c1.2-0.8,2.6-1.3,4.1-1.6v-4.4l5.2,0l0,4.4
						c1.5,0.2,2.8,0.6,4,1.3c1.4,0.8,2.6,1.9,3.5,3.3c0.9,1.4,1.4,3.1,1.6,4.9l-6.9,1.1c-0.2-1.7-0.8-3.1-1.7-4.1
						c-0.6-0.7-1.6-1.1-2.9-1c-1.3,0-2.3,0.5-3,1.6c-0.6,0.9-0.8,1.9-0.8,3.1c0,2,1,3.9,2.9,6c0.7,0.8,1.8,1.7,3.2,2.7
						c1.7,1.2,2.8,2.1,3.3,2.6c1.8,1.6,3.2,3.1,4.2,4.7c0.4,0.7,0.8,1.4,1.1,2C903.7,196.9,904.1,198.3,904.1,199.4z"/>
					<path class="st32" d="M920.5,207.1c-5.3,12.6-15.6,20.2-26.5,21.2h-0.1c-4.1-0.4-8.2-1.7-12.2-4c-4.1-2.4-7.5-5.7-10.2-9.7
						c-8.1-11.4-10.1-28-4.1-42.1c1.2-2.8,2.6-5.3,4.2-7.6c0,0,0,0,0,0c5.7-8,13.9-12.8,22.4-13.5c0,0,0,0,0.1,0
						c4.1,0.3,8.2,1.7,12.1,4C922.1,164.8,928.5,188.1,920.5,207.1z"/>
					<path class="st33" d="M904.1,199.4c0.1,3-0.8,5.5-2.6,7.6c-1.2,1.4-2.8,2.5-5,3.1c-0.6,0.2-1.2,0.3-1.9,0.3l0.1,4.4h-5.2l0-4.5
						c-1.5-0.3-2.9-0.8-4-1.6c-1.6-1-2.8-2.4-3.7-4.1c-0.9-1.7-1.4-3.8-1.6-6l6.9-0.5c0.3,2.5,1.1,4.3,2.3,5.4
						c0.8,0.8,1.9,1.2,3,1.2c1.6-0.1,2.9-0.8,3.8-2.1c0.5-0.7,0.7-1.6,0.7-2.8c0-1.8-0.9-3.5-2.7-5.3c-1.4-1.2-3.6-3-6.5-5.4
						c-2.4-2.1-4.1-3.9-5.1-5.5c-1.1-1.9-1.6-3.8-1.6-6c0-3.9,1.4-6.8,4.4-8.8c1.2-0.8,2.6-1.3,4.1-1.6v-4.4l5.2,0l0,4.4
						c1.5,0.2,2.8,0.6,4,1.3c1.4,0.8,2.6,1.9,3.5,3.3c0.9,1.4,1.4,3.1,1.6,4.9l-6.9,1.1c-0.2-1.7-0.8-3.1-1.7-4.1
						c-0.6-0.7-1.6-1.1-2.9-1c-1.3,0-2.3,0.5-3,1.6c-0.6,0.9-0.8,1.9-0.8,3.1c0,2,1,3.9,2.9,6c0.7,0.8,1.8,1.7,3.2,2.7
						c1.7,1.2,2.8,2.1,3.3,2.6c1.8,1.6,3.2,3.1,4.2,4.7c0.4,0.7,0.8,1.4,1.1,2C903.7,196.9,904.1,198.3,904.1,199.4z"/>
				</g>
				<g>
					<path class="st29" d="M834.9,173.7c-4.5,10.6-12.7,17.3-21.7,19.1c-1.4,0.3-2.9,0.5-4.4,0.5h-6.9c1,0,2.1-0.1,3.1-0.2
						c0.6-0.1,1.1-0.2,1.8-0.3c9-1.8,17.2-8.6,21.6-19.1c7.4-17.5,1.5-39-13.2-47.8c-3.3-2-6.6-3.2-10.1-3.6
						c-1.1-0.2-2.2-0.2-3.2-0.2h6.4c4.5,0,9,1.2,13.4,3.8c0.9,0.6,1.8,1.1,2.6,1.8c2.3,1.6,4.4,3.7,6.1,6.1
						C838.3,144.5,840.6,160.2,834.9,173.7z"/>
					<path class="st30" d="M811.3,165.1c0,2.3-0.6,4.2-1.9,5.8c-0.9,1.1-2.2,1.9-3.8,2.3c-0.4,0.1-0.9,0.2-1.4,0.3l0,3.3h-4l0-3.4
						c-1.2-0.2-2.2-0.6-3.1-1.2c-1.2-0.8-2.2-1.8-2.8-3.2c-0.7-1.3-1.1-2.9-1.2-4.6l5.2-0.4c0.3,1.9,0.8,3.3,1.7,4.1
						c0.6,0.6,1.4,0.9,2.3,0.9c1.2,0,2.2-0.6,2.9-1.6c0.4-0.5,0.5-1.2,0.5-2.2c0-1.4-0.7-2.7-2.1-4c-1.1-0.9-2.7-2.3-4.9-4.1
						c-1.8-1.6-3.1-3-3.9-4.2c-0.8-1.4-1.2-2.9-1.2-4.6c0-2.9,1.1-5.2,3.3-6.7c0.9-0.6,1.9-1,3.1-1.2v-3.3l4,0l0,3.3
						c1.1,0.2,2.2,0.5,3.1,1c1.1,0.6,2,1.4,2.6,2.5c0.7,1.1,1.1,2.3,1.2,3.8l-5.3,0.9c-0.2-1.3-0.6-2.4-1.3-3.1
						c-0.5-0.6-1.2-0.8-2.2-0.8c-1,0-1.8,0.4-2.3,1.2c-0.4,0.7-0.6,1.4-0.6,2.4c0,1.5,0.7,3,2.2,4.5c0.6,0.6,1.4,1.3,2.5,2.1
						c1.3,0.9,2.2,1.6,2.5,2c1.4,1.2,2.4,2.4,3.2,3.5c0.3,0.6,0.6,1.1,0.8,1.5C811,163.2,811.3,164.2,811.3,165.1z"/>
					<path class="st31" d="M815.2,126c-3.3-2-6.6-3.2-10.1-3.6c-1.1-0.2-2.2-0.2-3.2-0.2h-0.1c-10.8,0-21.3,7.2-26.6,19.6
						c-5.1,12.2-3.9,26.3,2.4,36.7c2.6,4.6,6.3,8.5,10.8,11.2c2.9,1.8,5.9,2.8,9,3.4c1.4,0.2,3,0.4,4.4,0.4h0.1c1,0,2.1-0.1,3.1-0.2
						c0.6-0.1,1.1-0.2,1.8-0.3c9-1.8,17.2-8.6,21.6-19.1C835.8,156.2,829.9,134.8,815.2,126z M823.8,171c-4,9.6-11.8,15.4-20.2,16.1
						h-0.1c-4.3,0.4-8.6-0.6-12.6-3c-3.1-1.8-5.8-4.3-7.8-7.4c-6.2-8.6-7.8-21.3-3.2-32.1c0.9-2.1,2-4,3.2-5.8
						c4.7-6.6,11.7-10.4,18.8-10.4c0.5,0,1.1,0,1.7,0.1c0.1,0,0.1,0,0.1,0c0.9,0.1,1.8,0.2,2.7,0.5c1.5,0.2,2.9,0.7,4.3,1.4
						c0.7,0.4,1.5,0.8,2.3,1.2C825,138.8,829.8,156.5,823.8,171z"/>
					<path class="st30" d="M811.3,165.1c0,2.3-0.6,4.2-1.9,5.8c-0.9,1.1-2.2,1.9-3.8,2.3c-0.4,0.1-0.9,0.2-1.4,0.3l0,3.3h-4l0-3.4
						c-1.2-0.2-2.2-0.6-3.1-1.2c-1.2-0.8-2.2-1.8-2.8-3.2c-0.7-1.3-1.1-2.9-1.2-4.6l5.2-0.4c0.3,1.9,0.8,3.3,1.7,4.1
						c0.6,0.6,1.4,0.9,2.3,0.9c1.2,0,2.2-0.6,2.9-1.6c0.4-0.5,0.5-1.2,0.5-2.2c0-1.4-0.7-2.7-2.1-4c-1.1-0.9-2.7-2.3-4.9-4.1
						c-1.8-1.6-3.1-3-3.9-4.2c-0.8-1.4-1.2-2.9-1.2-4.6c0-2.9,1.1-5.2,3.3-6.7c0.9-0.6,1.9-1,3.1-1.2v-3.3l4,0l0,3.3
						c1.1,0.2,2.2,0.5,3.1,1c1.1,0.6,2,1.4,2.6,2.5c0.7,1.1,1.1,2.3,1.2,3.8l-5.3,0.9c-0.2-1.3-0.6-2.4-1.3-3.1
						c-0.5-0.6-1.2-0.8-2.2-0.8c-1,0-1.8,0.4-2.3,1.2c-0.4,0.7-0.6,1.4-0.6,2.4c0,1.5,0.7,3,2.2,4.5c0.6,0.6,1.4,1.3,2.5,2.1
						c1.3,0.9,2.2,1.6,2.5,2c1.4,1.2,2.4,2.4,3.2,3.5c0.3,0.6,0.6,1.1,0.8,1.5C811,163.2,811.3,164.2,811.3,165.1z"/>
					<path class="st30" d="M812.9,131.5c-3-1.8-6.1-2.8-9.3-3c-6.5,0.5-12.8,4.2-17.1,10.3c0,0,0,0,0,0c-1.2,1.7-2.3,3.6-3.2,5.8
						c-4.5,10.8-3,23.4,3.1,32.1c2.1,3,4.7,5.5,7.8,7.3c3,1.8,6.2,2.8,9.4,3.1c8.3-0.7,16.2-6.5,20.2-16.1
						C829.9,156.5,825,138.8,812.9,131.5z M809.3,170.9c-0.9,1.1-2.2,1.9-3.8,2.3c-0.4,0.1-0.9,0.2-1.4,0.3l0,3.3h-4l0-3.4
						c-1.2-0.2-2.2-0.6-3.1-1.2c-1.2-0.8-2.2-1.8-2.8-3.2c-0.7-1.3-1.1-2.9-1.2-4.6l5.2-0.4c0.3,1.9,0.8,3.3,1.7,4.1
						c0.6,0.6,1.4,0.9,2.3,0.9c1.2,0,2.2-0.6,2.9-1.6c0.4-0.5,0.5-1.2,0.5-2.2c0-1.4-0.7-2.7-2.1-4c-1.1-0.9-2.7-2.3-4.9-4.1
						c-1.8-1.6-3.1-3-3.9-4.2c-0.8-1.4-1.2-2.9-1.2-4.6c0-2.9,1.1-5.2,3.3-6.7c0.9-0.6,1.9-1,3.1-1.2v-3.3l4,0l0,3.3
						c1.1,0.2,2.2,0.5,3.1,1c1.1,0.6,2,1.4,2.6,2.5c0.7,1.1,1.1,2.3,1.2,3.8l-5.3,0.9c-0.2-1.3-0.6-2.4-1.3-3.1
						c-0.5-0.6-1.2-0.8-2.2-0.8c-1,0-1.8,0.4-2.3,1.2c-0.4,0.7-0.6,1.4-0.6,2.4c0,1.5,0.7,3,2.2,4.5c0.6,0.6,1.4,1.3,2.5,2.1
						c1.3,0.9,2.2,1.6,2.5,2c1.4,1.2,2.4,2.4,3.2,3.5c0.3,0.6,0.6,1.1,0.8,1.5c0.5,1.2,0.8,2.2,0.8,3.1
						C811.3,167.4,810.7,169.3,809.3,170.9z"/>
					<path class="st29" d="M794.2,184c3,1.8,6.2,2.8,9.4,3.1c-4.3,0.4-8.7-0.6-12.7-3.1c-3.1-1.8-5.7-4.4-7.8-7.3
						c-6.1-8.7-7.7-21.3-3.2-32.1c0.9-2.1,2-4,3.2-5.8c0,0,0,0,0,0c5.1-7.2,12.8-11,20.5-10.3c-6.5,0.5-12.8,4.2-17.1,10.3
						c0,0,0,0,0,0c-1.2,1.7-2.3,3.6-3.2,5.8c-4.5,10.8-3,23.4,3.1,32.1C788.5,179.6,791.1,182.2,794.2,184z"/>
					<path class="st30" d="M811.3,165.1c0,2.3-0.6,4.2-1.9,5.8c-0.9,1.1-2.2,1.9-3.8,2.3c-0.4,0.1-0.9,0.2-1.4,0.3l0,3.3h-4l0-3.4
						c-1.2-0.2-2.2-0.6-3.1-1.2c-1.2-0.8-2.2-1.8-2.8-3.2c-0.7-1.3-1.1-2.9-1.2-4.6l5.2-0.4c0.3,1.9,0.8,3.3,1.7,4.1
						c0.6,0.6,1.4,0.9,2.3,0.9c1.2,0,2.2-0.6,2.9-1.6c0.4-0.5,0.5-1.2,0.5-2.2c0-1.4-0.7-2.7-2.1-4c-1.1-0.9-2.7-2.3-4.9-4.1
						c-1.8-1.6-3.1-3-3.9-4.2c-0.8-1.4-1.2-2.9-1.2-4.6c0-2.9,1.1-5.2,3.3-6.7c0.9-0.6,1.9-1,3.1-1.2v-3.3l4,0l0,3.3
						c1.1,0.2,2.2,0.5,3.1,1c1.1,0.6,2,1.4,2.6,2.5c0.7,1.1,1.1,2.3,1.2,3.8l-5.3,0.9c-0.2-1.3-0.6-2.4-1.3-3.1
						c-0.5-0.6-1.2-0.8-2.2-0.8c-1,0-1.8,0.4-2.3,1.2c-0.4,0.7-0.6,1.4-0.6,2.4c0,1.5,0.7,3,2.2,4.5c0.6,0.6,1.4,1.3,2.5,2.1
						c1.3,0.9,2.2,1.6,2.5,2c1.4,1.2,2.4,2.4,3.2,3.5c0.3,0.6,0.6,1.1,0.8,1.5C811,163.2,811.3,164.2,811.3,165.1z"/>
					<path class="st32" d="M823.8,171c-4,9.6-11.9,15.4-20.2,16.1h-0.1c-3.1-0.3-6.3-1.3-9.3-3.1c-3.1-1.8-5.7-4.4-7.8-7.3
						c-6.1-8.7-7.7-21.3-3.1-32.1c0.9-2.1,2-4,3.2-5.8c0,0,0,0,0,0c4.3-6.1,10.6-9.8,17.1-10.3c0,0,0,0,0,0c3.1,0.3,6.3,1.3,9.2,3
						C825,138.8,829.9,156.5,823.8,171z"/>
					<path class="st33" d="M811.3,165.1c0,2.3-0.6,4.2-1.9,5.8c-0.9,1.1-2.2,1.9-3.8,2.3c-0.4,0.1-0.9,0.2-1.4,0.3l0,3.3h-4l0-3.4
						c-1.2-0.2-2.2-0.6-3.1-1.2c-1.2-0.8-2.2-1.8-2.8-3.2c-0.7-1.3-1.1-2.9-1.2-4.6l5.2-0.4c0.3,1.9,0.8,3.3,1.7,4.1
						c0.6,0.6,1.4,0.9,2.3,0.9c1.2,0,2.2-0.6,2.9-1.6c0.4-0.5,0.5-1.2,0.5-2.2c0-1.4-0.7-2.7-2.1-4c-1.1-0.9-2.7-2.3-4.9-4.1
						c-1.8-1.6-3.1-3-3.9-4.2c-0.8-1.4-1.2-2.9-1.2-4.6c0-2.9,1.1-5.2,3.3-6.7c0.9-0.6,1.9-1,3.1-1.2v-3.3l4,0l0,3.3
						c1.1,0.2,2.2,0.5,3.1,1c1.1,0.6,2,1.4,2.6,2.5c0.7,1.1,1.1,2.3,1.2,3.8l-5.3,0.9c-0.2-1.3-0.6-2.4-1.3-3.1
						c-0.5-0.6-1.2-0.8-2.2-0.8c-1,0-1.8,0.4-2.3,1.2c-0.4,0.7-0.6,1.4-0.6,2.4c0,1.5,0.7,3,2.2,4.5c0.6,0.6,1.4,1.3,2.5,2.1
						c1.3,0.9,2.2,1.6,2.5,2c1.4,1.2,2.4,2.4,3.2,3.5c0.3,0.6,0.6,1.1,0.8,1.5C811,163.2,811.3,164.2,811.3,165.1z"/>
				</g>
				<g>
					<path class="st29" d="M755,184.2c-3.6,8.5-10.2,13.9-17.4,15.4c-1.1,0.2-2.3,0.3-3.5,0.3h-5.5c0.8,0,1.7,0,2.5-0.2
						c0.5,0,1-0.1,1.4-0.2c7.2-1.5,13.9-7,17.4-15.4c5.9-14.1,1.2-31.3-10.6-38.4c-2.6-1.5-5.5-2.5-8.2-2.9
						c-0.9-0.1-1.7-0.2-2.5-0.2h5.1c3.6,0,7.3,1,10.7,3c1,0.6,1.9,1.3,2.8,2l0.2,0.2l3.2,3.2C757.7,159.7,759.7,172.9,755,184.2z"/>
					<path class="st30" d="M736.1,177.3c0,1.8-0.5,3.4-1.6,4.7c-0.7,0.9-1.7,1.5-3,1.9c-0.4,0.1-0.7,0.2-1.1,0.2l0,2.7h-3.2l0-2.8
						c-0.9-0.2-1.8-0.5-2.5-1c-1-0.6-1.7-1.4-2.3-2.5c-0.6-1.1-0.9-2.3-1-3.7l4.2-0.3c0.2,1.5,0.6,2.6,1.4,3.3
						c0.5,0.5,1.1,0.8,1.8,0.7c1,0,1.8-0.5,2.3-1.3c0.3-0.4,0.4-1,0.4-1.7c0-1.1-0.6-2.2-1.7-3.2c-0.9-0.7-2.2-1.8-4-3.3
						c-1.5-1.3-2.5-2.4-3.1-3.4c-0.7-1.1-1-2.3-1-3.7c0-2.4,0.9-4.2,2.7-5.4c0.7-0.5,1.6-0.8,2.5-1v-2.7l3.2,0l0,2.7
						c0.9,0.1,1.7,0.4,2.4,0.8c0.9,0.5,1.6,1.2,2.1,2c0.5,0.9,0.9,1.9,1,3l-4.2,0.7c-0.1-1.1-0.5-1.9-1.1-2.5
						c-0.4-0.4-1-0.6-1.8-0.6c-0.8,0-1.4,0.3-1.9,1c-0.3,0.5-0.5,1.1-0.5,1.9c0,1.2,0.6,2.4,1.7,3.6c0.4,0.5,1.1,1,2,1.7
						c1,0.8,1.7,1.3,2,1.6c1.1,1,1.9,1.9,2.6,2.8c0.3,0.5,0.5,0.9,0.7,1.2C735.8,175.8,736,176.6,736.1,177.3z"/>
					<path class="st31" d="M739.3,145.8c-2.6-1.5-5.5-2.5-8.2-2.9c-0.9-0.1-1.7-0.2-2.5-0.2h-0.1c-8.7,0.1-17.1,5.8-21.4,15.8
						c-5.4,13-1.8,28.5,7.8,36.4l0.1,0.1c0.9,0.7,1.8,1.4,2.7,1.9c2.3,1.4,4.7,2.3,7.2,2.7c1.2,0.2,2.4,0.3,3.5,0.3h0.1
						c0.8,0,1.7,0,2.5-0.2c0.5,0,1-0.1,1.4-0.2c7.2-1.5,13.9-7,17.4-15.4C755.7,170.1,751,152.9,739.3,145.8z M746.1,182
						c-3.3,7.8-9.6,12.4-16.2,13h-0.3c-3.4,0.2-6.7-0.6-9.9-2.4c-2.5-1.5-4.6-3.5-6.2-5.9c-5-7-6.2-17.1-2.6-25.9
						c0.7-1.7,1.6-3.2,2.6-4.6c3.8-5.3,9.3-8.3,15-8.3c0.5,0,1,0,1.4,0.1c0,0,0,0,0.1,0c2.5,0.2,5,1,7.3,2.4
						C747.1,156.1,751,170.4,746.1,182z"/>
					<path class="st30" d="M736.1,177.3c0,1.8-0.5,3.4-1.6,4.7c-0.7,0.9-1.7,1.5-3,1.9c-0.4,0.1-0.7,0.2-1.1,0.2l0,2.7h-3.2l0-2.8
						c-0.9-0.2-1.8-0.5-2.5-1c-1-0.6-1.7-1.4-2.3-2.5c-0.6-1.1-0.9-2.3-1-3.7l4.2-0.3c0.2,1.5,0.6,2.6,1.4,3.3
						c0.5,0.5,1.1,0.8,1.8,0.7c1,0,1.8-0.5,2.3-1.3c0.3-0.4,0.4-1,0.4-1.7c0-1.1-0.6-2.2-1.7-3.2c-0.9-0.7-2.2-1.8-4-3.3
						c-1.5-1.3-2.5-2.4-3.1-3.4c-0.7-1.1-1-2.3-1-3.7c0-2.4,0.9-4.2,2.7-5.4c0.7-0.5,1.6-0.8,2.5-1v-2.7l3.2,0l0,2.7
						c0.9,0.1,1.7,0.4,2.4,0.8c0.9,0.5,1.6,1.2,2.1,2c0.5,0.9,0.9,1.9,1,3l-4.2,0.7c-0.1-1.1-0.5-1.9-1.1-2.5
						c-0.4-0.4-1-0.6-1.8-0.6c-0.8,0-1.4,0.3-1.9,1c-0.3,0.5-0.5,1.1-0.5,1.9c0,1.2,0.6,2.4,1.7,3.6c0.4,0.5,1.1,1,2,1.7
						c1,0.8,1.7,1.3,2,1.6c1.1,1,1.9,1.9,2.6,2.8c0.3,0.5,0.5,0.9,0.7,1.2C735.8,175.8,736,176.6,736.1,177.3z"/>
					<path class="st30" d="M737.3,150.3c-2.4-1.5-4.9-2.2-7.4-2.4c-5.2,0.4-10.2,3.4-13.7,8.3c0,0,0,0,0,0c-1,1.4-1.9,2.9-2.6,4.6
						c-3.7,8.7-2.4,18.8,2.5,25.8c1.7,2.4,3.8,4.4,6.2,5.9c2.4,1.4,5,2.2,7.5,2.5c6.7-0.6,13-5.3,16.3-13
						C751,170.4,747.1,156.2,737.3,150.3z M734.5,182c-0.7,0.9-1.7,1.5-3,1.9c-0.4,0.1-0.7,0.2-1.1,0.2l0,2.7h-3.2l0-2.8
						c-0.9-0.2-1.8-0.5-2.5-1c-1-0.6-1.7-1.4-2.3-2.5c-0.6-1.1-0.9-2.3-1-3.7l4.2-0.3c0.2,1.5,0.6,2.6,1.4,3.3
						c0.5,0.5,1.1,0.8,1.8,0.7c1,0,1.8-0.5,2.3-1.3c0.3-0.4,0.4-1,0.4-1.7c0-1.1-0.6-2.2-1.7-3.2c-0.9-0.7-2.2-1.8-4-3.3
						c-1.5-1.3-2.5-2.4-3.1-3.4c-0.7-1.1-1-2.3-1-3.7c0-2.4,0.9-4.2,2.7-5.4c0.7-0.5,1.6-0.8,2.5-1v-2.7l3.2,0l0,2.7
						c0.9,0.1,1.7,0.4,2.4,0.8c0.9,0.5,1.6,1.2,2.1,2c0.5,0.9,0.9,1.9,1,3l-4.2,0.7c-0.1-1.1-0.5-1.9-1.1-2.5
						c-0.4-0.4-1-0.6-1.8-0.6c-0.8,0-1.4,0.3-1.9,1c-0.3,0.5-0.5,1.1-0.5,1.9c0,1.2,0.6,2.4,1.7,3.6c0.4,0.5,1.1,1,2,1.7
						c1,0.8,1.7,1.3,2,1.6c1.1,1,1.9,1.9,2.6,2.8c0.3,0.5,0.5,0.9,0.7,1.2c0.4,0.9,0.7,1.8,0.7,2.5
						C736.1,179.1,735.6,180.7,734.5,182z"/>
					<path class="st29" d="M722.3,192.5c2.4,1.4,5,2.2,7.5,2.5c-3.4,0.3-6.9-0.5-10.2-2.5c-2.5-1.5-4.6-3.5-6.2-5.9
						c-4.9-7-6.2-17.1-2.5-25.8c0.7-1.7,1.6-3.2,2.6-4.6c0,0,0,0,0,0c4.1-5.8,10.3-8.8,16.5-8.3c-5.2,0.4-10.2,3.4-13.7,8.3
						c0,0,0,0,0,0c-1,1.4-1.9,2.9-2.6,4.6c-3.7,8.7-2.4,18.8,2.5,25.8C717.8,189,719.9,191,722.3,192.5z"/>
					<path class="st30" d="M736.1,177.3c0,1.8-0.5,3.4-1.6,4.7c-0.7,0.9-1.7,1.5-3,1.9c-0.4,0.1-0.7,0.2-1.1,0.2l0,2.7h-3.2l0-2.8
						c-0.9-0.2-1.8-0.5-2.5-1c-1-0.6-1.7-1.4-2.3-2.5c-0.6-1.1-0.9-2.3-1-3.7l4.2-0.3c0.2,1.5,0.6,2.6,1.4,3.3
						c0.5,0.5,1.1,0.8,1.8,0.7c1,0,1.8-0.5,2.3-1.3c0.3-0.4,0.4-1,0.4-1.7c0-1.1-0.6-2.2-1.7-3.2c-0.9-0.7-2.2-1.8-4-3.3
						c-1.5-1.3-2.5-2.4-3.1-3.4c-0.7-1.1-1-2.3-1-3.7c0-2.4,0.9-4.2,2.7-5.4c0.7-0.5,1.6-0.8,2.5-1v-2.7l3.2,0l0,2.7
						c0.9,0.1,1.7,0.4,2.4,0.8c0.9,0.5,1.6,1.2,2.1,2c0.5,0.9,0.9,1.9,1,3l-4.2,0.7c-0.1-1.1-0.5-1.9-1.1-2.5
						c-0.4-0.4-1-0.6-1.8-0.6c-0.8,0-1.4,0.3-1.9,1c-0.3,0.5-0.5,1.1-0.5,1.9c0,1.2,0.6,2.4,1.7,3.6c0.4,0.5,1.1,1,2,1.7
						c1,0.8,1.7,1.3,2,1.6c1.1,1,1.9,1.9,2.6,2.8c0.3,0.5,0.5,0.9,0.7,1.2C735.8,175.8,736,176.6,736.1,177.3z"/>
					<path class="st32" d="M746.1,182c-3.2,7.7-9.6,12.4-16.3,13h0c-2.5-0.2-5.1-1-7.5-2.5c-2.5-1.5-4.6-3.5-6.2-5.9
						c-4.9-7-6.2-17.1-2.5-25.8c0.7-1.7,1.6-3.2,2.6-4.6c0,0,0,0,0,0c3.5-4.9,8.5-7.9,13.7-8.3c0,0,0,0,0,0c2.5,0.2,5,1,7.4,2.4
						C747.1,156.2,751,170.4,746.1,182z"/>
					<path class="st33" d="M736.1,177.3c0,1.8-0.5,3.4-1.6,4.7c-0.7,0.9-1.7,1.5-3,1.9c-0.4,0.1-0.7,0.2-1.1,0.2l0,2.7h-3.2l0-2.8
						c-0.9-0.2-1.8-0.5-2.5-1c-1-0.6-1.7-1.4-2.3-2.5c-0.6-1.1-0.9-2.3-1-3.7l4.2-0.3c0.2,1.5,0.6,2.6,1.4,3.3
						c0.5,0.5,1.1,0.8,1.8,0.7c1,0,1.8-0.5,2.3-1.3c0.3-0.4,0.4-1,0.4-1.7c0-1.1-0.6-2.2-1.7-3.2c-0.9-0.7-2.2-1.8-4-3.3
						c-1.5-1.3-2.5-2.4-3.1-3.4c-0.7-1.1-1-2.3-1-3.7c0-2.4,0.9-4.2,2.7-5.4c0.7-0.5,1.6-0.8,2.5-1v-2.7l3.2,0l0,2.7
						c0.9,0.1,1.7,0.4,2.4,0.8c0.9,0.5,1.6,1.2,2.1,2c0.5,0.9,0.9,1.9,1,3l-4.2,0.7c-0.1-1.1-0.5-1.9-1.1-2.5
						c-0.4-0.4-1-0.6-1.8-0.6c-0.8,0-1.4,0.3-1.9,1c-0.3,0.5-0.5,1.1-0.5,1.9c0,1.2,0.6,2.4,1.7,3.6c0.4,0.5,1.1,1,2,1.7
						c1,0.8,1.7,1.3,2,1.6c1.1,1,1.9,1.9,2.6,2.8c0.3,0.5,0.5,0.9,0.7,1.2C735.8,175.8,736,176.6,736.1,177.3z"/>
				</g>
			</g>
		</g>
		<polygon class="st10" points="698.6,337.1 636.4,395.8 636.4,335.6 		"/>
		<polygon class="st34" points="915.9,337.1 915.9,355.1 710,355.1 647.7,413.8 636.4,395.8 698.6,337.1 		"/>
		<polygon class="st34" points="636.4,337.1 636.4,355.1 621.7,355.1 610.3,337.1 		"/>
		<polygon class="st10" points="775,391.6 708.1,391.6 708.1,391 		"/>
		<g>
			<g class="st35">
				<g class="st36">
					<polygon class="st37" points="639.5,499.3 641.8,503.3 631,509.2 628.8,505.2 624.7,507.4 620.4,499.4 616.4,501.7 612,493.7 
						610.8,494.3 613.1,498.3 609.1,500.4 611.3,504.4 607.3,506.7 609.5,510.6 598.6,516.6 560,446.2 566.9,442.4 569,446.4 
						573,444.2 575.2,448.1 579.1,446 581.3,450 585.3,447.7 587.5,451.7 591.5,449.5 593.7,453.5 597.6,451.3 599.8,455.3 
						603.8,453.1 606,457 610,454.9 612.1,458.8 616.2,456.7 618.3,460.7 622.4,458.4 624.5,462.4 628.5,460.2 630.7,464.2 
						634.7,462 640.6,472.8 624.7,481.6 625.2,482.7 629.3,480.4 633.7,488.4 637.7,486.2 643.6,497 					"/>
				</g>
			</g>
			<g>
				<polygon class="st12" points="631.1,461.9 631.6,462.8 635,461 638.7,467.7 642.1,465.8 647.1,474.9 643.7,476.8 645.5,480.2 
					636.4,485.2 634.6,481.8 631.2,483.7 627.5,477 624.1,478.8 620.4,472.1 619.5,472.6 621.3,476 618,477.8 619.8,481.2 
					616.5,483 618.3,486.4 609.2,491.4 576.5,432 582.3,428.9 584.1,432.2 587.5,430.3 589.4,433.7 592.7,431.9 594.5,435.2 
					597.9,433.4 599.7,436.7 603.1,434.8 605,438.2 608.3,436.4 610.2,439.7 613.5,437.9 615.4,441.2 618.7,439.4 620.6,442.7 
					623.9,440.9 625.8,444.2 629.2,442.4 631,445.7 634.3,443.8 636.2,447.2 639.5,445.4 644.6,454.5 				"/>
				<g class="st36">
					<rect x="632.7" y="463.3" transform="matrix(0.8752 -0.4838 0.4838 0.8752 -146.7723 365.2863)" width="3.9" height="7.6"/>
					<rect x="622.6" y="468.9" transform="matrix(0.8765 -0.4814 0.4814 0.8765 -150.4206 358.9968)" width="3.9" height="7.6"/>
					<rect x="639.7" y="468.1" transform="matrix(0.8755 -0.4833 0.4833 0.8755 -148.1786 368.8916)" width="3.8" height="7.7"/>
					<polygon points="635.1,479.9 631.7,481.8 628,475.1 631.4,473.2 					"/>
					<rect x="635.5" y="477.9" transform="matrix(0.8758 -0.4827 0.4827 0.8758 -152.1786 368.2414)" width="7.6" height="3.9"/>
					<polygon points="615.8,468.7 619.1,466.9 621,470.3 617.6,472.1 					"/>
					<polygon points="624,459.9 627.4,458 631.1,464.7 627.7,466.6 					"/>
					<polygon points="639,447.2 642.7,454 636,457.6 634.1,454.3 637.5,452.4 635.6,449.1 					"/>
					<polygon points="627.4,458 630.7,456.1 632.6,459.5 629.3,461.3 					"/>
					<rect x="631.5" y="455" transform="matrix(0.8761 -0.482 0.482 0.8761 -141.8012 361.8973)" width="3.8" height="3.8"/>
					<polygon points="630.4,447.6 633.8,445.7 635.6,449.1 632.3,450.9 					"/>
					<polygon points="625.2,446.1 628.6,444.2 630.4,447.6 627.1,449.4 					"/>
					<rect x="620.7" y="443.4" transform="matrix(0.8767 -0.481 0.481 0.8767 -137.4456 354.3726)" width="3.8" height="3.8"/>
					<polygon points="614.8,443.1 618.2,441.2 620,444.6 616.7,446.4 					"/>
					<polygon points="609.6,441.6 613,439.7 614.8,443.1 611.5,444.9 					"/>
					<polygon points="604.4,440.1 607.8,438.2 609.6,441.6 606.3,443.4 					"/>
					<polygon points="599.2,438.6 602.6,436.7 604.4,440.1 601.1,441.9 					"/>
					<polygon points="594,437.1 597.4,435.2 599.2,438.6 595.9,440.4 					"/>
					<polygon points="588.8,435.6 592.2,433.7 594,437.1 590.6,438.9 					"/>
					<polygon points="614.3,473.9 617.6,472.1 619.5,475.4 616.1,477.3 					"/>
					<rect x="613.4" y="478" transform="matrix(0.8759 -0.4825 0.4825 0.8759 -155.1697 356.4227)" width="3.8" height="3.8"/>
					<polygon points="585.4,437.4 611.2,484.3 614.6,482.5 616.4,485.8 609.7,489.5 578.4,432.6 581.8,430.7 583.6,434.1 587,432.2 
						588.8,435.6 					"/>
				</g>
			</g>
		</g>
	</g>
</g>
</svg>
