<?xml version="1.0" encoding="utf-8"?>
<!-- Generator: Adobe Illustrator 22.0.0, SVG Export Plug-In . SVG Version: 6.00 Build 0)  -->
<svg version="1.1" id="Layer_1" xmlns="http://www.w3.org/2000/svg" xmlns:xlink="http://www.w3.org/1999/xlink" x="0px" y="0px"
	 viewBox="0 0 1366 768" style="enable-background:new 0 0 1366 768;" xml:space="preserve">
<style type="text/css">
	.st0{fill:#EAE6FF;}
	.st1{fill:#D6D6D6;}
	.st2{fill:#534B64;}
	.st3{fill:#48B9C5;}
	.st4{fill:#F0F0F0;}
	.st5{opacity:0.25;fill:#AAA1AC;}
	.st6{fill:#CCCCCC;}
	.st7{fill:#FC7649;}
	.st8{fill:#01968B;}
	.st9{fill:#F7B701;}
	.st10{fill:#4FA0CA;}
	.st11{fill:#82769D;}
	.st12{fill:#FFFFFF;}
	.st13{fill:#73C9CC;}
	.st14{fill:#F5F5F5;}
	.st15{fill:#F2F2F2;}
	.st16{fill:#686868;}
	.st17{fill:#808080;}
	.st18{fill:#E5E5E5;}
	.st19{opacity:0.42;fill:#91B2AD;}
	.st20{opacity:0.42;}
	.st21{fill:#7A8494;}
	.st22{opacity:0.42;fill:#7A8494;}
	.st23{opacity:0.88;fill:#E5E5E5;}
	.st24{opacity:0.52;fill:#7A8494;}
</style>
<g>
	<g>
		<path class="st0" d="M297.1,386.9c0,190.3,154.2,344.5,344.5,344.5c190.3,0,344.5-154.2,344.5-344.5
			c0-190.3-154.2-344.5-344.5-344.5C451.4,42.4,297.1,196.6,297.1,386.9z"/>
		<rect x="559" y="495.1" class="st1" width="181.3" height="64.1"/>
		<path class="st2" d="M935.5,119.2v304.1H363.8V119.2c0-5.8,4.7-10.6,10.6-10.6h550.5C930.8,108.6,935.5,113.4,935.5,119.2z"/>
		<rect x="391.2" y="135.9" class="st3" width="516.8" height="259.3"/>
		<rect x="517" y="555.7" class="st4" width="265.1" height="26.3"/>
		<rect x="559" y="499" class="st5" width="181.3" height="20.5"/>
		<path class="st4" d="M935.5,423.3v65.1c0,5.8-4.7,10.6-10.6,10.6H374.4c-5.8,0-10.6-4.7-10.6-10.6v-65.1H935.5z"/>
		<path class="st6" d="M667.5,461.1c0,9.9-8,17.8-17.9,17.8c-9.9,0-17.9-8-17.9-17.8c0-9.9,8-17.9,17.9-17.9
			C659.5,443.3,667.5,451.3,667.5,461.1z"/>
		<g>
			<path class="st7" d="M450.1,178c0,7.7-6.2,13.9-13.9,13.9c-7.7,0-13.9-6.2-13.9-13.9c0-7.7,6.2-13.9,13.9-13.9
				C443.9,164.1,450.1,170.3,450.1,178z"/>
			<path class="st8" d="M488.7,178c0,7.7-6.2,13.9-13.9,13.9c-7.7,0-13.9-6.2-13.9-13.9c0-7.7,6.2-13.9,13.9-13.9
				C482.5,164.1,488.7,170.3,488.7,178z"/>
			<path class="st9" d="M527.3,178c0,7.7-6.2,13.9-13.9,13.9c-7.7,0-13.9-6.2-13.9-13.9c0-7.7,6.2-13.9,13.9-13.9
				C521.1,164.1,527.3,170.3,527.3,178z"/>
			<path class="st10" d="M565.9,178c0,7.7-6.2,13.9-13.9,13.9c-7.7,0-13.9-6.2-13.9-13.9c0-7.7,6.2-13.9,13.9-13.9
				C559.6,164.1,565.9,170.3,565.9,178z"/>
			<path class="st11" d="M604.4,178c0,7.7-6.2,13.9-13.9,13.9c-7.7,0-13.9-6.2-13.9-13.9c0-7.7,6.2-13.9,13.9-13.9
				C598.2,164.1,604.4,170.3,604.4,178z"/>
			<g>
				<path class="st12" d="M451.6,248.1c0,3.7-1.3,6.8-3.9,9.4c-2.6,2.6-5.7,3.9-9.3,3.9h-13.2v-55.7h13.2c3.7,0,6.8,1.3,9.3,3.9
					c2.6,2.6,3.8,5.7,3.8,9.4V248.1z M433.6,253.2h5.1c1.3,0,2.5-0.5,3.4-1.4c0.9-1,1.4-2.1,1.4-3.4v-29.1c0-1.3-0.5-2.5-1.4-3.4
					c-0.9-0.9-2.1-1.4-3.4-1.4h-5.1V253.2z"/>
				<path class="st12" d="M459,261.5v-55.7h23.9v8.4h-15.5v15.2h11.3v8.4h-11.3V253h15.5v8.4H459z"/>
				<path class="st12" d="M516.4,247.6c0.1,3.9-0.9,7.2-3,9.9c-1.4,1.9-3.3,3.2-5.8,4c-1.3,0.4-2.9,0.6-4.7,0.6
					c-3.3,0-6-0.8-8.2-2.4c-1.8-1.3-3.2-3.1-4.3-5.4c-1.1-2.3-1.7-4.9-1.9-7.9l8-0.6c0.4,3.2,1.2,5.6,2.6,7.1c1,1.1,2.2,1.6,3.5,1.6
					c1.8-0.1,3.3-1,4.4-2.7c0.6-0.9,0.8-2.1,0.8-3.7c0-2.3-1.1-4.6-3.2-6.9c-1.6-1.6-4.1-3.9-7.5-7.1c-2.8-2.7-4.7-5.1-5.9-7.2
					c-1.2-2.4-1.9-5-1.9-7.8c0-5.1,1.7-8.9,5.1-11.5c2.1-1.6,4.7-2.4,7.8-2.4c3,0,5.6,0.7,7.7,2c1.7,1,3,2.5,4,4.4
					c1,1.9,1.6,4,1.8,6.4l-8,1.5c-0.2-2.3-0.9-4.1-2-5.3c-0.8-0.9-1.9-1.4-3.3-1.4c-1.5,0-2.7,0.7-3.5,2c-0.6,1.1-1,2.5-1,4.1
					c0,2.5,1.1,5.1,3.3,7.8c0.8,1,2.1,2.2,3.7,3.6c2,1.6,3.3,2.8,3.9,3.4c2.1,2.1,3.7,4.1,4.8,6.1c0.5,0.9,1,1.8,1.3,2.6
					C516,244.3,516.4,246,516.4,247.6z"/>
				<path class="st12" d="M531.8,261.5h-8.4v-55.7h8.4V261.5z"/>
				<path class="st12" d="M552.6,262.2c-3.7,0-6.8-1.3-9.4-3.9c-2.6-2.6-3.9-5.7-3.9-9.4v-30.4c0-3.7,1.3-6.9,3.9-9.4
					c2.6-2.6,5.7-3.9,9.4-3.9c3.7,0,6.8,1.3,9.4,3.9c2.6,2.6,3.9,5.7,3.9,9.4v6.4h-8.7v-6.5c0-1.3-0.5-2.5-1.4-3.4
					c-0.9-0.9-2.1-1.4-3.4-1.4s-2.5,0.5-3.4,1.4c-0.9,0.9-1.4,2.1-1.4,3.4v30.5c0,1.3,0.5,2.5,1.4,3.4c0.9,0.9,2.1,1.4,3.4,1.4
					s2.5-0.5,3.4-1.4c0.9-0.9,1.4-2.1,1.4-3.4v-10.9h-4.7v-8.4h13.4v19.5c0,3.7-1.3,6.8-3.9,9.4
					C559.3,260.9,556.2,262.2,552.6,262.2z"/>
				<path class="st12" d="M582.5,205.8l11.1,37.4v-37.4h8.4v55.7h-9l-11.5-35.7v35.7h-8.4v-55.7H582.5z"/>
			</g>
		</g>
		<g>
			<rect x="569.4" y="603.3" class="st2" width="221.8" height="133.7"/>
			<g>
				<path class="st7" d="M597.4,621.1c0,4.2-3.4,7.6-7.6,7.6c-4.2,0-7.6-3.4-7.6-7.6c0-4.2,3.4-7.6,7.6-7.6
					C594,613.5,597.4,616.9,597.4,621.1z"/>
				<path class="st8" d="M618.5,621.1c0,4.2-3.4,7.6-7.6,7.6c-4.2,0-7.6-3.4-7.6-7.6c0-4.2,3.4-7.6,7.6-7.6
					C615.1,613.5,618.5,616.9,618.5,621.1z"/>
				<path class="st9" d="M639.6,621.1c0,4.2-3.4,7.6-7.6,7.6c-4.2,0-7.6-3.4-7.6-7.6c0-4.2,3.4-7.6,7.6-7.6
					C636.2,613.5,639.6,616.9,639.6,621.1z"/>
				<path class="st10" d="M660.7,621.1c0,4.2-3.4,7.6-7.6,7.6c-4.2,0-7.6-3.4-7.6-7.6c0-4.2,3.4-7.6,7.6-7.6
					C657.3,613.5,660.7,616.9,660.7,621.1z"/>
				<path class="st11" d="M681.8,621.1c0,4.2-3.4,7.6-7.6,7.6c-4.2,0-7.6-3.4-7.6-7.6c0-4.2,3.4-7.6,7.6-7.6
					C678.4,613.5,681.8,616.9,681.8,621.1z"/>
				<g>
					<path class="st13" d="M598.2,659.5c0,2-0.7,3.7-2.1,5.2c-1.4,1.4-3.1,2.1-5.1,2.1h-7.2v-30.5h7.2c2,0,3.7,0.7,5.1,2.1
						c1.4,1.4,2.1,3.1,2.1,5.1V659.5z M588.3,662.2h2.8c0.7,0,1.3-0.3,1.8-0.8c0.5-0.5,0.8-1.1,0.8-1.9v-15.9c0-0.7-0.3-1.4-0.8-1.9
						c-0.5-0.5-1.1-0.8-1.8-0.8h-2.8V662.2z"/>
					<path class="st13" d="M602.2,666.8v-30.5h13.1v4.6h-8.5v8.3h6.2v4.6h-6.2v8.3h8.5v4.6H602.2z"/>
					<path class="st13" d="M633.6,659.2c0,2.1-0.5,3.9-1.6,5.4c-0.7,1-1.8,1.7-3.2,2.2c-0.7,0.2-1.6,0.3-2.6,0.3
						c-1.8,0-3.3-0.4-4.5-1.3c-1-0.7-1.8-1.7-2.3-3c-0.6-1.3-0.9-2.7-1-4.3l4.4-0.3c0.2,1.8,0.7,3.1,1.4,3.9
						c0.6,0.6,1.2,0.9,1.9,0.9c1,0,1.8-0.5,2.4-1.5c0.3-0.5,0.5-1.1,0.5-2c0-1.3-0.6-2.5-1.7-3.8c-0.9-0.9-2.3-2.2-4.1-3.9
						c-1.5-1.5-2.6-2.8-3.2-4c-0.7-1.3-1-2.7-1-4.3c0-2.8,0.9-4.9,2.8-6.3c1.2-0.9,2.6-1.3,4.3-1.3c1.6,0,3,0.4,4.2,1.1
						c0.9,0.6,1.6,1.4,2.2,2.4c0.6,1,0.9,2.2,1,3.5l-4.4,0.8c-0.1-1.3-0.5-2.2-1.1-2.9c-0.4-0.5-1-0.8-1.8-0.8
						c-0.8,0-1.5,0.4-1.9,1.1c-0.4,0.6-0.5,1.3-0.5,2.2c0,1.4,0.6,2.8,1.8,4.2c0.5,0.6,1.1,1.2,2,1.9c1.1,0.9,1.8,1.5,2.1,1.9
						c1.1,1.1,2,2.3,2.6,3.4c0.3,0.5,0.5,1,0.7,1.4C633.4,657.4,633.6,658.3,633.6,659.2z"/>
					<path class="st13" d="M642.1,666.8h-4.6v-30.5h4.6V666.8z"/>
					<path class="st13" d="M653.4,667.2c-2,0-3.7-0.7-5.2-2.1c-1.4-1.4-2.1-3.1-2.1-5.1v-16.6c0-2,0.7-3.7,2.1-5.2
						c1.4-1.4,3.1-2.1,5.1-2.1c2,0,3.7,0.7,5.1,2.1c1.4,1.4,2.1,3.1,2.1,5.1v3.5h-4.8v-3.6c0-0.7-0.3-1.4-0.8-1.9
						c-0.5-0.5-1.1-0.8-1.9-0.8c-0.7,0-1.4,0.3-1.9,0.8c-0.5,0.5-0.8,1.1-0.8,1.9v16.7c0,0.7,0.3,1.3,0.8,1.9
						c0.5,0.5,1.1,0.8,1.9,0.8c0.7,0,1.3-0.3,1.9-0.8c0.5-0.5,0.8-1.1,0.8-1.9v-6h-2.6v-4.6h7.3v10.6c0,2-0.7,3.7-2.1,5.2
						C657.1,666.5,655.4,667.2,653.4,667.2z"/>
					<path class="st13" d="M669.8,636.3l6.1,20.5v-20.5h4.6v30.5h-4.9l-6.3-19.5v19.5h-4.6v-30.5H669.8z"/>
				</g>
			</g>
			<rect x="709.1" y="661.3" class="st3" width="57.1" height="7.8"/>
			<rect x="709.1" y="679.5" class="st3" width="69.6" height="7.8"/>
			<rect x="582.2" y="697.6" class="st3" width="184.1" height="7.8"/>
			<rect x="582.2" y="715.8" class="st3" width="196.6" height="7.8"/>
		</g>
		<g>
			<path class="st14" d="M497.3,78.1c0,7.2,5.8,13,13,13h290.9c7.2,0,13-5.8,13-13V38.9c0-7.2-5.8-13-13-13H510.3
				c-7.2,0-13,5.8-13,13V78.1z"/>
			<path class="st8" d="M814.2,78.1c0,7.2-5.8,13-13,13H762c-7.2,0-13-5.8-13-13V38.9c0-7.2,5.8-13,13-13h39.2c7.2,0,13,5.8,13,13
				V78.1z"/>
			<path class="st15" d="M761.5,43.6c-5.5,6.9-4.4,17,2.6,22.6c5.6,4.4,13.2,4.6,18.8,0.9L797,78.3c1.1,0.9,2.4,1.2,3.7,1
				c1.3-0.1,2.5-0.8,3.4-1.9c1.7-2.2,1.4-5.4-0.8-7.1l-14.2-11.3c2.3-6.3,0.5-13.7-5.1-18.1C777.1,35.5,767,36.6,761.5,43.6z
				 M781.2,44.7c3.5,2.8,4.9,7.2,4,11.3c-0.3,1.7-1.1,3.3-2.2,4.7c-1.1,1.4-2.5,2.5-4.1,3.2c-3.8,1.8-8.5,1.4-12-1.4
				c-4.9-3.9-5.7-11.1-1.8-16C769.1,41.6,776.3,40.8,781.2,44.7z"/>
			<g>
				<path class="st16" d="M516.7,71c1.9,1.8,4.5,3,7,3c3,0,4.7-1.4,4.7-3.5c0-2.2-1.7-2.9-4.2-3.9l-3.7-1.6
					c-2.6-1.1-5.4-3.2-5.4-7.2c0-4.3,3.8-7.6,9-7.6c3.1,0,6.2,1.3,8.3,3.4l-2.4,3c-1.7-1.4-3.5-2.3-5.8-2.3c-2.5,0-4.2,1.2-4.2,3.2
					c0,2.1,2.1,2.9,4.3,3.8l3.7,1.5c3.2,1.4,5.4,3.4,5.4,7.3c0,4.4-3.6,8-9.7,8c-3.6,0-7.2-1.4-9.7-4L516.7,71z"/>
				<path class="st16" d="M545.7,57c5.5,0,8.3,4,8.3,9.6c0,0.9-0.1,1.7-0.2,2.2H541c0.4,3.7,2.7,5.7,6,5.7c1.7,0,3.2-0.5,4.7-1.5
					l1.6,3c-1.9,1.3-4.4,2.2-6.9,2.2c-5.6,0-10-3.9-10-10.6C536.4,61,541,57,545.7,57z M550,65.8c0-3.2-1.4-5.1-4.1-5.1
					c-2.4,0-4.4,1.8-4.9,5.1H550z"/>
				<path class="st16" d="M569.1,64.8c0-2.1-0.9-4-3.7-4c-2,0-3.9,0.9-5.7,2l-1.7-3.2c2.2-1.4,5.1-2.6,8.3-2.6
					c5.1,0,7.5,3.1,7.5,8.7v12H570l-0.4-2.2h-0.1c-1.8,1.5-3.9,2.7-6.3,2.7c-3.5,0-6-2.4-6-5.9C557.2,67.9,560.9,65.7,569.1,64.8z
					 M564.7,74.5c1.6,0,2.9-0.8,4.4-2.2v-4.5c-5.5,0.7-7.3,2.1-7.3,4.2C561.8,73.7,563,74.5,564.7,74.5z"/>
				<path class="st16" d="M579.6,57.5h3.9l0.3,3.6h0.2c1.4-2.6,3.6-4.1,5.7-4.1c1,0,1.7,0.1,2.3,0.4l-0.8,4.1
					c-0.7-0.2-1.2-0.3-2.1-0.3c-1.6,0-3.5,1.1-4.8,4.2v12.3h-4.7V57.5z"/>
				<path class="st16" d="M603.3,57c2.6,0,4.6,1,5.9,2.3l-2.3,3c-1.1-0.9-2.1-1.5-3.4-1.5c-3.3,0-5.5,2.7-5.5,6.7
					c0,4,2.2,6.7,5.4,6.7c1.6,0,3-0.8,4.2-1.7l2,3c-1.9,1.7-4.3,2.6-6.6,2.6c-5.5,0-9.7-3.9-9.7-10.6C593.2,60.8,598,57,603.3,57z"
					/>
				<path class="st16" d="M613.5,48.6h4.7v7.5l-0.2,3.9c1.7-1.6,3.7-3,6.5-3c4.3,0,6.2,2.9,6.2,8v12.7H626V65.6c0-3.3-1-4.6-3.2-4.6
					c-1.8,0-2.9,0.9-4.6,2.5v14.1h-4.7V48.6z"/>
				<path class="st16" d="M639.2,71.7c1.7,0,3,1.4,3,3.2c0,1.9-1.3,3.2-3,3.2c-1.7,0-3.1-1.4-3.1-3.2
					C636.1,73.1,637.4,71.7,639.2,71.7z"/>
				<path class="st16" d="M650.5,71.7c1.7,0,3,1.4,3,3.2c0,1.9-1.3,3.2-3,3.2s-3.1-1.4-3.1-3.2C647.4,73.1,648.7,71.7,650.5,71.7z"
					/>
				<path class="st16" d="M661.8,71.7c1.7,0,3,1.4,3,3.2c0,1.9-1.3,3.2-3,3.2c-1.7,0-3.1-1.4-3.1-3.2
					C658.7,73.1,660,71.7,661.8,71.7z"/>
			</g>
		</g>
		<rect x="621.1" y="156.2" class="st15" width="258.8" height="25.2"/>
		<rect x="811.6" y="199" class="st15" width="68.2" height="68.2"/>
		<rect x="726.6" y="199" class="st15" width="68.2" height="68.2"/>
		<rect x="641.7" y="199" class="st15" width="68.2" height="68.2"/>
		<rect x="422.4" y="281.9" class="st15" width="245.1" height="20.8"/>
		<rect x="422.4" y="320.8" class="st15" width="192.2" height="20.8"/>
		<rect x="422.4" y="358.8" class="st15" width="209.4" height="20.8"/>
		<g>
			<path class="st7" d="M822.5,343.2c-11.6,1.4-10.2-15.6-22.4-11.5c-16,5.9,3.2,27.3,4.6,35.2c4,11.4-13.7,27.1-23.9,13.7
				c-9.1-12,13.5-30.4-1.9-36.4c-13.4-5.3-10.8,26.3-24.8,20.6c-10.8-4.4,6.4-15.8,2.4-27.2c-5.7-16.2-30.5,0.5-38.5,3
				c-10.5,3.3-23.7-2.6-24.4-14.4c-0.7-18.1,21.5-15.2,30.5-12.8c5.4,1.2,14.7,3.2,18.6-1.6c4.8-6.1,0.2-13-4.9-16.6
				c-8.5-5.8-33.5-13.2-24.1-27.9c7.7-12.1,22.9,3.2,27.8,9.7c3.9,5.1,10.4,11.8,15.8,7.9c5.5-3.6-1.5-8.1-0.6-13.1
				c2.2-10.5,13.6,4.4,18.8,2.3c12.1-4.9,11-27,25.6-16.3c10.2,7.5-7.9,13.4-10.1,25.7c-3.9,21.2,24.2,6.1,30.3,0.7
				c10.4-9.3,30,1.4,20.8,15.7c-5.7,9.2-20.5,0.2-30.7,3.2c-8.5,2.3-11.1,10.6-2.4,15.3c5,2.8,11.3,0.9,16.4,4.4
				C833.7,328.4,836.8,341.7,822.5,343.2z"/>
			<path class="st7" d="M857.4,364.5c-8.6,6.1-18.9-4.6-17.5-13.9c0.4-2.4,2.3-4.2,4.6-5.6c2-1,5.4-1,7.6-0.1
				C859.6,348,866.6,358.3,857.4,364.5z"/>
			<path class="st7" d="M724.4,369.6c-6.3,2.3-13.1-6.5-11.4-12.2c1-4.4,4.7-6.2,8.6-6.3c2,0.3,4.5,1.8,5.9,3.6
				C730.8,359.1,730.9,367.1,724.4,369.6z"/>
			<path class="st7" d="M758,374.4c1-1.3,2.3-2,4.4-1.6c2.5,0.5,5.8,4.3,4.4,6.8C764,386,755.6,377.9,758,374.4z"/>
		</g>
		<g>
			<path class="st17" d="M827.6,290.5c-13.3,13.3-38.8,21.1-57.2,16.5c21-8.5,12-25,12.8-43c0.8-17.1,20.4-30.2,38.3-18.8
				C844.1,261.4,838.3,279.8,827.6,290.5z"/>
			<path class="st8" d="M956.3,162.2c-50.7,50.7-101,82.7-112.3,71.4c-11.3-11.3,20.7-61.5,71.4-112.3
				c50.7-50.7,101-82.7,112.3-71.4C1039,61.2,1007,111.5,956.3,162.2z"/>
			<polygon class="st18" points="837.3,268.4 809.5,240.6 871.4,169.4 908.1,206.2 			"/>
			<path class="st19" d="M956,162c-16.8,16.8-33.5,31.5-48.8,43.3l-17.7-17.7l137.9-137.9C1038.7,61,1006.7,111.2,956,162z"/>
			<g class="st20">
				<path class="st21" d="M827.3,290.2c-13.2,13.1-38.2,20.9-56.6,16.7c24.3-5.8,49.1-24.9,55-50l10.9,10.9
					C837.4,276.4,833.1,284.4,827.3,290.2z"/>
			</g>
			<polygon class="st12" points="872,179.9 819,240.3 828.5,249.8 885.2,193 			"/>
		</g>
		<path class="st22" d="M935.5,228c-2.1,1.8-4.2,3.4-6.3,5l0.6,0.6l-70.9,62.2l-0.4-0.4c0.9,8.7-3.5,16.8-9.3,22.5
			c-13.3,13.3-38.8,21.1-57.2,16.5c0.1-0.1,0.2-0.1,0.3-0.1c15.7-6.4,14.3-17.5,13.1-30.3c8.6-3.1,16.4-7.7,22.1-13.4
			c5.8-5.8,10.1-13.8,9.3-22.5l0.4,0.4l70.9-62.2l-0.6-0.7c8.9-6.9,18.4-14.7,28-23.5V228z"/>
		<g>
			<g>
				<path class="st12" d="M983.3,351H872.7c-13,0-23.5,11.1-23.5,24.9v259.7c0,13.7,10.5,24.8,23.5,24.8h110.7
					c13,0,23.5-11.1,23.5-24.8V375.9C1006.9,362.1,996.3,351,983.3,351z M996,620.6H860V390.8h136V620.6z"/>
				<rect x="860" y="390.8" class="st3" width="136" height="229.8"/>
				<path class="st6" d="M955.7,371.1c0,1.6-1.3,2.9-2.9,2.9h-49.6c-1.6,0-2.9-1.3-2.9-2.9l0,0c0-1.6,1.3-2.9,2.9-2.9h49.6
					C954.4,368.2,955.7,369.5,955.7,371.1L955.7,371.1z"/>
			</g>
			<g>
				<path class="st7" d="M892.3,415.2c0,4.3-3.5,7.8-7.8,7.8c-4.3,0-7.8-3.5-7.8-7.8c0-4.3,3.5-7.8,7.8-7.8
					C888.8,407.4,892.3,410.9,892.3,415.2z"/>
				<path class="st8" d="M914.1,415.2c0,4.3-3.5,7.8-7.8,7.8s-7.8-3.5-7.8-7.8c0-4.3,3.5-7.8,7.8-7.8S914.1,410.9,914.1,415.2z"/>
				<path class="st9" d="M935.8,415.2c0,4.3-3.5,7.8-7.8,7.8c-4.3,0-7.8-3.5-7.8-7.8c0-4.3,3.5-7.8,7.8-7.8
					C932.3,407.4,935.8,410.9,935.8,415.2z"/>
				<path class="st10" d="M957.6,415.2c0,4.3-3.5,7.8-7.8,7.8c-4.3,0-7.8-3.5-7.8-7.8c0-4.3,3.5-7.8,7.8-7.8
					C954,407.4,957.6,410.9,957.6,415.2z"/>
				<path class="st11" d="M979.3,415.2c0,4.3-3.5,7.8-7.8,7.8c-4.3,0-7.8-3.5-7.8-7.8c0-4.3,3.5-7.8,7.8-7.8
					C975.8,407.4,979.3,410.9,979.3,415.2z"/>
				<g>
					<path class="st12" d="M893.2,454.7c0,2.1-0.7,3.8-2.2,5.3c-1.5,1.5-3.2,2.2-5.3,2.2h-7.4v-31.4h7.4c2.1,0,3.8,0.7,5.3,2.2
						c1.4,1.5,2.2,3.2,2.2,5.3V454.7z M883,457.5h2.9c0.7,0,1.4-0.3,1.9-0.8c0.5-0.5,0.8-1.2,0.8-1.9v-16.4c0-0.7-0.3-1.4-0.8-1.9
						c-0.5-0.5-1.2-0.8-1.9-0.8H883V457.5z"/>
					<path class="st12" d="M897.3,462.2v-31.4h13.5v4.8h-8.7v8.6h6.4v4.8h-6.4v8.6h8.7v4.8H897.3z"/>
					<path class="st12" d="M929.7,454.4c0,2.2-0.5,4.1-1.7,5.6c-0.8,1-1.9,1.8-3.2,2.2c-0.8,0.2-1.6,0.4-2.6,0.4
						c-1.9,0-3.4-0.5-4.6-1.4c-1-0.7-1.8-1.8-2.4-3.1c-0.6-1.3-0.9-2.8-1-4.4l4.5-0.3c0.2,1.8,0.7,3.2,1.5,4
						c0.6,0.6,1.2,0.9,1.9,0.9c1,0,1.9-0.5,2.5-1.5c0.3-0.5,0.5-1.2,0.5-2.1c0-1.3-0.6-2.6-1.8-3.9c-0.9-0.9-2.3-2.2-4.2-4
						c-1.6-1.5-2.7-2.9-3.3-4.1c-0.7-1.4-1.1-2.8-1.1-4.4c0-2.9,1-5,2.9-6.5c1.2-0.9,2.7-1.3,4.4-1.3c1.7,0,3.1,0.4,4.3,1.1
						c0.9,0.6,1.7,1.4,2.3,2.5c0.6,1,0.9,2.3,1,3.6l-4.5,0.8c-0.1-1.3-0.5-2.3-1.1-3c-0.4-0.5-1.1-0.8-1.9-0.8c-0.9,0-1.5,0.4-2,1.2
						c-0.4,0.6-0.6,1.4-0.6,2.3c0,1.4,0.6,2.9,1.9,4.4c0.5,0.6,1.2,1.2,2.1,2c1.1,0.9,1.8,1.6,2.2,1.9c1.2,1.2,2.1,2.3,2.7,3.5
						c0.3,0.5,0.5,1,0.7,1.5C929.5,452.5,929.7,453.5,929.7,454.4z"/>
					<path class="st12" d="M938.4,462.2h-4.7v-31.4h4.7V462.2z"/>
					<path class="st12" d="M950.1,462.6c-2.1,0-3.9-0.7-5.3-2.2c-1.5-1.5-2.2-3.2-2.2-5.3V438c0-2.1,0.7-3.9,2.2-5.3
						c1.5-1.5,3.2-2.2,5.3-2.2c2.1,0,3.9,0.7,5.3,2.2c1.5,1.5,2.2,3.2,2.2,5.3v3.6h-4.9v-3.7c0-0.8-0.3-1.4-0.8-1.9
						c-0.5-0.5-1.2-0.8-1.9-0.8c-0.7,0-1.4,0.3-1.9,0.8c-0.5,0.5-0.8,1.2-0.8,1.9v17.2c0,0.8,0.3,1.4,0.8,1.9
						c0.5,0.5,1.2,0.8,1.9,0.8c0.7,0,1.4-0.3,1.9-0.8c0.5-0.5,0.8-1.2,0.8-1.9v-6.2H950v-4.8h7.5v11c0,2.1-0.7,3.9-2.2,5.3
						C953.9,461.9,952.1,462.6,950.1,462.6z"/>
					<path class="st12" d="M967,430.8l6.3,21.1v-21.1h4.7v31.4h-5.1l-6.5-20.1v20.1h-4.7v-31.4H967z"/>
				</g>
			</g>
			<rect x="876.7" y="476.4" class="st12" width="102.6" height="10.6"/>
			<rect x="876.7" y="496.7" class="st12" width="102.6" height="10.6"/>
			<rect x="876.7" y="517" class="st12" width="102.6" height="10.6"/>
			<rect x="876.7" y="537.3" class="st12" width="102.6" height="10.6"/>
			<rect x="876.7" y="557.6" class="st12" width="102.6" height="10.6"/>
			<rect x="876.7" y="577.9" class="st12" width="102.6" height="10.6"/>
		</g>
		<g>
			<path class="st12" d="M545.7,626.1c0,12.9-9.7,23.4-21.7,23.4H320.7c-12,0-21.7-10.5-21.7-23.4V341.8c0-12.9,9.7-23.4,21.7-23.4
				H524c12,0,21.7,10.5,21.7,23.4V626.1z"/>
			<rect x="321.2" y="342.4" class="st3" width="201.8" height="264.7"/>
			<path class="st23" d="M437,629.6c0,7.9-6.4,14.2-14.2,14.2c-7.8,0-14.2-6.4-14.2-14.2c0-7.8,6.4-14.2,14.2-14.2
				C430.6,615.4,437,621.7,437,629.6z"/>
			<g>
				<path class="st7" d="M365.4,369.3c0,6.7-5.4,12.1-12.1,12.1c-6.7,0-12.1-5.4-12.1-12.1s5.4-12.1,12.1-12.1
					C360,357.2,365.4,362.6,365.4,369.3z"/>
				<path class="st8" d="M398.8,369.3c0,6.7-5.4,12.1-12.1,12.1c-6.7,0-12.1-5.4-12.1-12.1s5.4-12.1,12.1-12.1
					C393.4,357.2,398.8,362.6,398.8,369.3z"/>
				<path class="st9" d="M432.4,369.3c0,6.7-5.4,12.1-12.1,12.1c-6.7,0-12.1-5.4-12.1-12.1s5.4-12.1,12.1-12.1
					C426.9,357.2,432.4,362.6,432.4,369.3z"/>
				<path class="st10" d="M465.8,369.3c0,6.7-5.4,12.1-12.1,12.1c-6.7,0-12.1-5.4-12.1-12.1s5.4-12.1,12.1-12.1
					C460.4,357.2,465.8,362.6,465.8,369.3z"/>
				<path class="st11" d="M499.3,369.3c0,6.7-5.4,12.1-12.1,12.1c-6.7,0-12.1-5.4-12.1-12.1s5.4-12.1,12.1-12.1
					C493.9,357.2,499.3,362.6,499.3,369.3z"/>
				<g>
					<path class="st12" d="M366.6,430.2c0,3.2-1.1,5.9-3.4,8.2c-2.2,2.3-4.9,3.4-8.1,3.4h-11.5v-48.4h11.5c3.2,0,5.9,1.1,8.1,3.4
						s3.3,5,3.3,8.1V430.2z M351,434.5h4.4c1.2,0,2.1-0.4,2.9-1.3c0.8-0.8,1.2-1.8,1.2-2.9V405c0-1.2-0.4-2.1-1.2-3
						c-0.8-0.8-1.8-1.2-2.9-1.2H351V434.5z"/>
					<path class="st12" d="M373,441.7v-48.4h20.8v7.3h-13.5v13.2h9.8v7.3h-9.8v13.2h13.5v7.3H373z"/>
					<path class="st12" d="M422.9,429.7c0.1,3.4-0.8,6.2-2.6,8.6c-1.2,1.6-2.9,2.8-5,3.4c-1.2,0.4-2.5,0.5-4.1,0.5
						c-2.9,0-5.2-0.7-7.1-2.1c-1.6-1.2-2.8-2.7-3.7-4.7c-0.9-2-1.4-4.3-1.6-6.9l6.9-0.5c0.3,2.8,1.1,4.9,2.2,6.1
						c0.9,1,1.9,1.4,3,1.4c1.6-0.1,2.9-0.8,3.8-2.4c0.5-0.7,0.7-1.8,0.7-3.2c0-2-0.9-4-2.7-6c-1.4-1.4-3.6-3.4-6.5-6.1
						c-2.4-2.3-4.1-4.4-5.1-6.3c-1.1-2.1-1.6-4.4-1.6-6.8c0-4.4,1.5-7.7,4.4-10c1.8-1.4,4.1-2,6.8-2c2.6,0,4.8,0.6,6.7,1.7
						c1.4,0.9,2.6,2.2,3.5,3.8c0.9,1.6,1.4,3.5,1.6,5.6l-7,1.3c-0.2-2-0.8-3.5-1.7-4.6c-0.7-0.8-1.6-1.2-2.9-1.2
						c-1.3,0-2.4,0.6-3,1.8c-0.6,1-0.9,2.1-0.9,3.5c0,2.2,0.9,4.5,2.9,6.8c0.7,0.9,1.8,1.9,3.2,3.1c1.7,1.4,2.8,2.4,3.3,3
						c1.8,1.8,3.2,3.6,4.2,5.3c0.5,0.8,0.8,1.6,1.1,2.3C422.5,426.8,422.9,428.3,422.9,429.7z"/>
					<path class="st12" d="M436.3,441.7H429v-48.3h7.3V441.7z"/>
					<path class="st12" d="M454.3,442.4c-3.2,0-5.9-1.1-8.2-3.4c-2.3-2.3-3.4-5-3.4-8.1v-26.4c0-3.2,1.1-5.9,3.4-8.2
						c2.3-2.2,5-3.4,8.2-3.4c3.2,0,5.9,1.1,8.2,3.4c2.2,2.3,3.4,5,3.4,8.2v5.5h-7.6v-5.7c0-1.2-0.4-2.1-1.2-3
						c-0.8-0.8-1.8-1.2-3-1.2c-1.2,0-2.1,0.4-3,1.2c-0.8,0.8-1.2,1.8-1.2,3v26.5c0,1.2,0.4,2.1,1.2,2.9c0.8,0.8,1.8,1.2,3,1.2
						c1.2,0,2.2-0.4,3-1.2c0.8-0.8,1.2-1.8,1.2-2.9v-9.5h-4.1v-7.3h11.6v16.9c0,3.2-1.1,5.9-3.4,8.2
						C460.2,441.2,457.4,442.4,454.3,442.4z"/>
					<path class="st12" d="M480.3,393.4l9.7,32.5v-32.5h7.3v48.4h-7.8l-10-31v31h-7.3v-48.4H480.3z"/>
				</g>
			</g>
			<rect x="341.2" y="462.2" class="st12" width="158.1" height="12.5"/>
			<rect x="341.2" y="483.9" class="st12" width="158.1" height="12.5"/>
			<rect x="341.2" y="505.7" class="st12" width="158.1" height="12.5"/>
			<rect x="341.2" y="527.4" class="st12" width="158.1" height="12.5"/>
			<rect x="341.2" y="549.2" class="st12" width="158.1" height="12.5"/>
			<rect x="341.2" y="570.9" class="st12" width="158.1" height="12.6"/>
		</g>
		<path class="st24" d="M849.3,372.8c-0.1,1-0.2,2-0.2,3.1V499h-29.6V397.7c0-13.8,10.6-24.9,23.5-24.9H849.3z"/>
		<path class="st24" d="M598.6,369.9V499h-52.9V346.4h31.1C588.9,346.4,598.6,356.9,598.6,369.9z"/>
	</g>
</g>
</svg>
