<?xml version="1.0" encoding="utf-8"?>
<!-- Generator: Adobe Illustrator 22.0.0, SVG Export Plug-In . SVG Version: 6.00 Build 0)  -->
<svg version="1.1" id="Layer_1" xmlns="http://www.w3.org/2000/svg" xmlns:xlink="http://www.w3.org/1999/xlink" x="0px" y="0px"
	 viewBox="0 0 1366 768" style="enable-background:new 0 0 1366 768;" xml:space="preserve">
<style type="text/css">
	.st0{fill:#EAE6FF;}
	.st1{fill:#CDCCFF;}
	.st2{fill:#D7D7FF;}
	.st3{fill:#BDC6F9;}
	.st4{fill:#8784EF;}
	.st5{fill:#9AA3F4;}
	.st6{fill:none;stroke:#9AA3F4;stroke-width:1.5;stroke-miterlimit:10;}
	.st7{fill:#4A41A3;}
	.st8{fill:#5851BC;}
	.st9{fill:#C4C3FC;}
	.st10{opacity:0.35;}
	.st11{fill:#FFFFFF;}
	.st12{opacity:0.25;}
	.st13{fill:#FCA70C;}
	.st14{fill:#B1AFFD;}
	.st15{opacity:0.15;}
	.st16{opacity:0.26;}
	.st17{opacity:0.62;}
	.st18{fill:#D5DBDA;}
	.st19{fill:#EFEFEF;}
	.st20{fill:#7A7AE5;}
	.st21{fill:#CFCFFF;}
	.st22{opacity:0.55;fill:#C4C3FC;}
	.st23{fill:#A4A4F7;}
	.st24{opacity:0.35;fill:#5851BC;}
	.st25{fill:#A2A7F4;}
	.st26{fill:#9090F4;}
	.st27{opacity:0.45;}
	.st28{fill:#E2DEFF;}
	.st29{fill:#F9C110;}
	.st30{fill:#5045AF;}
	.st31{fill:#FFB9B0;}
	.st32{fill:#7762EF;}
	.st33{fill:#5146AF;}
	.st34{fill:#F2F2F2;}
	.st35{fill:#8484EF;}
	.st36{fill:#C4C4F7;}
	.st37{fill:#BBBBF2;}
	.st38{fill:none;stroke:#C4C4F7;stroke-width:0.75;stroke-linecap:round;stroke-linejoin:round;stroke-miterlimit:10;}
	.st39{fill:#ED9C80;}
	.st40{fill:#38287C;}
	.st41{fill:#453087;}
	.st42{opacity:0.25;fill:#CE4A30;}
	.st43{fill:#7A74D1;}
	.st44{fill:#CE4A30;}
	.st45{opacity:0.45;fill:none;stroke:#A4A4F7;stroke-miterlimit:10;}
	.st46{fill:#483A99;}
	.st47{fill:#D5D2FF;}
	.st48{opacity:0.45;fill:#FFFFFF;}
	.st49{fill:#A9ADFF;}
	.st50{fill:#F2A181;}
	.st51{fill:#5E5DBB;}
	.st52{fill:#B4B4DB;}
	.st53{fill:#6960C4;}
	.st54{fill:#170D54;}
	.st55{fill:#FFBE9D;}
	.st56{fill:#3B2E7A;}
	.st57{fill:#E9E6FF;}
	.st58{fill:#E0D9FF;}
	.st59{opacity:0.3;}
	.st60{fill:#3939D3;}
	.st61{fill:#FEFEFE;}
</style>
<g>
	<g>
		<path class="st0" d="M1144.1,459c-16.9-47.1-43.5-61.5-68.9-91.7c-30.9-36.9-51.8-63.8-43.8-111.3
			c13.1-77.6,18.7-271.2-186.8-245.9C771,19.1,712.8,75.6,670.4,131.9c-36,47.9-100.8,52.2-153,63.4
			C453.3,209,388,229.8,328.7,260.2c-122.1,62.6-158.6,152.6-153.6,267.8c1.5,34.8,6.4,89.6,65.2,153.7
			c79.3,86.5,194.6,98.1,333.3,58.4c31.8-9.1,61.8-23.4,93-34.1c32.5-11.2,66.2-18.5,100.4-21.8c79.7-7.7,162.3,6.2,238.7-17.6
			c40.4-12.6,77.5-35.6,106.8-66.2C1148.9,562.1,1161.9,508.8,1144.1,459z"/>
	</g>
	<g>
		<path class="st1" d="M240.3,636.6c0,11.4,144.3,20.6,322.3,20.6c178,0,322.3-9.2,322.3-20.6c0-11.4-144.3-20.6-322.3-20.6
			C384.6,616,240.3,625.3,240.3,636.6z"/>
	</g>
	<path class="st1" d="M437,662.1c0,7.1-36.6,12.9-81.8,12.9c-45.2,0-81.8-5.8-81.8-12.9c0-7.1,36.6-12.9,81.8-12.9
		C400.3,649.2,437,655,437,662.1z"/>
	<ellipse class="st1" cx="981.3" cy="664.8" rx="137.3" ry="10.2"/>
	<g>
		<polygon class="st2" points="272.4,495.2 267.2,569 337.6,569 332.8,495 		"/>
		<g>
			<g>
				<path class="st0" d="M286.4,501.7L286.4,501.7c0-1.1,1.1-2,2.4-2c0,0,0,0,0,0c1.3,0,2.4,0.9,2.4,2c0,1.1-1.1,2-2.4,2
					c0,0,0,0,0,0C287.5,503.7,286.4,502.8,286.4,501.7z M288.8,500.4c-0.9,0-1.6,0.6-1.6,1.3c0,0.7,0.7,1.3,1.6,1.3c0,0,0,0,0,0
					c0.9,0,1.6-0.6,1.6-1.3C290.5,501,289.7,500.4,288.8,500.4L288.8,500.4z M286.8,501.7L286.8,501.7L286.8,501.7z"/>
			</g>
			<g>
				<path class="st0" d="M310.4,501.6l0.4,0L310.4,501.6c0-0.5,0.2-1,0.6-1.3c0.5-0.5,1.1-0.7,1.8-0.7c0,0,0,0,0,0
					c1.3,0,2.4,0.9,2.4,2c0,0.6-0.3,1.1-0.7,1.5c-0.5,0.4-1,0.6-1.7,0.6c0,0,0,0,0,0C311.5,503.6,310.4,502.7,310.4,501.6z
					 M312.8,500.3c-0.5,0-1,0.2-1.3,0.5c-0.2,0.2-0.3,0.4-0.3,0.8l0,0c0,0.7,0.7,1.3,1.6,1.3h0c0.5,0,0.9-0.1,1.2-0.4
					c0.3-0.2,0.4-0.5,0.4-0.9C314.5,500.9,313.7,500.3,312.8,500.3C312.8,500.3,312.8,500.3,312.8,500.3z"/>
			</g>
			<path class="st0" d="M300.1,516.5c0.2,0,0.5,0,0.7,0c4.4-0.1,7.8-1.6,10-4.2c3.7-4.4,2.8-10.5,2.8-10.8c-0.1-0.4-0.5-0.7-0.9-0.7
				c-0.4,0.1-0.7,0.5-0.7,0.9c0,0.1,0.8,5.7-2.5,9.6c-1.9,2.3-4.9,3.5-8.8,3.7c-3.8,0.1-6.7-0.9-8.6-3c-3.4-3.8-2.6-10.1-2.6-10.2
				c0.1-0.4-0.2-0.8-0.7-0.9c-0.4-0.1-0.8,0.2-0.9,0.7c0,0.3-1,7.1,3,11.4C293.1,515.3,296.2,516.5,300.1,516.5z"/>
		</g>
		<polygon class="st3" points="305.6,515.9 297.2,570.8 373.6,570.6 365.9,515.7 		"/>
		<g>
			<path class="st4" d="M277.3,608.6c-8.6,0-15.5,6.9-15.5,15.5c0,8.6,6.9,15.5,15.5,15.5c8.6,0,15.5-6.9,15.5-15.5
				C292.8,615.5,285.8,608.6,277.3,608.6z M277.3,631.3c-4,0-7.2-3.2-7.2-7.2c0-4,3.2-7.2,7.2-7.2c4,0,7.2,3.2,7.2,7.2
				C284.5,628.1,281.2,631.3,277.3,631.3z"/>
			<path class="st5" d="M274.7,608.6c-8.6,0-15.5,6.9-15.5,15.5c0,8.6,6.9,15.5,15.5,15.5c8.6,0,15.5-6.9,15.5-15.5
				C290.2,615.5,283.3,608.6,274.7,608.6z M274.7,631.3c-4,0-7.2-3.2-7.2-7.2c0-4,3.2-7.2,7.2-7.2c4,0,7.2,3.2,7.2,7.2
				C281.9,628.1,278.7,631.3,274.7,631.3z"/>
			<path class="st4" d="M364.9,608.6c-8.6,0-15.5,6.9-15.5,15.5c0,8.6,6.9,15.5,15.5,15.5c8.6,0,15.5-6.9,15.5-15.5
				C380.4,615.5,373.4,608.6,364.9,608.6z M364.9,631.3c-4,0-7.2-3.2-7.2-7.2c0-4,3.2-7.2,7.2-7.2c4,0,7.2,3.2,7.2,7.2
				C372.1,628.1,368.9,631.3,364.9,631.3z"/>
			<path class="st5" d="M362.3,608.6c-8.6,0-15.5,6.9-15.5,15.5c0,8.6,6.9,15.5,15.5,15.5c8.6,0,15.5-6.9,15.5-15.5
				C377.8,615.5,370.9,608.6,362.3,608.6z M362.3,631.3c-4,0-7.2-3.2-7.2-7.2c0-4,3.2-7.2,7.2-7.2c4,0,7.2,3.2,7.2,7.2
				C369.6,628.1,366.3,631.3,362.3,631.3z"/>
			<g>
				<path class="st6" d="M481.9,434.5h-46.6c-4.9,0-9.5,2.5-12,6.7l-28.2,45.2"/>
				<path class="st6" d="M269.9,569.5H374c5.5,0,10.3-4,11.1-9.5l10.8-67.2c1.1-6.9-4.2-13.1-11.1-13.1H259.1
					c-6.9,0-12.2,6.2-11.1,13.1l10.8,67.2C259.6,565.5,264.4,569.5,269.9,569.5z"/>
				<line class="st6" x1="322" y1="479.7" x2="322" y2="569.5"/>
				<line class="st6" x1="390.9" y1="524.6" x2="253.1" y2="524.6"/>
				<line class="st6" x1="363.1" y1="479.7" x2="354.2" y2="569.5"/>
				<line class="st6" x1="282.9" y1="479.7" x2="291.1" y2="569.5"/>
				<path class="st6" d="M382.7,565.4l16.9,25.1c4.6,6.8-0.3,16-8.5,16h-138"/>
			</g>
		</g>
	</g>
	<g>
		<rect x="602.5" y="577.3" class="st7" width="142.9" height="38.4"/>
		<path class="st8" d="M912.9,589.9H436.5c-5.2,0-9.4-4.2-9.4-9.4V243c0-5.2,4.2-9.4,9.4-9.4h476.5c5.2,0,9.4,4.2,9.4,9.4v337.5
			C922.3,585.7,918.1,589.9,912.9,589.9z"/>
		<path class="st9" d="M901.2,555.7H446.7c-3.2,0-5.8-2.6-5.8-5.8V252.4c0-3.2,2.6-5.8,5.8-5.8h454.5c3.2,0,5.8,2.6,5.8,5.8v297.6
			C907,553.1,904.4,555.7,901.2,555.7z"/>
		<path class="st8" d="M806.8,636.6H541.1v-16.9c0-4,3.3-7.3,7.3-7.3h251c4,0,7.3,3.3,7.3,7.3V636.6z"/>
		<g class="st10">
			<g>
				<g>
					<path class="st11" d="M864,487.1H566.5c-7.9,0-14.3-6.4-14.3-14.3V282.2c0-7.9,6.4-14.3,14.3-14.3H864
						c7.9,0,14.3,6.4,14.3,14.3v190.6C878.3,480.7,871.9,487.1,864,487.1z"/>
				</g>
			</g>
		</g>
		<g class="st12">
			<g>
				<g>
					<g>
						<g>
							<rect x="583.2" y="428.1" class="st13" width="14.2" height="35.7"/>
						</g>
					</g>
				</g>
				<g>
					<g>
						<g>
							<rect x="615.2" y="396.8" class="st14" width="14.2" height="67"/>
						</g>
					</g>
				</g>
				<g>
					<g>
						<g>
							<rect x="647.2" y="403.7" class="st13" width="14.2" height="60"/>
						</g>
					</g>
				</g>
				<g>
					<g>
						<g>
							<rect x="679.2" y="369.8" class="st14" width="14.2" height="93.9"/>
						</g>
					</g>
				</g>
				<g class="st15">
					<g>
						<g>
							<rect x="615.2" y="396.8" class="st16" width="6.5" height="67"/>
						</g>
					</g>
				</g>
				<g class="st15">
					<g>
						<g>
							<rect x="583.2" y="428.1" class="st16" width="6.5" height="35.7"/>
						</g>
					</g>
				</g>
				<g class="st17">
					<g>
						<g>
							<rect x="679.2" y="369.8" class="st16" width="6.5" height="93.9"/>
						</g>
					</g>
				</g>
				<g class="st15">
					<g>
						<g>
							<rect x="647.2" y="403.7" class="st16" width="6.5" height="60"/>
						</g>
					</g>
				</g>
				<g>
					<g>
						<g>
							<polygon class="st18" points="701,473.5 573.8,473.5 573.8,338.2 575.8,338.2 575.8,471.6 701,471.6 							"/>
						</g>
					</g>
				</g>
				<g>
					<g>
						<g>
							<polygon class="st18" points="586.9,411.4 585.6,409.9 618.9,380.1 649.7,386.7 683,349.6 684.5,350.9 650.4,388.9 
								619.4,382.2 							"/>
						</g>
					</g>
				</g>
				<g>
					<g>
						<g>
							<polygon class="st18" points="687.1,356.4 677.7,347.4 689.8,344.1 							"/>
						</g>
					</g>
				</g>
				<g>
					<g>
						<g>
							<g>
								<rect x="713" y="425.5" class="st14" width="9.8" height="9.8"/>
							</g>
						</g>
					</g>
					<g>
						<g>
							<g>
								<rect x="713" y="442.6" class="st13" width="9.8" height="9.8"/>
							</g>
						</g>
					</g>
					<g>
						<g>
							<g>
								<rect x="725.5" y="446.8" class="st19" width="30.9" height="5.5"/>
							</g>
						</g>
					</g>
					<g>
						<g>
							<g>
								<rect x="725.5" y="429.7" class="st19" width="30.9" height="5.5"/>
							</g>
						</g>
					</g>
				</g>
				<g>
					<g>
						<g>
							<g>
								<rect x="770.4" y="425.5" class="st14" width="9.8" height="9.8"/>
							</g>
						</g>
					</g>
					<g>
						<g>
							<g>
								<rect x="770.4" y="442.6" class="st13" width="9.8" height="9.8"/>
							</g>
						</g>
					</g>
					<g>
						<g>
							<g>
								<rect x="782.8" y="446.8" class="st19" width="30.9" height="5.5"/>
							</g>
						</g>
					</g>
					<g>
						<g>
							<g>
								<rect x="782.8" y="429.7" class="st19" width="30.9" height="5.5"/>
							</g>
						</g>
					</g>
				</g>
				<g>
					<g>
						<g>
							<g>
								<rect x="822" y="425.5" class="st14" width="9.8" height="9.8"/>
							</g>
						</g>
					</g>
					<g>
						<g>
							<g>
								<rect x="822" y="442.6" class="st13" width="9.8" height="9.8"/>
							</g>
						</g>
					</g>
					<g>
						<g>
							<g>
								<rect x="834.5" y="446.8" class="st19" width="20.3" height="5.5"/>
							</g>
						</g>
					</g>
					<g>
						<g>
							<g>
								<rect x="834.5" y="429.7" class="st19" width="20.3" height="5.5"/>
							</g>
						</g>
					</g>
				</g>
				<g>
					<g>
						<g>
							<g>
								<rect x="714.8" y="332.3" class="st19" width="140" height="2.5"/>
							</g>
						</g>
					</g>
					<g>
						<g>
							<g>
								<rect x="573.8" y="301.1" class="st19" width="281" height="5.8"/>
							</g>
						</g>
					</g>
					<g>
						<g>
							<g>
								<rect x="714.4" y="340.2" class="st19" width="140.4" height="2.5"/>
							</g>
						</g>
					</g>
					<g>
						<g>
							<g>
								<rect x="714.4" y="324.4" class="st19" width="140.4" height="2.5"/>
							</g>
						</g>
					</g>
					<g>
						<g>
							<g>
								<rect x="714.4" y="348.2" class="st19" width="140.4" height="2.5"/>
							</g>
						</g>
					</g>
					<g>
						<g>
							<g>
								<rect x="714.4" y="356.1" class="st19" width="140.4" height="2.5"/>
							</g>
						</g>
					</g>
					<g>
						<g>
							<g>
								<rect x="714.4" y="364" class="st19" width="140.4" height="2.5"/>
							</g>
						</g>
					</g>
					<g>
						<g>
							<g>
								<rect x="714.4" y="371.9" class="st19" width="140.4" height="2.5"/>
							</g>
						</g>
					</g>
					<g>
						<g>
							<g>
								<rect x="714.4" y="379.8" class="st19" width="140.4" height="2.5"/>
							</g>
						</g>
					</g>
					<g>
						<g>
							<g>
								<rect x="714.4" y="387.7" class="st19" width="140.4" height="2.5"/>
							</g>
						</g>
					</g>
					<g>
						<g>
							<g>
								<rect x="731.6" y="395.6" class="st19" width="123.2" height="2.5"/>
							</g>
						</g>
					</g>
				</g>
			</g>
			<path class="st20" d="M864,267.9H566.5c-7.9,0-14.3,6.4-14.3,14.3v12.5h326.1v-12.5C878.3,274.3,871.9,267.9,864,267.9z"/>
			<path class="st21" d="M836.4,281.8c0,2.3-1.8,4.1-4.1,4.1c-2.3,0-4.1-1.8-4.1-4.1c0-2.3,1.8-4.1,4.1-4.1
				C834.5,277.7,836.4,279.5,836.4,281.8z"/>
			<circle class="st21" cx="849.1" cy="281.8" r="4.1"/>
			<circle class="st21" cx="865.9" cy="281.8" r="4.1"/>
		</g>
		<g>
			<g>
				<g>
					<g>
						<path class="st22" d="M777.4,535.6H479.9c-7.9,0-14.3-6.4-14.3-14.3V330.7c0-7.9,6.4-14.3,14.3-14.3h297.5
							c7.9,0,14.3,6.4,14.3,14.3v190.6C791.7,529.2,785.3,535.6,777.4,535.6z"/>
					</g>
				</g>
			</g>
			<g>
				<g>
					<g>
						<path class="st11" d="M784,527.1H486.5c-7.9,0-14.3-6.4-14.3-14.3V322.2c0-7.9,6.4-14.3,14.3-14.3H784
							c7.9,0,14.3,6.4,14.3,14.3v190.6C798.3,520.7,791.9,527.1,784,527.1z"/>
					</g>
				</g>
			</g>
			<g>
				<g>
					<g>
						<g>
							<rect x="503.2" y="468" class="st13" width="14.2" height="35.7"/>
						</g>
					</g>
				</g>
				<g>
					<g>
						<g>
							<rect x="535.2" y="436.7" class="st14" width="14.2" height="67"/>
						</g>
					</g>
				</g>
				<g>
					<g>
						<g>
							<rect x="567.2" y="443.6" class="st13" width="14.2" height="60"/>
						</g>
					</g>
				</g>
				<g>
					<g>
						<g>
							<rect x="599.2" y="409.7" class="st14" width="14.2" height="93.9"/>
						</g>
					</g>
				</g>
				<g class="st15">
					<g>
						<g>
							<rect x="535.2" y="436.7" class="st16" width="6.5" height="67"/>
						</g>
					</g>
				</g>
				<g class="st15">
					<g>
						<g>
							<rect x="503.2" y="468" class="st16" width="6.5" height="35.7"/>
						</g>
					</g>
				</g>
				<g class="st17">
					<g>
						<g>
							<rect x="599.2" y="409.7" class="st16" width="6.5" height="93.9"/>
						</g>
					</g>
				</g>
				<g class="st15">
					<g>
						<g>
							<rect x="567.2" y="443.6" class="st16" width="6.5" height="60"/>
						</g>
					</g>
				</g>
				<g>
					<g>
						<g>
							<polygon class="st18" points="621,513.5 493.8,513.5 493.8,390.2 495.8,390.2 495.8,511.5 621,511.5 							"/>
						</g>
					</g>
				</g>
				<g>
					<g>
						<g>
							<polygon class="st18" points="506.9,451.3 505.6,449.9 538.9,420 569.7,426.7 603,389.6 604.5,390.9 570.3,428.8 
								539.4,422.1 							"/>
						</g>
					</g>
				</g>
				<g>
					<g>
						<g>
							<polygon class="st18" points="607.1,396.3 597.7,387.3 609.8,384.1 							"/>
						</g>
					</g>
				</g>
				<g>
					<g>
						<g>
							<g>
								<rect x="633" y="465.5" class="st14" width="9.8" height="9.8"/>
							</g>
						</g>
					</g>
					<g>
						<g>
							<g>
								<rect x="633" y="482.6" class="st13" width="9.8" height="9.8"/>
							</g>
						</g>
					</g>
					<g>
						<g>
							<g>
								<rect x="645.4" y="486.8" class="st19" width="30.9" height="5.5"/>
							</g>
						</g>
					</g>
					<g>
						<g>
							<g>
								<rect x="645.4" y="469.7" class="st19" width="30.9" height="5.5"/>
							</g>
						</g>
					</g>
				</g>
				<g>
					<g>
						<g>
							<g>
								<rect x="690.4" y="465.5" class="st14" width="9.8" height="9.8"/>
							</g>
						</g>
					</g>
					<g>
						<g>
							<g>
								<rect x="690.4" y="482.6" class="st13" width="9.8" height="9.8"/>
							</g>
						</g>
					</g>
					<g>
						<g>
							<g>
								<rect x="702.8" y="486.8" class="st19" width="30.9" height="5.5"/>
							</g>
						</g>
					</g>
					<g>
						<g>
							<g>
								<rect x="702.8" y="469.7" class="st19" width="30.9" height="5.5"/>
							</g>
						</g>
					</g>
				</g>
				<g>
					<g>
						<g>
							<g>
								<rect x="742" y="465.5" class="st14" width="9.8" height="9.8"/>
							</g>
						</g>
					</g>
					<g>
						<g>
							<g>
								<rect x="742" y="482.6" class="st13" width="9.8" height="9.8"/>
							</g>
						</g>
					</g>
					<g>
						<g>
							<g>
								<rect x="754.5" y="486.8" class="st19" width="20.3" height="5.5"/>
							</g>
						</g>
					</g>
					<g>
						<g>
							<g>
								<rect x="754.5" y="469.7" class="st19" width="20.3" height="5.5"/>
							</g>
						</g>
					</g>
				</g>
				<g>
					<g>
						<g>
							<g>
								<rect x="634.8" y="372.3" class="st19" width="140" height="2.5"/>
							</g>
						</g>
					</g>
					<g>
						<g>
							<g>
								<rect x="493.8" y="341" class="st19" width="281" height="5.8"/>
							</g>
						</g>
					</g>
					<g>
						<g>
							<g>
								<rect x="634.4" y="380.2" class="st19" width="140.4" height="2.5"/>
							</g>
						</g>
					</g>
					<g>
						<g>
							<g>
								<rect x="634.4" y="364.4" class="st19" width="140.4" height="2.5"/>
							</g>
						</g>
					</g>
					<g>
						<g>
							<g>
								<rect x="634.4" y="388.1" class="st19" width="140.4" height="2.5"/>
							</g>
						</g>
					</g>
					<g>
						<g>
							<g>
								<rect x="634.4" y="396" class="st19" width="140.4" height="2.5"/>
							</g>
						</g>
					</g>
					<g>
						<g>
							<g>
								<rect x="634.4" y="403.9" class="st19" width="140.4" height="2.5"/>
							</g>
						</g>
					</g>
					<g>
						<g>
							<g>
								<rect x="634.4" y="411.8" class="st19" width="140.4" height="2.5"/>
							</g>
						</g>
					</g>
					<g>
						<g>
							<g>
								<rect x="634.4" y="419.8" class="st19" width="140.4" height="2.5"/>
							</g>
						</g>
					</g>
					<g>
						<g>
							<g>
								<rect x="634.4" y="427.7" class="st19" width="140.4" height="2.5"/>
							</g>
						</g>
					</g>
					<g>
						<g>
							<g>
								<rect x="651.6" y="435.6" class="st19" width="123.2" height="2.5"/>
							</g>
						</g>
					</g>
				</g>
			</g>
			<path class="st23" d="M784,307.9H486.5c-7.9,0-14.3,6.4-14.3,14.3v12.5h326.1v-12.5C798.3,314.3,791.9,307.9,784,307.9z"/>
			<path class="st21" d="M756.4,321.8c0,2.3-1.8,4.1-4.1,4.1s-4.1-1.8-4.1-4.1s1.8-4.1,4.1-4.1S756.4,319.5,756.4,321.8z"/>
			<path class="st21" d="M773.2,321.8c0,2.3-1.8,4.1-4.1,4.1c-2.3,0-4.1-1.8-4.1-4.1s1.8-4.1,4.1-4.1
				C771.3,317.7,773.2,319.5,773.2,321.8z"/>
			<path class="st21" d="M790,321.8c0,2.3-1.8,4.1-4.1,4.1c-2.3,0-4.1-1.8-4.1-4.1s1.8-4.1,4.1-4.1C788.1,317.7,790,319.5,790,321.8
				z"/>
		</g>
		<path class="st24" d="M894.1,233.8h-76.4c0.5,24.8,1,49.5,1.3,74.3c0,3.8,0,7.7-1.4,11.2c-0.1,0-0.1,0-0.1,0
			c-1-0.1-0.6,0.3-0.9,2.1c0,0,0,0.1,0,0.1c-3.1,5-9.1,7.8-15,9.1c-0.1,0.3,0,0.6,0.1,0.8c-0.7,0.6-1,1.4-0.6,2.3
			c0.4,0.8,4.7,1.9,10.7,1.3c1.7-0.2,5.1-1.1,6.6-1.8c0.9-0.4,1.8-1.1,2.4-1.7c0.8-0.1,1.5-0.3,2.2-0.5l0.2,0.2l6.8-3
			c0,0-0.7-4.3-1.3-6.6c-0.1-0.4-0.3-0.8-0.5-1.1c5.7-15.5,10.2-31.4,13.4-47.7c-1.2,20.1-8.5,61-9,62.4c-0.9,2.4-4,5.7-8.7,6.1
			c-1.6,0.1-9.6-0.3-8.7,3.3c0.2,0.9,4.3,2.7,10.3,3.1c1.7,0.1,5.2-0.2,6.8-0.7c2.2-0.6,4.3-2.3,4.3-2.3l0.9,1.2l7.2-1.7
			c0,0,0-1.9-0.1-4.2c0-2.3-1.6-4.4-1.6-4.4l0.1-4.1l4-0.5c0,0,8.1-26.1,11.9-35c1.6-3.7,3.3-7.3,4.3-11.1c1.2-4.5,1.3-9.2,1.7-13.9
			c0.7-8.5,2.2-16.9,4.7-25.1c0.2-0.5,0.3-1.1,0.7-1.5c0.6-0.7,1.7-0.8,2.6-0.9c10.3-0.9,15,0.8,21.4-1.2c8.5-2.6,9.4-6.5,9.8-6.7
			C901.3,234.6,897.8,233.8,894.1,233.8z"/>
		<g class="st10">
			<path class="st8" d="M922.3,404.8v-88.6c-13.2,17.3-26.3,32.8-39.5,50.1c-5.7,7.5-28.2,32.3-12.9,42.3c3.9,2.5,10.7,2.4,14.1,2.7
				c12.2,0.9,24.3-2.5,36.2-5.9C921,405.2,921.6,405,922.3,404.8z"/>
		</g>
		<path class="st24" d="M922.3,423.8l-7.4,0.6l-0.1-0.4l-5.7,0.4l-1.7-4.9c-1-2.8-4.2-4.8-7.2-4.6c-3,0.2-4.6,2.7-3.7,5.5
			c0.3,0.8,1.1,3.2,1.7,4.8l-6,0.5l0.1,0.4l-12.4,1c-2,0-4.9,2.5-4.2,4.3l0.1,0.3c0,0.2,0,0.3,0.1,0.5l10.7,30.3l-0.3,127.5h12.4
			l23.6-91.6V423.8z M903,422.9c-1.7,0.1-3.5-1-4-2.6c-0.6-1.6,0.4-2.9,2.1-3.1c1.7-0.1,3.5,1,4,2.6
			C905.6,421.4,904.7,422.7,903,422.9z"/>
		<path class="st24" d="M458.2,371.3c-2.8,3.1-6,9.6-7.4,12.4c-1.4,2.8-2.9,4.3-6.9,6.2c-5.4,2.5-11.3,4.9-16.9,7.1v14.5
			c11.4-6.9,21.7-13.3,21.9-13.3c8.7,3.3,16-3.9,18.4-9.1c1-2.3-0.5-3.3-0.6-4.4c0-0.6,0.7-4,0.6-4.4c-0.7-3.1-8.9-0.4-8.2-1.8
			c0.4-1.1,1.4-3.7,3.4-5.1c4-2.7,7.1-5.8,7.1-6.9C469.7,364.2,459.2,370.3,458.2,371.3z"/>
	</g>
	<g>
		<path class="st25" d="M1085.6,667.5H907c-3.8,0-6.9-3.1-6.9-6.9V451.7c0-3.8,3.1-6.9,6.9-6.9h178.6c3.8,0,6.9,3.1,6.9,6.9v208.8
			C1092.6,664.3,1089.5,667.5,1085.6,667.5z"/>
		<g>
			<g>
				<path class="st26" d="M1078.9,513.8H919.6c-1,0-1.8-0.8-1.8-1.8v-42.2c0-1,0.8-1.8,1.8-1.8h159.3c1,0,1.8,0.8,1.8,1.8v42.2
					C1080.7,513,1079.9,513.8,1078.9,513.8z"/>
				<path class="st26" d="M957.9,559.1h-38.3c-1,0-1.8-0.8-1.8-1.8v-25.5c0-1,0.8-1.8,1.8-1.8h38.3c1,0,1.8,0.8,1.8,1.8v25.5
					C959.7,558.3,958.9,559.1,957.9,559.1z"/>
				<path class="st26" d="M1018.4,559.1h-38.3c-1,0-1.8-0.8-1.8-1.8v-25.5c0-1,0.8-1.8,1.8-1.8h38.3c1,0,1.8,0.8,1.8,1.8v25.5
					C1020.2,558.3,1019.4,559.1,1018.4,559.1z"/>
				<path class="st26" d="M1078.9,559.1h-38.3c-1,0-1.8-0.8-1.8-1.8v-25.5c0-1,0.8-1.8,1.8-1.8h38.3c1,0,1.8,0.8,1.8,1.8v25.5
					C1080.7,558.3,1079.9,559.1,1078.9,559.1z"/>
				<path class="st26" d="M957.9,605.8h-38.3c-1,0-1.8-0.8-1.8-1.8v-25.5c0-1,0.8-1.8,1.8-1.8h38.3c1,0,1.8,0.8,1.8,1.8V604
					C959.7,605,958.9,605.8,957.9,605.8z"/>
				<path class="st26" d="M1018.4,605.8h-38.3c-1,0-1.8-0.8-1.8-1.8v-25.5c0-1,0.8-1.8,1.8-1.8h38.3c1,0,1.8,0.8,1.8,1.8V604
					C1020.2,605,1019.4,605.8,1018.4,605.8z"/>
				<path class="st26" d="M957.9,652.4h-38.3c-1,0-1.8-0.8-1.8-1.8v-25.5c0-1,0.8-1.8,1.8-1.8h38.3c1,0,1.8,0.8,1.8,1.8v25.5
					C959.7,651.6,958.9,652.4,957.9,652.4z"/>
				<path class="st26" d="M1018.4,652.4h-38.3c-1,0-1.8-0.8-1.8-1.8v-25.5c0-1,0.8-1.8,1.8-1.8h38.3c1,0,1.8,0.8,1.8,1.8v25.5
					C1020.2,651.6,1019.4,652.4,1018.4,652.4z"/>
			</g>
			<path class="st26" d="M1078.9,652.4h-38.3c-1,0-1.8-0.8-1.8-1.8v-72.2c0-1,0.8-1.8,1.8-1.8h38.3c1,0,1.8,0.8,1.8,1.8v72.2
				C1080.7,651.6,1079.9,652.4,1078.9,652.4z"/>
		</g>
		<g class="st27">
			<path class="st28" d="M914.9,470.2c0-2.8,2.3-5.1,5.1-5.1h152.7c2.8,0,5.1,2.3,5.1,5.1v35.6c0,2.8-2.3,5.1-5.1,5.1H919.9"/>
			<path class="st28" d="M955,556.1h-38.3c-1,0-1.8-0.8-1.8-1.8v-25.5c0-1,0.8-1.8,1.8-1.8H955c1,0,1.8,0.8,1.8,1.8v25.5
				C956.8,555.3,956,556.1,955,556.1z"/>
			<path class="st28" d="M1015.5,556.1h-38.3c-1,0-1.8-0.8-1.8-1.8v-25.5c0-1,0.8-1.8,1.8-1.8h38.3c1,0,1.8,0.8,1.8,1.8v25.5
				C1017.2,555.3,1016.4,556.1,1015.5,556.1z"/>
			<path class="st28" d="M1075.9,556.1h-38.3c-1,0-1.8-0.8-1.8-1.8v-25.5c0-1,0.8-1.8,1.8-1.8h38.3c1,0,1.8,0.8,1.8,1.8v25.5
				C1077.7,555.3,1076.9,556.1,1075.9,556.1z"/>
			<path class="st28" d="M955,602.8h-38.3c-1,0-1.8-0.8-1.8-1.8v-25.5c0-1,0.8-1.8,1.8-1.8H955c1,0,1.8,0.8,1.8,1.8V601
				C956.8,602,956,602.8,955,602.8z"/>
			<path class="st28" d="M1015.5,602.8h-38.3c-1,0-1.8-0.8-1.8-1.8v-25.5c0-1,0.8-1.8,1.8-1.8h38.3c1,0,1.8,0.8,1.8,1.8V601
				C1017.2,602,1016.4,602.8,1015.5,602.8z"/>
			<path class="st28" d="M955,649.5h-38.3c-1,0-1.8-0.8-1.8-1.8v-25.5c0-1,0.8-1.8,1.8-1.8H955c1,0,1.8,0.8,1.8,1.8v25.5
				C956.8,648.7,956,649.5,955,649.5z"/>
			<path class="st28" d="M1015.5,649.5h-38.3c-1,0-1.8-0.8-1.8-1.8v-25.5c0-1,0.8-1.8,1.8-1.8h38.3c1,0,1.8,0.8,1.8,1.8v25.5
				C1017.2,648.7,1016.4,649.5,1015.5,649.5z"/>
		</g>
		<path class="st13" d="M1075.9,649.5h-38.3c-1,0-1.8-0.8-1.8-1.8v-72.2c0-1,0.8-1.8,1.8-1.8h38.3c1,0,1.8,0.8,1.8,1.8v72.2
			C1077.7,648.7,1076.9,649.5,1075.9,649.5z"/>
		<path class="st29" d="M1038.8,647.4v-65.6c0-2.8,2.3-5.1,5.1-5.1h31.8c0.6,0,1.2,0.1,1.8,0.3c-0.7-1.9-2.6-3.3-4.7-3.3h-31.8
			c-2.8,0-5.1,2.3-5.1,5.1v65.6c0,2.2,1.4,4,3.3,4.7C1038.9,648.6,1038.8,648,1038.8,647.4z"/>
		<path class="st24" d="M900,497.3l5.2,13.6h21.6c0,0-1.5,58.7-1.6,69.7c-0.1,11,9,86.9,9,86.9h12.5l-1.3-95.7l17.7-49.1
			c0,0,13.3,65.7,18.9,76.7c5.5,11,35.2,68.1,35.2,68.1h11.5l-29.4-125.8l-12.6-43.7l-63.7-29.8l-22.9,2.3"/>
	</g>
	<g>
		<polygon class="st13" points="468.9,546.1 458.9,650.3 557.7,650.3 548.1,545.9 		"/>
		<g>
			<g>
				<path class="st8" d="M486.2,555.6L486.2,555.6c0-1.7,1.7-3.1,3.7-3.1c0,0,0,0,0,0c2,0,3.7,1.4,3.7,3.1c0,1.7-1.7,3.1-3.7,3.1
					c0,0,0,0,0,0C487.8,558.7,486.2,557.3,486.2,555.6z M489.9,553.7c-1.4,0-2.5,0.9-2.5,1.9c0,1.1,1.1,1.9,2.5,1.9c0,0,0,0,0,0
					c1.4,0,2.5-0.9,2.5-1.9C492.4,554.5,491.2,553.7,489.9,553.7C489.9,553.7,489.9,553.7,489.9,553.7z M486.7,555.6L486.7,555.6
					L486.7,555.6z"/>
			</g>
			<g>
				<path class="st8" d="M523,555.5l0.6,0L523,555.5c0-0.7,0.3-1.5,0.9-2c0.7-0.7,1.7-1.1,2.8-1.1c0,0,0,0,0,0c2,0,3.7,1.4,3.7,3.1
					c0,0.9-0.4,1.7-1.1,2.3c-0.7,0.6-1.6,0.9-2.6,0.9c0,0,0,0,0,0C524.7,558.6,523,557.2,523,555.5z M526.7,553.6
					c-0.8,0-1.5,0.3-2,0.8c-0.2,0.2-0.5,0.6-0.5,1.2l0,0c0,1.1,1.1,1.9,2.5,1.9c0,0,0,0,0,0c0.7,0,1.3-0.2,1.8-0.6
					c0.4-0.4,0.7-0.8,0.7-1.3C529.2,554.4,528.1,553.6,526.7,553.6C526.7,553.6,526.7,553.6,526.7,553.6z"/>
			</g>
		</g>
		<g>
			<path class="st8" d="M507.2,578.4c0.3,0,0.7,0,1.1,0c6.8-0.2,11.9-2.4,15.3-6.5c5.6-6.7,4.4-16.1,4.3-16.5
				c-0.1-0.7-0.7-1.1-1.4-1c-0.7,0.1-1.1,0.7-1,1.4c0,0.1,1.2,8.8-3.8,14.7c-3,3.5-7.5,5.4-13.6,5.6c-5.9,0.2-10.2-1.3-13.1-4.6
				c-5.3-5.9-4-15.5-4-15.6c0.1-0.7-0.4-1.3-1-1.4c-0.6-0.1-1.3,0.4-1.4,1c-0.1,0.4-1.5,10.8,4.5,17.6
				C496.5,576.6,501.1,578.4,507.2,578.4z"/>
		</g>
	</g>
	<g>
		<g>
			<path class="st30" d="M371.7,311.2c3.8,6.6,0.5,15.6,4.4,22.2c1.5,2.6,4.2,4.7,4.9,7.7c0.6,2.5-0.3,5.3-2.4,6.9
				c-2,1.6-5,1.8-7.3,0.6c-0.5-0.3-1-0.6-1.5-0.7c-1.9-0.6-3.6,1.1-5.3,2.3c-2,1.4-4.6,2-6.9,1.2c-3-1-4.8-4-5.8-6.9
				c-2.8-8.3-0.8-17.4,1.8-25.7c1.3-4.2,3.2-8.8,7.3-10.3"/>
		</g>
		<path class="st31" d="M460.6,381.5c0.1,0.9,1.5,1.7,0.5,3.6c-2.1,4.3-8.5,10.3-16.3,7.5c-0.3,0.1-42.8,24.6-46,24.6
			c-3.3,0-25.5-21.1-32.8-47.1c-1.7-6.2-1.1-13.5,4.8-16.7c0,0,4.9,1.2,8,7.1c4.8,9.1,19.3,39.2,22.5,40.4c4-2.7,23.4-8.4,39.1-15.1
			c3.5-1.5,4.9-2.8,6.1-5.1c1.2-2.3,4.1-7.7,6.5-10.2c0.8-0.9,10.2-5.8,10.2-4.2c0,0.9-2.7,3.5-6.3,5.7c-1.8,1.2-2.7,3.3-3,4.2
			c-0.6,1.2,6.7-1,7.3,1.5C461.2,378.2,460.6,381,460.6,381.5z"/>
		<g>
			<path class="st32" d="M369.1,352.7c5.5,1.3,10,4.8,12.7,9.8c0.7,1.3,1.2,2.6,1.7,4c2.3,5.7,5.4,11,7.6,16.7
				c-3.1,2.5-6.8,3.6-10,4.8c-3,1.1-6.2,1.5-9.3,1.2c-0.5,0-1.1-0.1-1.6-0.3c-0.7-0.3-1.2-0.9-1.6-1.4c-1-1.1-1.9-2.2-2.8-3.4
				c-0.8-1-1.6-2-1.9-3.2c-0.4-1.7,0-3.4,0.4-5.1"/>
		</g>
		<g class="st10">
			<path class="st32" d="M374.6,368.4c-0.2-0.2-0.4-0.5-0.7-0.6c-0.6-0.2-1.2,0.1-1.5,0.7c-0.3,0.5-0.3,1.2-0.3,1.8
				c0,2.3,0.4,4.7,1.1,6.9l-0.7,12.1c0,0,0,0,0,0c2.9,0.2,5.9-0.2,8.7-1.3c1.3-0.5,2.7-1,4.2-1.6
				C383.8,379.6,379.1,373.8,374.6,368.4z"/>
		</g>
		<path class="st31" d="M355.8,340.7c0,0-0.2,7.6,1,8.1c2.3,1,4.9,1.5,4.9,1.5l0.1,15.7l-20.9-3.2l-14.4-8c0,0,15-5,15.1-6.5
			c0.1-1.5-0.8-9.9-0.8-9.9"/>
		<g>
			<path class="st31" d="M323.6,568C323.6,568,323.6,568,323.6,568c-5.7,27.2-3,64.6-4.3,85c0.3,0.1,7.8,1,7.8,1
				s17.7-86.2,20.9-102.7c0.2-1.2,0.4-2.2,0.4-3.2c0.8-12.4-10.4-13.1-16.7-2.8c-1,1.7-2,3.5-2.9,5.5c-0.4,0.8-0.7,1.6-1,2.5l0,0
				c-1,2.7-2,5.6-2.8,8.7l-0.1,0.3c-0.3,0.9-0.5,1.8-0.7,2.6l0,0.2C324,566.1,323.8,567,323.6,568z"/>
			<path class="st31" d="M357.2,470.5c-0.2,2.2-1.4,12.9-2.8,25.6c-1.2,10.6-2.6,22.6-3.6,32c-0.8,7.1-1.3,12.8-1.6,15.4
				c-0.1,1.6-0.3,3.1-0.6,4.6v0.1c-2.7,12.4-11.3,13.1-16.5,10.3c-0.7-0.4-1.4-0.9-2-1.3c-1.2-1.1-2-2.4-2.2-3.7v0
				c-0.3-2.5-0.7-6-1-10.2v-0.1c0,0,0,0,0-0.1l0-0.1c-0.6-8.1-1.2-18.4-1.6-28.5c-0.6-12.4-0.9-24.4-1-31.1c0-0.4,0-0.7-0.1-1.1
				c-0.1-20.7,18.9-33.9,30.7-27.5c0.1,0.1,0.3,0.1,0.4,0.2c0.2,0.1,0.3,0.2,0.4,0.3c1.3,0.9,1.8,4,1.8,7.5
				C357.5,465.3,357.4,468.1,357.2,470.5z"/>
			<path class="st31" d="M328.3,548.5l-1.4-5.4c0,0,0,0,0,0.1c0,1.2,0.2,10-1.8,18.9l-0.1,0.3c-0.2,0.9-0.4,1.8-0.7,2.6l0,0.2
				c-0.4,1.4-0.6,2.3-0.6,2.8c0,0,0,0,0,0.1c0,2.5,5.2-8.4,6.4-11c0.1-0.3,0.2-0.5,0.2-0.5l-1.4-5.7L328.3,548.5z"/>
		</g>
		<g>
			<path class="st31" d="M369.2,573.2C369.2,573.2,369.2,573.2,369.2,573.2c-0.5,28.5,8.2,62,10.6,82.6c0.3,0,7.2-0.9,7.2-0.9
				s1.3-87.2,1.4-104.4c0-1.2-0.1-2.3-0.2-3.3c-1.4-12.5-11.6-10.4-15.5,1.4c-0.7,1.9-1.2,4-1.7,6.2c-0.2,0.9-0.3,1.8-0.5,2.7l0,0
				c-0.5,2.9-0.8,6-1,9.3l0,0.3c-0.1,0.9-0.1,1.9-0.2,2.8l0,0.2C369.2,571.2,369.2,572.2,369.2,573.2z"/>
			<path class="st31" d="M375.1,561.6c-0.7-0.2-1.4-0.5-2-0.9c-1.3-0.8-2.2-1.9-2.6-3.1l0,0c-0.7-2.4-1.6-5.9-2.6-9.9c0,0,0,0,0-0.1
				l0-0.1c-1.9-7.8-4.2-18-6.3-27.9c-2.6-12.2-5-24-6.2-30.7c-0.1-0.4-1.1-5.2-1.2-5.6c-3.6-20.8,12.6-34.3,24.3-30.4
				c0.2,0.1,0.3,0.1,0.5,0.2c2.4,1,3,9.3,3.6,14.9c0.5,5.6,4.5,64,5.5,74.5c0.2,1.7,0.2,3.2,0.2,4.7
				C387.9,560.3,380.3,563.1,375.1,561.6z"/>
			<path class="st31" d="M370.1,552.6l-2.2-5c0,0,0,0,0,0.1c0.2,1.2,1.8,9.9,1.6,19.3l0,0.3c0,0.9-0.1,1.9-0.2,2.8l0,0.2
				c-0.1,1.5-0.1,2.5-0.1,2.9c0,0,0,0,0,0.1c0.4,2.4,3.3-9.7,3.9-12.5c0.1-0.4,0.1-0.6,0.1-0.6l-2.2-5.3L370.1,552.6z"/>
		</g>
		<path class="st33" d="M334,430.6c0,0-15.3,19.4-13.7,38.8c0.7,8.1,1.7,15.2,2.6,23.4c0.1,1.2,2,18.3,1.4,18.3c0,0,31.4,9.7,61.8-3
			c0-2.1,2.4-41.9-14-79.9C352.3,431,334,430.6,334,430.6z"/>
		<path class="st32" d="M381.7,385.8c-0.1,5.6-3.1,8.9-7.3,13.6c-0.5,0.8-1.9,13.2-2.3,21.4c-0.2,4.3,1.6,7,0,7.3
			c-6.1,5.3-28.1,9.6-38.1,2.4c1.1-8.9-3-28.7-5.7-38.7c-0.4-1.5-0.8-2.8-1.1-3.9c-2.5-7.6-7.1-32-3.7-33.1c0.7-0.2,1.7-0.5,2.9-0.9
			c5.3-1.6,13.1-4.3,13.1-4.3s4.6,13.5,16.4,15.1c6.5-2.7,5.9-10.9,5.8-14.6c2.1,0.6,3.1,1.2,9.6,3.1c1.8,2.7,0.3,8.2,3.2,16.5
			C375.3,371.9,381.9,379.1,381.7,385.8z"/>
		<path class="st31" d="M371,309.7c0,0,1.2,14.7-1.3,22.4c-1.9,5.7-9.5,11-15.8,10.9c-17.5,0-20.7-23.8-20.6-25
			c0.1-1.2,25.8-11.1,25.8-11.1L371,309.7z"/>
		<path class="st34" d="M372.8,454.4"/>
		<g>
			<path class="st30" d="M404.3,664c-6.2,1.1-12.9-0.6-15.6-0.2c-2.3,0.4-8.1,1.9-10.2-0.1s-1.8-8.8,0.7-9.8c0,0,0.6,0.2,1.6,0.4
				c1.6,0.2,4.1,0.3,7.4-0.6c4.7,2,4.9,2.8,10.3,3.9c2.3,0.5,5.1,1.3,6.9,2.1C407.7,660.9,407.8,663.4,404.3,664z"/>
		</g>
		<g>
			<path class="st30" d="M337,666.8c-6.2-1.1-10.2-4.5-12.9-5c-2.3-0.4-7.9-1.5-8.5-3.8c-0.4-1.7,1.3-8.9,3.9-9c0,0,0.5,0.4,1.4,0.9
				c1.4,0.7,3.8,1.7,7.2,1.9c3.8,3.4,3.7,4.3,8.4,7.2c2,1.2,4.4,2.9,5.8,4.3C344,665.1,340.5,667.4,337,666.8z"/>
		</g>
		<g>
			<path class="st31" d="M245.9,375.3l5.7-6.8l35,31.3c0,0,17.1-22.8,21.8-29.9c5.2-7.8,9.8-14.5,17.4-15.8
				c1.7,1.1-0.6,29.1-1.5,29.8c-10.6,7.9-31.1,33.4-37.7,34.7C279.2,420.2,245.9,375.3,245.9,375.3z"/>
			<path class="st32" d="M328.5,352.9c0,0-7.2,0.1-10.2,2.6c-3.1,2.5-17.8,25.8-17.8,25.8s-0.4,4.4,3.9,8.1
				c4.5,3.9,10.6,4.6,10.6,4.6s7.4-7.3,11.5-10.7c2.6-2.1,2.8,3.1,2.8,3.1l13-12.7L328.5,352.9z"/>
		</g>
		<g>
			<path class="st30" d="M324.1,353.2c-0.4-0.2-0.8-0.4-1.1-0.7c-2-1.2-3.9-2.5-4.7-4.7c-1.2-3.3-1.8-8.3-0.1-11.5
				c1.2-2.2,3.3-3.6,4.8-5.5c2.1-2.7,2.7-6.2,2.8-9.6c0.2-3.4,0-6.8,0.7-10.1c1.2-5.7,2.8-11,7.2-14.7c7-5.8,21-9.3,28.6-2.8
				c1.4,1.2,1.7,2.1,3.5,2.3c2.5,0.2,4.1,0.6,6.4,1.9c2.5,1.4,5.5,3.5,5.2,6.8c-0.2,2.3-2.8,5.9-4.8,6.9c-0.8,0.4-1.8,0.6-2.7,0.6
				c-3,0.1-5.4-1.9-8.3-1.6c-1.4,0.2-2.8,0.9-3.7,2c-1,1.3-0.9,3.1-2.1,4.3c-2,1.9-5,1.8-7.3,3c-0.4,0.2-0.8,0.4-1,0.8
				c-0.2,0.4-0.2,0.8-0.3,1.2c0,1.2-0.1,2.5-0.1,3.7c-1.2-0.5-1.3-2.2-2.2-3c-0.9-0.8-2.4-0.6-3.3,0.2c-0.9,0.8-1.4,2-1.6,3.2
				c-0.3,1.4,0.2,3,0.6,4.4c0.8,2.5,2.9,4.7,4.6,3.1c1.3,1.8-0.1,4.9-0.2,7c0,1.7,0,4.9,1.5,6c1.4,1,3.7,0.2,3.8,2.8
				c0.1,2.4-2.3,4.2-4.6,4.5c-2.3,0.3-4.7-0.5-6.9-1.2c-2.3-0.7-4.7-1.2-6.9-0.3c-1.3,0.5-2.5,1.5-3.9,1.8
				C326.6,354.3,325.3,353.9,324.1,353.2z"/>
		</g>
		<g>
			<path class="st31" d="M260.5,376.5c0,0-8.2-6.6-8.8-8.4c-0.6-1.8-0.7-3.7-1.4-5.5c-1-2.6-3.2-4.6-5.7-5.7
				c-2.1-0.8-1.1-1.5-3.3-1.1c-3.3,0.6-4.9,3.9-6.3,6.5c-5.7,10.9,9.9,13,10.4,13c1.1,0,6.9,6.6,6.9,6.6"/>
		</g>
		<g>
			<path class="st35" d="M234.5,371.2l5.6,3.8c0.7,0.5,1.7,0.3,2.2-0.5l12.4-20.7l-7.3-4.1l-13.3,19.4
				C233.6,369.8,233.8,370.7,234.5,371.2z"/>
			<g>
				<path class="st36" d="M214.4,327.2l1.9,1.3l7.8-11.4l-1.9-1.3c-2.8-1.9-6.8-0.8-8.9,2.3l0,0
					C211.1,321.2,211.6,325.3,214.4,327.2z"/>
				<polygon class="st36" points="207.2,341.1 243.3,346.6 251.5,334.6 233.3,303.1 				"/>
				<polygon class="st37" points="209.5,341.6 243.3,346.6 246.6,341.8 218.2,329 				"/>
				<path class="st36" d="M258.1,355.3L258.1,355.3c1.9,1.3,4.7,0.6,6.2-1.6l1.5-2.1c1.5-2.2,1.2-5.1-0.8-6.4l0,0
					c-1.9-1.3-4.7-0.6-6.2,1.6l-1.5,2.1C255.9,351.2,256.2,354,258.1,355.3z"/>
				<path class="st37" d="M258.8,346.8l-1.5,2.1c-1.5,2.2-1.2,5.1,0.8,6.4c1.9,1.3,4.7,0.6,6.2-1.6l1.5-2.1c0.1-0.2,0.2-0.3,0.3-0.5
					c-1.6,1.8-4.1,2.4-5.9,1.1s-2.2-3.8-1.1-5.9C259.1,346.5,259,346.7,258.8,346.8z"/>
				<path class="st23" d="M206,342.3L206,342.3c1.1,0.8,2.8,0.3,3.7-0.9l24.7-36.1c0.9-1.3,0.7-3-0.4-3.7l0,0
					c-1.1-0.8-2.8-0.3-3.7,0.9l-24.7,36.1C204.7,339.9,204.9,341.5,206,342.3z"/>
				<path class="st35" d="M234.6,302.2l-20.6,30c-0.9,1.3-2.5,1.7-3.7,0.9c-0.3-0.2-0.5-0.4-0.6-0.7l-4.1,6c-0.9,1.3-0.7,3,0.4,3.7
					c1.1,0.8,2.8,0.3,3.7-0.9l24.7-36.1C235.1,304.3,235.2,303.1,234.6,302.2z"/>
				<path class="st23" d="M246.5,352.9l2.3,1.6c3.4,2.3,8.4,1.1,11.1-2.9l2.3-3.4c2.7-3.9,2.1-9-1.3-11.4l-2.3-1.6
					c-3.4-2.3-8.4-1.1-11.1,2.9l-2.3,3.4C242.4,345.5,243,350.6,246.5,352.9z"/>
				<path class="st35" d="M245.3,341.3l-3.5,5.1c-0.9,1.2-0.7,2.9,0.4,3.6l10.9,7.4c1.1,0.7,2.7,0.3,3.5-0.9l3.5-5.1
					c-0.9,1.2-2.4,1.7-3.5,0.9l-10.9-7.4C244.6,344.2,244.4,342.6,245.3,341.3z"/>
			</g>
		</g>
		<g>
			<path class="st31" d="M235.7,366c-0.4-3.2,0.3-6.2,2-8.5c0.6-0.8,1.3-1.5,2-2.2c0.3-0.3,0.7-0.7,1.2-0.8c0.8-0.2,1.8,0.1,2.6,0.6
				c0.9,0.5,1.8,1.3,2.2,2.1c0.6,1.5-0.4,2.7-1.6,3.4c-0.1,0.1-0.2,0.2-0.3,0.3c-0.1,0.2,0.1,0.4,0.2,0.7c0.5,0.9,0.9,1.9,0.8,2.8
				c-0.1,0.9-0.9,1.6-1.9,1.4c-0.4-0.1-1-0.2-1.1,0.1c0,0.1,0,0.2,0,0.4c0.1,0.9-0.1,1.8-0.7,2.4c-0.1,0.2-0.3,0.3-0.5,0.3
				c-0.2,0-0.4,0-0.5-0.1c-0.7-0.2-1.3-0.5-1.9-0.9"/>
		</g>
		<g>
			<path class="st31" d="M251.7,368.5c-0.2-1.2-0.6-3.2-0.7-4.4c-0.1-3.3-1.9-6.6-4.8-8.3c-0.2-0.1-0.5-0.3-0.8-0.2
				c-0.3,0.1-0.6,0.4-0.6,0.7s0,0.7,0.2,1c0.3,1,1.8,3,1.4,4.1c-0.7,1.6-1.2,3.4-1.2,5.1c0.1,1.6,0.8,4.1,2.6,4.4"/>
		</g>
		<line class="st38" x1="209.8" y1="285.6" x2="217.1" y2="302.7"/>
		<line class="st38" x1="194.7" y1="300.8" x2="209.6" y2="312"/>
		<line class="st38" x1="185.1" y1="321.6" x2="203.6" y2="323.4"/>
	</g>
	<g>
		<g>
			<path class="st31" d="M777.8,141.5c0,0-6.6-4.7-6.9-6.7c-0.2-2-4.9-9.9-6.4-11.5c-1.5-1.6-9.3-4.3-10.9-4.5
				c-1.7-0.2-11.2,0.6-10,1.9c1.2,1.3,7.4,0.8,8.5,1.5c1.2,0.7,1.2,0.7,1.2,0.7s-1.2,1.6-0.7,2.6c0.5,1-2,2.5-1.1,4.1
				c0.9,1.7-0.4,1.5,0.5,3.3c1.4,2.9,5,4.5,5.9,3.7c0.7,1.7,3.4,5.2,6,4.9c2.6-0.2,8.8,5.6,8.8,5.6"/>
			<g>
				<path class="st31" d="M879.1,108.1c0.2,4.5-0.1,12.2,1.2,13.4c1.3,1.2,5.4,1,5.4,1s-14.7,18.6-16.1,17.6
					c-1.3-1-18.8-15.2-14.8-16c3.9-0.7,7.8-0.6,7.6-2.6c-0.1-2-0.2-4.1-0.3-6.1"/>
			</g>
			<path class="st13" d="M896,207.7c0,0-28.8,3.3-35.4,3.4c-6.6,0.1-6.3-3.3-6.3-3.3c-0.3-7.3-1.6-24.5-2.9-30.3
				c-1.3-5.4-1.8-7.4-3-12.6c-2.5-11.5-2.4-13.7-5-27.8l17.2-13.8c0,0,1.8,5.3,9,5.4c9.6,0.1,12.6-6.6,12.6-6.6l23.4,15.6l2.2,37.9
				l-2.8,31.2"/>
			<g>
				<path class="st31" d="M879.5,104.1c-0.5,2.2-1.2,4.5-2,6.6c-1.5,3.9-3.8,5.4-7.9,5.5c-2.9,0.1-5.9,0.1-8.8,0.2
					c-2.3,0.1-5.1,0.1-6.9-1.5c-1.8-1.6-1.8-4.2-2.2-6.4c-0.5-2.8-0.9-5.6-1.3-8.4c-0.6-5.5-0.9-11-0.8-16.6c0-0.8,0-1.5,0.2-2.3
					c0.1-0.3,0.2-0.6,0.4-0.8c0.3-0.3,0.7-0.3,1.1-0.4c5.5-0.9,11.1-1.2,16.7-1.1c3.9,0.1,8.1,0.6,11.2,3c3.1,2.4,4.6,6.4,6,10.1
					c0.2,0.6,0.4,1.4-0.1,1.8"/>
			</g>
			<g>
				<g>
					<path class="st39" d="M814.9,310.3c0,0,1,5.7,1.7,7.7c0.8,2,7.2,0.2,7.6-1.1c0.4-1.3-2-10.6-2-10.6"/>
					<path class="st40" d="M826.5,318.5c0.6,2.1,1.3,6.2,1.3,6.2l-6.4,2.8l-1.1-1c0,0-1.6,1.9-3.6,2.8c-1.5,0.7-4.6,1.5-6.2,1.7
						c-5.6,0.6-9.7-0.4-10.1-1.2c-1.4-3.2,6-4.1,7.5-4.5c4.2-1.1,6.6-4.7,7-7.1c0.3-1.7-0.1-2,0.9-1.9c0,0,0.8,0,1.6,0.8
						c1.2,1.2,3,1.8,4.6,1.1c0.9-0.4,1.8-1,2.3-1.9C824.3,316.2,825.9,316.4,826.5,318.5z"/>
				</g>
				<g>
					<g>
						<path class="st41" d="M843.3,235.5c-10,2-22.6,2.1-32.8,0.8c1.4,4.1,4.9,9.3,6.2,15c4.4,18.9,5.9,44.3,7,60c0,0-2.1,4-8.8,1
							c-10-24.8-27.6-75.1-27.4-86c0.2-13.9,34.9-17.2,60.3-20.7"/>
					</g>
					<g>
						<path class="st40" d="M887.6,207.7c8,5.8-44.3,27.8-44.3,27.8c-5.8,1.1-11.4,1.7-17.1,1.6c-0.5-1-1-2.1-1.3-3.2
							c-0.3-1.5-0.1-3.1-0.4-4.6c-0.5-3-2.6-5.5-5.2-7c-2.6-1.6-5.6-2.3-8.5-2.8c-7.1-1.1-19.4-0.3-19.4-0.3
							c15.7-11.6,47.9-13.1,62.8-14C857,209.8,886.4,206.9,887.6,207.7z"/>
					</g>
				</g>
				<g>
					<path class="st39" d="M831.5,323.5c0,0-0.1,5.8,0.4,7.9c0.4,2.1,7,1.4,7.7,0.2s-0.2-10.8-0.2-10.8"/>
					<path class="st40" d="M841.5,333.6c0.2,2.2,0.2,6.3,0.2,6.3l-6.8,1.6l-0.9-1.2c0,0-1.9,1.6-4,2.2c-1.6,0.4-4.8,0.7-6.4,0.6
						c-5.6-0.4-9.5-2.1-9.7-3c-0.8-3.4,6.7-3,8.2-3.1c4.4-0.4,7.3-3.5,8.2-5.7c0.6-1.6,0.3-2,1.2-1.8c0,0,0.8,0.1,1.4,1
						c1,1.4,2.6,2.3,4.3,1.8c1-0.2,1.9-0.7,2.6-1.5C839.7,330.9,841.3,331.4,841.5,333.6z"/>
				</g>
				<g>
					<path class="st41" d="M905,206.6c0,0-16,1.6-35.4,1.1c-4.5,0-38.7,6.4-42,12.2c-5.4,9.5,3.5,65.3,2.7,105.1
						c0,0,4.1,3.4,11.4,0.2c1.8-19.6,13.4-65.8,5.4-87.4c18.9,2.5,34.1,5,51.2-0.7c4-1.3,7-4.2,8.8-9.4
						C908.9,222.6,907.9,211.2,905,206.6z"/>
				</g>
			</g>
			<g>
				<path class="st13" d="M860.6,123.2c0,0-4.1,0.2-4.9,0.3c-3.4,0.3-6.9,0.7-10.2,1.9c-4.7,1.7-8,6.1-11.7,9.5
					c-3.7,3.3-22.6,21.3-26.1,22c-3.5,0.7-34.5-20.6-34.5-20.6l-7.6,7.6c0,0,33.6,31.1,43.7,31.1c4.9,0,31.7-14.1,40.3-19.6
					L860.6,123.2z"/>
				<path class="st42" d="M809.3,169c-6.9,0.4-38.6-23.8-42.3-26.6l-1.5,1.5c0,0,33.6,31.1,43.7,31.1c4.1,0,23.4-9.8,34.7-16.2
					l2.9-1.7l-1.8-10.4C845,146.6,816.6,168.6,809.3,169z"/>
			</g>
			<g>
				<path class="st23" d="M777,212.8h77l-13.8-45c-0.8-2.5-3.1-4.2-5.7-4.2h-67.4c-2.6,0-4.4,2.5-3.7,5L777,212.8z"/>
				<path class="st43" d="M776,212.8h75.8l-13.8-45c-0.8-2.5-3.1-4.2-5.7-4.2H765c-2.6,0-4.4,2.5-3.7,5l13.2,43.1
					C774.7,212.3,775.4,212.8,776,212.8z"/>
			</g>
			<g class="st12">
				<path class="st44" d="M894.4,144.9c-3.8,17.3-4.5,30.9-5.6,43.3c-13.5,5.2-18.9,13-32.1,18.9c0,0-10.4-1.7-11.5,2.2
					c-0.6,2.3,12.2,4.1,12.2,4.1c12.2,0.1,44.4-8.9,46.6-9.5c2.2-0.6,8.5-41.5,8.8-63.7c0-3.2-0.1-6.6-2-9c-1-1.3-2.5-2.2-4-2.9
					c-8.6-4.4-14.9-5.6-24.6-6.2"/>
			</g>
			<g>
				<path class="st31" d="M858.6,209.7c-1.4-1.8-4.1-2.1-6.4-2c-1.7,0-3.4,0.2-5.1,0.4c-0.8,0.1-1.7,0.3-1.8,1.1
					c-0.1,0.8,3.8,0,5.8,0.6c-4,0.3-7.9,0.4-11.9,0.3c-0.5,0-0.9,0-1.4,0.1c-0.4,0.2-0.8,0.6-0.8,1c0,0.4,0.3,0.7,0.5,0.9
					c1.1,1,2.6,1.4,4.1,1.6c6.1,1.1,12.5,0.9,18.1-1.6"/>
			</g>
			<g>
				<path class="st13" d="M893.6,144.6c-0.3,18.5-1.6,27-1.3,45.5c-9.3,2-22.2,12.5-35.3,18.4c0,0-0.8,2.6,0.4,4.8
					c1,0.4,44.4-10.2,47.9-13.4c3.1-2.9,7.2-37.6,7.5-59.8c0-3.2-0.1-6.6-2-9c-1-1.3-2.5-2.2-4-2.9c-8.6-4.4-14.9-5.6-24.6-6.2"/>
			</g>
			<g>
				<path class="st45" d="M815.2,189c0.3,3.9-4.4,7.1-10.4,7.1c-6,0-11.1-3.2-11.4-7.1c-0.3-3.9,4.4-7.1,10.4-7.1
					C809.8,181.8,814.9,185,815.2,189z"/>
				
					<ellipse transform="matrix(3.895856e-02 -0.9992 0.9992 3.895856e-02 584.1207 985.2407)" class="st23" cx="804.3" cy="189" rx="4" ry="6.9"/>
			</g>
		</g>
		<path class="st46" d="M865.9,92.2c-0.1-0.7-1.7-0.8-3.2-0.6c-1.5,0.2-5.7,0.7-6.5,1.4c-0.8,0.7-0.8,1.1-1.2,1.2
			c-0.4,0-0.5-0.4-1.5-0.8c-1-0.4-3.4-0.1-4.9,0.1c-1.5,0.2-3,0.5-3,1.2c0,0.7,0.3,1.9,0.6,2.1c0.3,0.2,0.3,0.2,1.5,3
			c0.7,1.6,1.7,2.5,3.7,2c2.5-0.6,2.7-3.4,2.9-4.7c0.2-1.2,0.4-1.4,0.8-1.4c0.4-0.1,0.7,0.1,1.1,1.2s0.8,3.7,3.4,3.9
			c3.4,0.2,4.9-1,5.4-3.2c0.6-3,0.5-3,0.8-3.2c0.1-0.1,2.5,0.2,2.5,0.2l-0.1-0.9C868.3,93.6,865.9,92.4,865.9,92.2z M853.5,98.2
			c-0.1,1.5-0.8,2.9-2.5,3.1c-1.6,0.2-2.3-0.6-3.1-2.6c-0.7-1.7-0.8-3.1-0.5-3.6c0.3-0.5,1.1-0.5,3-0.6c1.9-0.1,2.6-0.2,2.9,0.7
			C853.5,95.5,853.6,96.7,853.5,98.2z M864.6,96.6c-0.3,2.1-1.1,3.2-3.3,3.4c-3,0.4-3.6-0.8-4.1-2.3c-0.4-1.4-0.6-2.7-0.6-3
			c0.1-0.9,0.7-1,2.6-1.4c1.9-0.4,4.5-0.8,4.8-0.4C864.6,93.3,864.9,94.7,864.6,96.6z"/>
		<g>
			<path class="st46" d="M886.5,87.5c-0.2-1.6-0.5-3.1-0.8-4.6c-1-4-3.5-7.4-7.1-9.3c-4.6-2.5-11-3-16.1-1.6c-2.9,0.8-4,2.4-5.6,2.3
				c-1.2,0-2.6-0.8-4.1-1.4c-11.5-4.1-9.6,7.1-8.4,10.2c0.5,1.4,3.2,2.4,3.5,2.9c0.3,0.6,0.3,3.4,0.5,4.6c0.2,1.2,1.4,1.7,1.4,1.7
				s0.1-3.6,0.1-4.1c0.2-1.3,0.6-2.6,1.7-3.4c1.2-0.8,2.8-0.9,4.1-1.2c1.4-0.2,8,1,8.5,1.4c2.1,1.8,2.7,6.1,3.3,8.5
				c0.3,1.2,0.6,1.9,1,1.9c0.4-3.4,1.5-3.5,3.6-2.3c1.1,0.6,1.7,2.8,1.7,4.6c0,2.2-1.2,4.5-3.4,5c-0.8,0.2,1.6,4.8,2.8,6
				c0.4,0.4,0.7,0.8,1.2,1.1c0.4,0.3,0.9,0.4,1.4,0.5c0.5,0.1,1.1,0.3,1.6,0.4c0.7,0.2,1.5,0.4,2.3,0.2c1.2-0.3,1.9-1.6,2.4-2.8
				c0.9-1.9,1.9-3.7,2.7-5.6C886.6,98.1,887.1,92.6,886.5,87.5z"/>
		</g>
	</g>
	<g>
		<path class="st47" d="M1094,258.1H948.2l17.5-12.9v-63c0-5.3,4.3-9.5,9.5-9.5H1094c5.3,0,9.5,4.3,9.5,9.5v66.4
			C1103.5,253.9,1099.2,258.1,1094,258.1z"/>
		<g>
			<rect x="1024.2" y="185" class="st48" width="66.6" height="6.4"/>
			<rect x="1024.2" y="194.5" class="st48" width="66.6" height="6.4"/>
			<rect x="1024.2" y="204" class="st48" width="66.6" height="6.4"/>
			<rect x="1024.2" y="213.3" class="st48" width="66.6" height="6.4"/>
			<rect x="1024.2" y="224.4" class="st48" width="46.4" height="6.4"/>
			<g>
				<path class="st49" d="M1015.6,233.9h-35.1c-1.9,0-3.4-1.5-3.4-3.4v-42.1c0-1.9,1.5-3.4,3.4-3.4h35.1c1.9,0,3.4,1.5,3.4,3.4v42.1
					C1019,232.4,1017.5,233.9,1015.6,233.9z"/>
				<rect x="977.1" y="240" class="st48" width="41.8" height="5.3"/>
				<g>
					<path class="st11" d="M1002.2,216.7H987c-0.9,0-1.6-0.6-1.8-1.4l-2.9-10.8c-0.3-1.2,0.6-2.4,1.8-2.4h21c1.2,0,2.2,1.2,1.8,2.4
						l-2.9,10.8C1003.8,216.1,1003,216.7,1002.2,216.7z"/>
					<g>
						<path class="st11" d="M1004.9,219.1h-18.3c-0.2,0-0.4-0.2-0.4-0.4c0-0.2,0.2-0.4,0.4-0.4h18l6.4-22.2c0-0.2,0.2-0.3,0.4-0.3h4
							c0.2,0,0.4,0.2,0.4,0.4c0,0.2-0.2,0.4-0.4,0.4h-3.7l-6.4,22.2C1005.2,219,1005,219.1,1004.9,219.1z"/>
					</g>
					<g>
						<path class="st11" d="M989.4,222.1c0,1.2-1,2.2-2.2,2.2c-1.2,0-2.2-1-2.2-2.2c0-1.2,1-2.2,2.2-2.2
							C988.4,219.9,989.4,220.9,989.4,222.1z"/>
						<circle class="st11" cx="1003.2" cy="222.1" r="2.2"/>
					</g>
				</g>
			</g>
		</g>
	</g>
	<g>
		<path class="st47" d="M552.6,170.1h185.7L716,153.7V52.1c0-6.7-5.4-12.1-12.1-12.1H552.6c-6.7,0-12.1,5.4-12.1,12.1V158
			C540.4,164.7,545.9,170.1,552.6,170.1z"/>
		<g>
			<g class="st27">
				
					<rect x="556.6" y="58.8" transform="matrix(-1 -1.224647e-16 1.224647e-16 -1 1197.9774 125.6642)" class="st11" width="84.9" height="8.1"/>
				
					<rect x="556.6" y="70.9" transform="matrix(-1 -1.224647e-16 1.224647e-16 -1 1197.9774 149.9232)" class="st11" width="84.9" height="8.1"/>
				
					<rect x="556.6" y="83" transform="matrix(-1 -1.224647e-16 1.224647e-16 -1 1197.9774 174.1826)" class="st11" width="84.9" height="8.1"/>
				
					<rect x="556.6" y="94.9" transform="matrix(-1 -1.224647e-16 1.224647e-16 -1 1197.9774 197.8202)" class="st11" width="84.9" height="8.1"/>
				
					<rect x="556.6" y="106.7" transform="matrix(-1 -1.224647e-16 1.224647e-16 -1 1197.9774 221.4578)" class="st11" width="84.9" height="8.1"/>
				
					<rect x="556.6" y="128.1" transform="matrix(-1 -1.224647e-16 1.224647e-16 -1 1197.9774 264.4106)" class="st11" width="84.9" height="8.1"/>
				
					<rect x="556.6" y="140.9" transform="matrix(-1 -1.224647e-16 1.224647e-16 -1 1257.9468 289.9885)" class="st11" width="144.8" height="8.1"/>
			</g>
			<g>
				<path class="st36" d="M652.4,121.1h44.7c2.4,0,4.3-1.9,4.3-4.3V63.1c0-2.4-1.9-4.3-4.3-4.3h-44.7c-2.4,0-4.3,1.9-4.3,4.3v53.7
					C648.1,119.2,650,121.1,652.4,121.1z"/>
				
					<rect x="648.1" y="128.9" transform="matrix(-1 -1.224647e-16 1.224647e-16 -1 1349.4691 264.4106)" class="st48" width="53.3" height="6.7"/>
				<g>
					<path class="st11" d="M669.5,99.2h19.3c1.1,0,2-0.7,2.3-1.8l3.7-13.7c0.4-1.5-0.7-3-2.3-3h-26.8c-1.6,0-2.7,1.5-2.3,3l3.7,13.7
						C667.4,98.5,668.4,99.2,669.5,99.2z"/>
					<g>
						<path class="st11" d="M666.1,102.3h23.3c0.3,0,0.5-0.2,0.5-0.5c0-0.3-0.2-0.5-0.5-0.5h-22.9l-8.1-28.3
							c-0.1-0.2-0.2-0.3-0.5-0.3h-5.1c-0.3,0-0.5,0.2-0.5,0.5s0.2,0.5,0.5,0.5h4.7l8.1,28.3C665.7,102.2,665.9,102.3,666.1,102.3z"
							/>
					</g>
					<g>
						<path class="st11" d="M685.8,106.1c0,1.6,1.3,2.8,2.8,2.8c1.6,0,2.8-1.3,2.8-2.8c0-1.6-1.3-2.8-2.8-2.8
							C687.1,103.3,685.8,104.5,685.8,106.1z"/>
						<path class="st11" d="M665.3,106.1c0,1.6,1.3,2.8,2.8,2.8c1.6,0,2.8-1.3,2.8-2.8c0-1.6-1.3-2.8-2.8-2.8
							C666.6,103.3,665.3,104.5,665.3,106.1z"/>
					</g>
				</g>
			</g>
		</g>
	</g>
	<g>
		<ellipse class="st0" cx="982" cy="696.2" rx="81.8" ry="8.6"/>
		<path class="st5" d="M938.1,684c-0.7,1.3-4,4.4-8.5,6.5c-4.6,2-14.2,3-8.9,4.8c5.4,1.8,11.6,0.7,14.8,0.2c3.2-0.5,6.2-0.6,10-0.6
			c4.9,0,5-0.3,4.3-5.9C948.9,681.3,940.3,679.7,938.1,684z"/>
		<path class="st5" d="M1027.4,681.2c-0.3,1.5,1.9,6.2-2,9.7c-3.9,3.4-12.8,7-6.9,7.2c5.9,0.1,11.6-1.2,14.6-2.7
			c3-1.5,0.6-3.8,4.3-5c4.9-1.5,3.9-5.2,1.3-7.4C1035.5,675.6,1028.3,676.2,1027.4,681.2z"/>
		<path class="st7" d="M1008.6,525.5c0,0,11.8-34.5-21.6-63c0,0-17.9,7.1-32.2,8c-11.3,0.7-17-0.4-17-0.4s-0.9,30.7-1,47.2
			L1008.6,525.5z"/>
		<path class="st7" d="M934.2,582.8c-0.6-15.4,16.1-13.4,22.3-1.9c12.8,23.9-4.7,78.8-7,104.9c-2.4,0.9-6.4,1.7-8.8,0.6
			c-1.7-0.8-2.6-2.8-2.6-2.8C938.4,651.6,934.9,599.4,934.2,582.8z"/>
		<path class="st7" d="M955.9,585.2c-1.9,6.3-23.3,12.9-21.6-10c0.8-10.2,2.8-66.4,3.2-71.8c0.4-5.4,1.3-13.3,3.9-14.3
			c13.1-4.9,36.3,12.2,32.8,32.5C972,535.1,959.9,572.1,955.9,585.2z"/>
		<path class="st7" d="M989.5,593.9c-5.2-14.6,11.6-17.1,21.1-8.2c22.3,21,23.2,70.5,28.6,96.1c-3.1,2.1-8,2.9-9.7,2.8
			c-1.8-0.1-2.7-1.4-2.7-1.4C1017.9,652.7,995.1,609.5,989.5,593.9z"/>
		<path class="st7" d="M1011.6,589.2c0.6,6.6-17.2,20.1-24.3-1.8c-3.1-9.7-16.4-67.2-18.1-72.4c-1.7-5.2-1.2-15.8,0.8-17.7
			c10.3-9.5,33.5-1.1,37.9,19C1011,529.8,1010.4,575.6,1011.6,589.2z"/>
		<g>
			<g>
				<path class="st50" d="M919.8,337.6c0.6-0.6,1.2-1.3,1.8-2c4.2-5.4,4.8-10.2,8.8-16.5c0.6-0.9,1.3-3.3,2.8-5.4
					c1.6-2.2,5.4-4.7,6.3-5.2c1.8-1,0.3,3.1,0.3,3.1s1.6-2.3,3.1-2.1c0.6,0.1,0.7,3.5,0.7,4.1c0.1,4.7-1,9.5-3.2,13.6
					c-0.5,1-1.1,2-1.1,3.1c1.4,0,2.6-1,3.7-1.8c1.1-0.8,2.5-1.6,3.9-1.1c-0.2,0.6-0.5,1.1-0.7,1.6c-1.7,3.1-3.5,6.5-6.7,8
					c-1.9,0.9-4.1,1.1-6,2.1c-3.4,1.8-5,6-8.5,7.7"/>
			</g>
			<path class="st51" d="M941,339.2l-12.3-5.1c-0.3-0.1-0.5-0.5-0.3-0.8l9.9-23.6c0.1-0.3,0.5-0.5,0.8-0.3l12.3,5.1
				c0.3,0.1,0.5,0.5,0.3,0.8l-9.9,23.6C941.7,339.2,941.3,339.4,941,339.2z"/>
			
				<rect x="934.3" y="312.4" transform="matrix(0.9226 0.3859 -0.3859 0.9226 198.0197 -337.749)" class="st52" width="12.2" height="24"/>
			<path class="st43" d="M950.7,359.4c0,0-8.6,0.4-16.3,2.8c-11.6,3.5-15.6,8.9-19.6,11.1c7.8-9.9,16.5-30.9,16.5-30.9
				s-10.5-8.6-11.7-6.6c-1.2,2-45.2,53.5-43.8,61.8c0.6,3.4,5.7,6.8,10.2,6.7c12.5-0.4,26.9-5,42.1-9.9c6.7-2.2,8.7,2.5,8.7,2.5"/>
			<path class="st53" d="M914.7,373.3c0,0-5.5,11.2-7.2,11.9c-1.7,0.7,4-2.3,7.2-5.5c3.1-3.2,7.4-11.7,7.4-11.7
				C920.5,368.6,914.7,373.3,914.7,373.3z"/>
			<g>
				<path class="st50" d="M932.1,319.2c0.5,0.4,0.7,1.1,0.8,1.8c0.4,2.5,0.7,5.1-0.2,7.4c-0.6,1.5-1.8,2.7-3,3.8
					c-1.4,1.2-2.9,2.2-4.5,3.1"/>
			</g>
			<g>
				<path class="st54" d="M950.9,300.6c-2.9,0.8-4.5,4.6-5.5,7.2c-1.2,3.1-1.8,6.4-2.2,9.8c-0.3,2.3-0.4,4.7,0.5,6.9
					c0.5,1.1,1.2,2,1.9,3c0.4,0.5,0.8,1.1,1.4,1.5c0.6,0.4,1.3,0.6,1.9,0.3c0.9-0.4,1.3-1.4,1.5-2.4c1.7-6.2,3.5-12.4,7-17.8"/>
			</g>
			<g>
				<path class="st50" d="M947.7,320.1c-0.1-2-2.1-3.2-3.9-1.2c-1.5,1.7-1.9,4.9-2,7.2c-0.1,2.8,2.1,3.4,3.9,3.8"/>
			</g>
			<path class="st43" d="M928.1,369.5c3.6-4.2,15.1-11,30.5-10.5c10.6,0.3,39.4,2.1,42.7,9.2c1.6,3.6,3.4,40.7,1,53.5
				c-1.8,9.6-6.5,33.4-6.5,39.2c0,5.7,3.1,8.2,1.6,9.9c-3.2,3.7-25.3,5.3-35.7,5.3c-9.2,0-24.9-2.5-25.7-5.4
				c-1.2-4.4,1.8-4.2,2.2-8.8c0.4-4.6,1.6-34.4-0.1-39.3c-3.1-8.8-4.5-23.2-7-29.7C929.3,387.8,924.5,373.7,928.1,369.5z"/>
			<path class="st53" d="M994.1,399.6c1.1,2.3,8.6,14.3,8.6,14.3l0.3,1.4c-0.2,2.5-0.4,4.7-0.8,6.4c-1.8,9.6-6.5,33.4-6.5,39.2
				c0,5.7,3,8.1,1.6,9.9c-2.5,3.4-44.2,11.2-42.1,1.6c0.2-0.9,34.9-27.4,35.1-28.3c1.6-7.6,3-13.1,3.7-18.6
				C995.8,412.1,993,397.3,994.1,399.6z"/>
			<path class="st55" d="M950.2,345.8c0,0-0.1,12.1-0.6,12.6c-0.5,0.5-2.9,1.6-2.9,1.6s1.7,10.5,4.3,9.7c2.6-0.8,20-9.5,20-9.5
				s-2.5-1-2.5-2c0-1,2.3-19.9,2.3-19.9"/>
			<path class="st55" d="M962.2,301.9c-2.5,0.7-9.2-0.7-11,2.1c-1.8,2.8-3.4,9.4-4.1,11.3c-1.4,3.7-2.3,7.6-3.3,11.3
				c-1.3,4.9-3.4,13.9,1.4,18c1.4,1.2,2,1.6,3.7,1.9c2.3,0.4,4.5,0.9,6.8,1.3c3.5,0.6,7.4,1.4,10.9,0.2c4.7-1.5,7.3-8,8.5-12.3
				l6.9-25.1L962.2,301.9z"/>
			<path class="st56" d="M949.8,374.3c0,0-1,47.1-2.9,75.7l6.9,9.5l4.8-12c0,0,2-34.5-4.5-73L949.8,374.3z"/>
			<path class="st56" d="M948.2,370.2l0.2,0.6c0.3,1.2,0.8,2.4,1.4,3.5l0,0l4.2,0.3c0,0,2.9-1.5,3.3-3.1c0.4-1.6-4.7-4.3-4.7-4.3
				l-0.6,0.2C950.5,368,949.2,369,948.2,370.2L948.2,370.2z"/>
			<path class="st11" d="M968.9,355.2c0,0,2.7,1.7,4.8,4.9c-2.2,5-7.1,13.9-12.6,17.9c-2.5-6.8-8.6-10.8-8.6-10.8
				S967.4,364.6,968.9,355.2z"/>
			<path class="st11" d="M952.5,367.2c0,0-5.3,2.1-8.4,8c0,0-1-8,1.1-14.9c0,0,3.5-4.5,4.7-4.5C949.4,361.5,952.5,367.2,952.5,367.2
				z"/>
			<g>
				<g>
					<path class="st50" d="M953.2,472.3c-5.3,0.8-7.2,2.7-10.2,5.7c-0.2,0.2-0.5,0.5-0.4,0.9c0.1,0.4,0.6,0.6,1,0.7
						c2.4,0.4,2.8-1.2,5.1-2.1c1.5-0.6,3.1-1.3,4.6-2"/>
				</g>
				<g>
					<g>
						<path class="st57" d="M935.3,434l18.6,59.8c0.5,1.6-0.4,3-2,3l-38.9,3.4c-1.4,0-2.8-1.1-3.3-2.5l-20-58.9
							c-0.5-1.6,1.8-3.9,3.4-3.9l38.9-3.4C933.5,431.5,934.9,432.6,935.3,434z"/>
					</g>
					<g>
						<path class="st58" d="M934.1,435.6l18.4,58.8c0.5,1.6-0.4,3-2,3l-38.9,3.4c-1.4,0-2.8-1.1-3.3-2.5l-18.4-58.8
							c-0.5-1.6,0.4-3,2-3l38.9-3.4C932.2,433,933.6,434.1,934.1,435.6z"/>
					</g>
					<g>
						<polygon class="st11" points="903,433.6 904.4,438.8 922.6,437.2 921.1,432.1 						"/>
						<g>
							<g>
								<path class="st11" d="M906.4,428.8c0.4,1.2,1.8,5.8,1.8,5.8l8.7-0.8l-1.8-5.8c-0.8-2.5-3.4-4.4-5.8-4.2
									C907,424.1,905.6,426.3,906.4,428.8z M908.4,428.7c-0.4-1.4,0.3-2.7,1.6-2.8c1.3-0.1,2.8,0.9,3.2,2.3
									c0.4,1.4-0.3,2.7-1.6,2.8C910.2,431.2,908.8,430.1,908.4,428.7z"/>
							</g>
						</g>
					</g>
				</g>
				<g>
					<path class="st55" d="M968,468.2c-4.1,0.9-15,4.1-16.1,4.6c-1.4,0.6-5.9,4.1-6.9,5.1c-4.1,4.1-2,6-3.6,11.6
						c-0.1,0.3-0.1,0.6-0.1,0.9c0,0.6,0.8,1.1,1.6,0.5c0.4,0.7,1.7,0.3,2.3-0.5c0,0.6,0.8,0.9,2,0.2c0.7-0.4,0.6-0.3,2.1-1.7
						c1.1-1,2.4-1.8,4.4-2.7c1.4-0.6,3.1-1.2,4.3-2c1.7-1.1,4.6-1.3,6.1-6.1c0.3-1,1.3-1.7,2.3-2.3c2.2-1.4,4.4-2.8,6.7-4.2"/>
				</g>
				<path class="st43" d="M993.1,391.6c1.7,6.2,8.9,48.9,8.9,48.9l-40.6,29.4l3.4,8.9c0,0,48.5-16.3,52.3-27.4
					c3.8-11.1,3.6-61.4-9.8-79.1c-4.3-5.6-12.9-8.5-12.9-8.5"/>
				<g>
					<path class="st50" d="M951.5,483.6l-1.7,1.4c-0.6,0.5-1.1,0.9-1.6,1.5c-0.9,1.1-1.8,2.3-2.8,3.4l1.3-1.8
						c0.4-0.6,0.9-1.2,1.4-1.7c0.5-0.6,1-1.1,1.6-1.5C950.3,484.3,950.9,484,951.5,483.6z"/>
				</g>
				<g>
					<path class="st50" d="M949.3,480.9c-0.8,0.5-1.3,1.3-1.9,2c-0.5,0.7-1.1,1.5-1.5,2.3c-0.7,1.7-1.7,3.3-2.7,4.9
						c0.8-1.7,1.7-3.3,2.5-5c0.4-0.9,1-1.6,1.6-2.3C947.9,482.1,948.5,481.3,949.3,480.9z"/>
				</g>
				<g>
					<path class="st50" d="M946.7,478.7c-0.5,0.7-1.1,1.4-1.7,2.1c-0.6,0.6-0.9,1.5-1.3,2.3c-0.7,1.6-1.3,3.3-1.7,5.1
						c0.2-1.8,0.8-3.5,1.5-5.2c0.4-0.8,0.7-1.7,1.4-2.3C945.5,480,946.2,479.4,946.7,478.7z"/>
				</g>
			</g>
			<g>
				<path class="st56" d="M977.7,331.4c-1.6-0.9-2.8-1.9-3.8-0.4c-0.5,0.8-0.9,1.9-1.8,2.2c-0.9,0.3-1.9-0.6-2.1-1.5
					c-0.2-0.9,0.1-1.9,0.3-2.9c0.6-2.1,1.3-4.1,1.9-6.2c0.6-2,1.2-4.2,0.4-6.2c-0.4-1-1.1-1.8-1.9-2.5c-2.6-2.3-6.1-3.4-9.5-4
					c-3.4-0.7-6.9-1-10.2-2.1c-1.4-0.4-2.8-1-3.9-2c-1.8-1.5-2.7-3.9-2.7-6.3c0-2.4,0.8-4.7,2-6.7c0.2,0.8,0.6,1.6,1,2.3
					c0.4-1.1,1-2.1,1.9-2.9c1,5.5,24.2,3.7,29.7,6.1c3.8,1.7,6.9,2.8,6.8,8.9c0.1,0.4,0.4,0.7,0.7,1c3.3,3.1,4.8,6.8,5.2,12.3
					c0.5,6.8-3.4,14.1-7.3,19.7c-1,1.4-1.5,2.4-2.9,3.4c-1.4,1-3.7,1.5-5.4,1.2c-1.7-0.3-5-0.2-5-1.9c0-1.2,2.6-3.4,3.3-4.4"/>
			</g>
			<g>
				<path class="st55" d="M971.6,337.8c0,0-0.3,1.1,0.4,2c0.6,0.8,1.9,0.7,2.8,0.4c2.5-0.8,4.2-3.2,4.6-5.7c0.5-2.9-1-5.9-3.7-5.1
					c-1.6,0.4-2.5,2.2-2.5,3.9"/>
			</g>
			<g>
				<path class="st50" d="M950.2,346.8l7.5,1.4c0,0-2.5,2.8-7.6,2.8"/>
			</g>
		</g>
	</g>
	<g class="st59">
		<g>
			<g>
				<polyline class="st60" points="365,219 375,224 370,211.8 				"/>
			</g>
			<path class="st60" d="M334,203.3c0,11,9.4,19.9,21.1,19.9c11.7,0,21.1-8.9,21.1-19.9c0-11-9.4-19.9-21.1-19.9
				C343.5,183.4,334,192.3,334,203.3z"/>
		</g>
		<path class="st61" d="M350,196.8V211c0,1.1,1.2,1.9,2.2,1.3l12.3-7.1c1-0.6,1-2,0-2.6l-12.3-7.1C351.2,194.9,350,195.6,350,196.8z
			"/>
	</g>
	<g class="st59">
		<g>
			<g>
				<polyline class="st60" points="1055.8,370.4 1045.8,375.5 1050.8,363.2 				"/>
			</g>
			<path class="st60" d="M1086.8,354.8c0,11-9.4,19.9-21.1,19.9c-11.7,0-21.1-8.9-21.1-19.9c0-11,9.4-19.9,21.1-19.9
				C1077.3,334.9,1086.8,343.8,1086.8,354.8z"/>
		</g>
		<g>
			<g>
				<g>
					<path class="st61" d="M1061.9,364.3c4.6,0.1,9.3,0.1,13.5-0.1c1.3-0.1,2.5-2.1,0.9-2.7c0.7-0.3,1.4-0.7,1.7-1.4
						c0.3-0.7-0.1-1.6-0.8-1.8c1.6,0.4,2.2-2,1-2.8c0.7-0.5,1.2-1.2,1.3-2c0.1-0.8-0.2-1.7-1-2.1c-0.5-0.3-1.1-0.3-1.7-0.3
						c-1.9,0-3.8,0-5.7,0c0.5-2.8,0.7-5.9-0.8-8.4c-0.5-0.7-1.7-1.6-2.7-1.1c-0.9,0.5-0.7,1.9-0.6,2.7c0.2,3.5-1.9,7-5.2,8.7
						C1061.7,353,1061.9,360.5,1061.9,364.3z"/>
				</g>
			</g>
			<rect x="1053.3" y="353" class="st61" width="7" height="11.3"/>
		</g>
	</g>
	<g class="st59">
		<g>
			<g>
				<polyline class="st60" points="736.3,197.6 743.6,189.7 733.7,191.7 				"/>
			</g>
			<path class="st60" d="M709.4,199.4c0,8,6.9,14.4,15.3,14.4s15.3-6.5,15.3-14.4c0-8-6.9-14.4-15.3-14.4S709.4,191.4,709.4,199.4z"
				/>
		</g>
		<g>
			<g>
				<g>
					<path class="st61" d="M721.7,206.3c3,0.1,6.1,0.1,8.8-0.1c0.9-0.1,1.6-1.5,0.6-2c0.4-0.2,0.9-0.5,1.1-1c0.2-0.5,0-1.2-0.5-1.3
						c1,0.3,1.5-1.5,0.6-2c0.4-0.4,0.8-0.9,0.9-1.5c0.1-0.6-0.1-1.2-0.6-1.5c-0.3-0.2-0.7-0.2-1.1-0.2c-1.3,0-2.5,0-3.8,0
						c0.3-2,0.4-4.3-0.6-6.1c-0.3-0.5-1.1-1.2-1.7-0.8c-0.6,0.4-0.4,1.4-0.4,2c0.1,2.5-1.3,5.1-3.4,6.3
						C721.6,198.1,721.8,203.6,721.7,206.3z"/>
				</g>
			</g>
			<rect x="716.1" y="198.1" class="st61" width="4.6" height="8.2"/>
		</g>
	</g>
	<g class="st59">
		<path class="st60" d="M807.6,92c3.1-3.9,4.9-8.7,4.9-14.1c0-12.5-10.1-22.6-22.6-22.6c-12.5,0-22.6,10.1-22.6,22.6
			c0,12.5,10.1,22.6,22.6,22.6c4.6,0,8.9-1.4,12.5-3.8l8.7,4.7L807.6,92z"/>
		<path class="st11" d="M780.4,71.8c2.2-2.1,5.7-2.1,7.8,0.1l1.4,1.4l1.4-1.4c2.2-2.1,5.7-2.1,7.8,0.1c2.1,2.2,2.1,5.7-0.1,7.8
			l-5.4,5.3c0,0,0,0,0,0c-0.9,0.8-1.9,1.3-3,1.5c-1.7,0.3-3.5-0.3-4.8-1.6l-5.3-5.4C778.2,77.4,778.3,73.9,780.4,71.8z"/>
	</g>
</g>
</svg>
